<svg width="80" height="80" fill="none" xmlns="http://www.w3.org/2000/svg"><circle cx="40" cy="40" r="40" fill="#000"/><path d="m57.568 21-3.24 36.3-14.566 4.038-14.525-4.032L22 21h35.568Z" fill="#264DE4"/><path d="m51.553 54.988 2.77-31.02h-14.54v34.283l11.77-3.263Z" fill="#2965F1"/><path d="m29.42 37.434.4 4.452h9.964v-4.452H29.42ZM39.784 28.421H28.619l.404 4.453h10.76v-4.453ZM39.784 53.63v-4.632l-.02.005-4.959-1.34-.317-3.55H30.018l.624 6.991 9.121 2.532.02-.006Z" fill="#EBEBEB"/><path d="m45.252 41.886-.517 5.775-4.966 1.34v4.633l9.128-2.53.067-.752 1.046-11.723.109-1.195.804-9.013H39.769v4.453h6.274l-.405 4.56h-5.87v4.452h5.483Z" fill="#000"/></svg>