<svg width="80" height="80" fill="none" xmlns="http://www.w3.org/2000/svg"><circle cx="40" cy="40" r="40" fill="#000"/><path d="M39.494 61 24.37 56.801 21 19h37.033L54.66 56.796 39.494 61Z" fill="#264DE4"/><path d="m51.772 54.389 2.883-32.298H39.518v35.695l12.254-3.397Z" fill="#2965F1"/><path d="m28.727 36.11.415 4.637h10.375v-4.636h-10.79ZM27.89 26.727l.422 4.636h11.204v-4.636H27.891ZM39.517 48.152l-.02.005-5.163-1.394-.33-3.698H29.35l.65 7.28 9.496 2.636.021-.006v-4.823Z" fill="#EBEBEB"/><path d="m50.277 36.11.837-9.383H39.5v4.636h6.533l-.422 4.748H39.5v4.636h5.709l-.538 6.013-5.171 1.395v4.824l9.505-2.634.07-.784 1.089-12.205.113-1.245Z" fill="#fff"/></svg>