<svg width="80" height="80" fill="none" xmlns="http://www.w3.org/2000/svg"><circle cx="40" cy="40" r="40" fill="#000"/><path d="M32.815 62.889a6.817 6.817 0 0 0 6.815-6.815v-6.815h-6.815A6.817 6.817 0 0 0 26 56.074a6.817 6.817 0 0 0 6.815 6.815Z" fill="#0ACF83"/><path d="M26 42.444a6.817 6.817 0 0 1 6.815-6.814h6.815v13.63h-6.815A6.817 6.817 0 0 1 26 42.443Z" fill="#A259FF"/><path d="M26 28.815A6.817 6.817 0 0 1 32.815 22h6.815v13.63h-6.815A6.817 6.817 0 0 1 26 28.815Z" fill="#F24E1E"/><path d="M39.63 22h6.814a6.817 6.817 0 0 1 6.815 6.815 6.817 6.817 0 0 1-6.815 6.815H39.63V22Z" fill="#FF7262"/><path d="M53.26 42.444a6.817 6.817 0 0 1-6.816 6.815 6.817 6.817 0 0 1-6.814-6.815 6.817 6.817 0 0 1 6.814-6.814 6.817 6.817 0 0 1 6.815 6.814Z" fill="#1ABCFE"/></svg>