<svg width="80" height="80" viewBox="0 0 80 80" fill="none" xmlns="http://www.w3.org/2000/svg">
<circle cx="40" cy="40" r="40" fill="black"></circle>
<path d="M32.8148 62.8888C36.5766 62.8888 39.6296 59.8358 39.6296 56.074V49.2592H32.8148C29.053 49.2592 26 52.3123 26 56.074C26 59.8358 29.053 62.8888 32.8148 62.8888Z" fill="#0ACF83"></path>
<path d="M26 42.4444C26 38.6826 29.053 35.6296 32.8148 35.6296H39.6296V49.2592H32.8148C29.053 49.2592 26 46.2061 26 42.4444Z" fill="#A259FF"></path>
<path d="M26 28.8148C26 25.053 29.053 22 32.8148 22H39.6296V35.6296H32.8148C29.053 35.6296 26 32.5766 26 28.8148Z" fill="#F24E1E"></path>
<path d="M39.6296 22H46.4444C50.2062 22 53.2592 25.053 53.2592 28.8148C53.2592 32.5766 50.2062 35.6296 46.4444 35.6296H39.6296V22Z" fill="#FF7262"></path>
<path d="M53.2592 42.4444C53.2592 46.2061 50.2062 49.2592 46.4444 49.2592C42.6826 49.2592 39.6296 46.2061 39.6296 42.4444C39.6296 38.6826 42.6826 35.6296 46.4444 35.6296C50.2062 35.6296 53.2592 38.6826 53.2592 42.4444Z" fill="#1ABCFE"></path>
</svg>
