<svg width="28" height="28" viewBox="0 0 48 48" fill="none" xmlns="http://www.w3.org/2000/svg"><path d="M3.273 42.009h7.636V23.463L0 15.281v23.455a3.272 3.272 0 0 0 3.273 3.273Z" fill="#4285F4"/><path d="M37.09 42.009h7.637A3.272 3.272 0 0 0 48 38.736V15.282l-10.91 8.181V42.01Z" fill="#34A853"/><path d="M37.09 9.282v14.181L48 15.281v-4.363c0-4.045-4.617-6.355-7.855-3.927l-3.054 2.29Z" fill="#FBBC04"/><path fill-rule="evenodd" clip-rule="evenodd" d="M10.91 23.463V9.281L24 19.1 37.09 9.28v14.182L24 33.282l-13.09-9.819Z" fill="#EA4335"/><path d="M0 10.918v4.364l10.91 8.181V9.282L7.854 6.99C4.617 4.563 0 6.873 0 10.918Z" fill="#C5221F"/></svg>