<svg width="80" height="80" fill="none" xmlns="http://www.w3.org/2000/svg"><circle cx="40" cy="40" r="40" fill="#000"/><path d="M25.235 57.31 22 21h35.564L54.33 57.29l-14.576 4.038" fill="#E44D26"/><path d="M39.782 58.24V23.98h14.537l-2.774 30.977" fill="#F16529"/><path d="M28.607 28.42h11.175v4.451h-6.293l.411 4.558h5.882v4.441h-9.96l-1.215-13.45Zm1.412 15.685h4.47l.313 3.559 4.98 1.333v4.646l-9.136-2.549" fill="#EBEBEB"/><path d="M50.918 28.42H39.762v4.451h10.744l.412-4.45Zm-.814 9.01H39.762v4.45h5.49l-.52 5.783-4.97 1.334v4.627l9.117-2.53" fill="#000"/></svg>