<svg width="80" height="80" viewBox="0 0 80 80" fill="none" xmlns="http://www.w3.org/2000/svg">
<circle cx="40" cy="40" r="40" fill="black"></circle>
<path d="M25.2349 57.3091L22 21H57.5641L54.3293 57.2895L39.7527 61.3283" fill="#E44D26"></path>
<path d="M39.7819 58.2407V23.9803H54.3193L51.5451 54.9568" fill="#F16529"></path>
<path d="M28.6069 28.4208H39.782V32.8712H33.4887L33.9004 37.4294H39.782V41.8701H29.8225L28.6069 28.4208ZM30.0185 44.1051H34.4885L34.8022 47.6635L39.782 48.9966V53.6431L30.6459 51.0944" fill="#EBEBEB"></path>
<path d="M50.9177 28.4208H39.7623V32.8712H50.506L50.9177 28.4208ZM50.1041 37.4294H39.7623V41.8799H45.2518L44.7322 47.6635L39.7623 48.9966V53.6235L48.8788 51.0944" fill="black"></path>
</svg>
