<svg width="80" height="80" fill="none" xmlns="http://www.w3.org/2000/svg"><circle cx="40" cy="40" r="40" fill="#000"/><path d="M58.033 19 54.66 56.796 39.494 61 24.37 56.801 21 19h37.033Z" fill="#E44D26"/><path d="m39.518 57.786 12.254-3.397 2.883-32.298H39.518v35.695Z" fill="#F16529"/><path d="M32.957 31.363h6.559v-4.636H27.891l.11 1.244 1.14 12.776h10.375v-4.636h-6.135l-.424-4.748ZM34.004 43.065H29.35l.65 7.28 9.496 2.636.021-.006v-4.823l-.02.005-5.163-1.394-.33-3.698Z" fill="#EBEBEB"/><path d="M39.5 40.747h5.709l-.538 6.013-5.171 1.395v4.824l9.505-2.634.07-.784 1.089-12.205.113-1.245H39.5v4.636ZM39.5 31.352v.011h11.199l.093-1.042.21-2.35.112-1.244H39.5v4.625Z" fill="#fff"/></svg>