<svg width="452" height="249" viewBox="0 0 652 349" fill="none" xmlns="http://www.w3.org/2000/svg"><path d="M578.495 109.226c-26.771-22.816-59.047-160.403-169.61-88.743-57.124 37.022-153.444-31.784-233.171-8.018-73.218 21.826-80.277 93.737-73.193 117.168 14.311 47.333-30.222 54.378-71.535 74.713-64.802 31.901-17.149 144.009 44.07 144.545 61.22.535 432.103-1.069 432.103-1.069s88.934.224 125.918-48.812c39.799-52.769 14.569-130.857-54.58-189.787l-.002.003Z" fill="#EBF2F9" fill-opacity=".1"/><path d="M458.494 23H271.94v281.253h186.554V23Z" fill="#004AB8"/><path d="M440.163 38.731H289.965v167.36h150.198V38.731ZM339.27 278.655c10.549-10.546 10.549-27.644 0-38.189-10.549-10.546-27.653-10.546-38.202 0-10.549 10.545-10.549 27.643 0 38.189 10.549 10.545 27.653 10.545 38.202 0Z" fill="#F3F9FF"/><path d="M343.003 259.562c0-12.607-10.222-22.828-22.831-22.828s-22.835 10.221-22.835 22.828 10.222 22.828 22.835 22.828a22.717 22.717 0 0 0 13.848-4.679l-13.848-18.149 21.336 8.14a22.8 22.8 0 0 0 1.495-8.14Z" fill="#FF9A3D"/><path d="M438.481 265.75c3.427-14.515-5.565-29.059-20.085-32.485-14.519-3.425-29.068 5.564-32.495 20.079-3.427 14.515 5.565 29.059 20.085 32.485 14.52 3.426 29.068-5.564 32.495-20.079Z" fill="#F3F9FF"/><path d="M412.205 236.734c-12.613 0-22.835 10.221-22.835 22.828a22.74 22.74 0 0 0 6.56 16.012l16.273-16.012 21.336 8.14a22.778 22.778 0 0 0 1.495-8.14c0-12.607-10.222-22.828-22.831-22.828h.002Z" fill="#FF9A3D"/><path d="M408.868 247.972h-9.72a.697.697 0 0 0-.695.695c0 .382.313.695.695.695h9.72a.697.697 0 0 0 .695-.695.697.697 0 0 0-.695-.695ZM408.868 250.171h-9.72a.697.697 0 0 0-.695.695c0 .382.313.695.695.695h9.72a.697.697 0 0 0 .695-.695.697.697 0 0 0-.695-.695ZM403.163 252.368h-4.014a.698.698 0 0 0-.695.695c0 .382.314.695.695.695h4.014a.697.697 0 0 0 .695-.695.697.697 0 0 0-.695-.695ZM316.647 247.972h-9.72a.697.697 0 0 0-.695.695c0 .382.313.695.695.695h9.72a.697.697 0 0 0 .695-.695.697.697 0 0 0-.695-.695ZM316.647 250.171h-9.72a.697.697 0 0 0-.695.695c0 .382.313.695.695.695h9.72a.697.697 0 0 0 .695-.695.697.697 0 0 0-.695-.695ZM310.941 252.368h-4.014a.697.697 0 0 0-.695.695c0 .382.313.695.695.695h4.014a.698.698 0 0 0 .695-.695.698.698 0 0 0-.695-.695Z" fill="#fff"/><path d="M319.189 98.543H303.34v98.701h15.849V98.543ZM345.155 71.032h-15.849v126.212h15.849V71.032ZM373.487 122.411h-15.849v74.831h15.849v-74.831ZM401.057 87.881h-15.849v109.363h15.849V87.881ZM428.77 137.058h-15.849v60.184h15.849v-60.184ZM400.305 73.652h-13.423c-.763 0-1.388.624-1.388 1.388 0 .763.625 1.387 1.388 1.387h13.423c.763 0 1.388-.624 1.388-1.387 0-.764-.625-1.388-1.388-1.388ZM389.939 78.704h-3.057c-.763 0-1.388.625-1.388 1.388 0 .763.625 1.388 1.388 1.388h3.057c.764 0 1.388-.625 1.388-1.388 0-.763-.624-1.388-1.388-1.388ZM344.996 52.157h-13.422c-.763 0-1.388.624-1.388 1.387 0 .764.625 1.388 1.388 1.388h13.422c.764 0 1.389-.624 1.389-1.388 0-.763-.625-1.387-1.389-1.387ZM334.631 57.209h-3.057c-.763 0-1.388.624-1.388 1.388 0 .763.625 1.387 1.388 1.387h3.057c.764 0 1.388-.624 1.388-1.387 0-.764-.624-1.388-1.388-1.388ZM372.274 107.68h-13.422c-.764 0-1.388.624-1.388 1.387 0 .764.624 1.388 1.388 1.388h13.422c.764 0 1.388-.624 1.388-1.388 0-.763-.624-1.387-1.388-1.387ZM361.909 112.732h-3.057c-.764 0-1.388.624-1.388 1.388 0 .763.624 1.387 1.388 1.387h3.057c.764 0 1.388-.624 1.388-1.387 0-.764-.624-1.388-1.388-1.388ZM427.558 122.411h-13.423c-.763 0-1.388.624-1.388 1.387 0 .764.625 1.388 1.388 1.388h13.423c.763 0 1.388-.624 1.388-1.388 0-.763-.625-1.387-1.388-1.387ZM417.192 127.463h-3.057c-.763 0-1.388.624-1.388 1.388 0 .763.625 1.387 1.388 1.387h3.057c.764 0 1.388-.624 1.388-1.387 0-.764-.624-1.388-1.388-1.388Z" fill="#1F78FF"/><path d="M246.766 129.61H110.422v76.733h136.344V129.61Z" fill="#AED3FF"/><path d="M251.199 129.61H114.855v76.733h136.344V129.61Z" fill="#004AB8"/><path d="M169.577 183.67c9.627-9.625 9.627-25.229 0-34.853-9.628-9.625-25.237-9.625-34.865 0-9.627 9.624-9.627 25.228 0 34.853 9.628 9.624 25.237 9.624 34.865 0ZM235.871 152.476h-40.839c-1.48 0-2.69 1.21-2.69 2.69a2.697 2.697 0 0 0 2.69 2.689h40.839c1.48 0 2.691-1.21 2.691-2.689 0-1.48-1.211-2.69-2.691-2.69ZM235.871 163.554h-40.839c-1.48 0-2.69 1.21-2.69 2.689 0 1.48 1.21 2.69 2.69 2.69h40.839c1.48 0 2.691-1.21 2.691-2.69a2.698 2.698 0 0 0-2.691-2.689ZM235.871 174.63h-40.839c-1.48 0-2.69 1.21-2.69 2.689 0 1.48 1.21 2.69 2.69 2.69h40.839c1.48 0 2.691-1.21 2.691-2.69a2.698 2.698 0 0 0-2.691-2.689Z" fill="#F3F9FF"/><path d="M129.572 165.886h22.572v-22.564c-12.466 0-22.572 10.103-22.572 22.564Z" fill="#A8D29F"/><path d="M174.715 166.612h-45.143c0 12.461 10.106 22.564 22.572 22.564 12.465 0 22.571-10.103 22.571-22.564Z" fill="#F1A34F"/><path d="M148.245 154.286h-12.25c-.697 0-1.268.57-1.268 1.267s.571 1.267 1.268 1.267h12.25c.697 0 1.268-.57 1.268-1.267s-.571-1.267-1.268-1.267ZM138.786 158.895h-2.789c-.697 0-1.268.571-1.268 1.267 0 .697.571 1.268 1.268 1.268h2.789c.697 0 1.268-.571 1.268-1.268 0-.696-.571-1.267-1.268-1.267Z" fill="#1A9A00"/><path d="M166.433 172.128h-12.25c-.697 0-1.268.571-1.268 1.267 0 .697.571 1.268 1.268 1.268h12.25c.697 0 1.268-.571 1.268-1.268 0-.696-.571-1.267-1.268-1.267ZM156.972 176.737h-2.789c-.697 0-1.268.571-1.268 1.268 0 .696.571 1.267 1.268 1.267h2.789c.697 0 1.268-.571 1.268-1.267 0-.697-.571-1.268-1.268-1.268Z" fill="#DD8936"/><path d="M100.818 220.085v78.475h136.344v-78.475H100.818Z" fill="#AED3FF"/><path d="M105.252 220.085v78.475h136.343v-78.475H105.252Z" fill="#004AB8"/><path d="M142.54 281.544c13.615 0 24.653-11.034 24.653-24.645 0-13.611-11.038-24.644-24.653-24.644-13.615 0-24.653 11.033-24.653 24.644 0 13.611 11.038 24.645 24.653 24.645ZM185.428 248.513h40.84c1.479 0 2.69-1.21 2.69-2.69a2.698 2.698 0 0 0-2.69-2.689h-40.84a2.698 2.698 0 0 0-2.69 2.689c0 1.48 1.211 2.69 2.69 2.69ZM226.268 254.208h-40.84a2.698 2.698 0 0 0-2.69 2.689c0 1.48 1.211 2.69 2.69 2.69h40.84c1.479 0 2.69-1.21 2.69-2.69a2.698 2.698 0 0 0-2.69-2.689ZM226.268 265.286h-40.84a2.698 2.698 0 0 0-2.69 2.689c0 1.48 1.211 2.69 2.69 2.69h40.84c1.479 0 2.69-1.21 2.69-2.69a2.698 2.698 0 0 0-2.69-2.689Z" fill="#F3F9FF"/><path d="m142.54 257.298-22.57-.286c-.002.095-.002.193-.002.286 0 12.462 10.106 22.564 22.572 22.564 4.456 0 8.611-1.292 12.111-3.521l-12.111-19.043Z" fill="#F1A34F"/><path d="M143.371 264.404h-12.249a1.267 1.267 0 1 0 0 2.533h12.249a1.266 1.266 0 1 0 0-2.533ZM133.912 269.014h-2.79c-.696 0-1.267.57-1.267 1.267s.571 1.267 1.267 1.267h2.79c.697 0 1.268-.57 1.268-1.267s-.571-1.267-1.268-1.267Z" fill="#DD8936"/><path d="M237.164 45.925H100.818v71.111h136.346V45.925Z" fill="#AED3FF"/><path d="M241.595 45.925H105.252v71.111h136.343V45.925Z" fill="#004AB8"/><path d="M159.971 99.951c9.628-9.624 9.628-25.228 0-34.853-9.627-9.624-25.236-9.624-34.864 0-9.627 9.625-9.627 25.229 0 34.853 9.628 9.624 25.237 9.624 34.864 0Z" fill="#F3F9FF"/><path d="M142.54 59.963c-12.466 0-22.572 10.1-22.572 22.562 0 8.536 4.745 15.966 11.739 19.799 3.616-6.695 10.833-19.799 10.833-19.799l10.686 19.877c7.076-3.81 11.882-11.28 11.882-19.877 0-12.461-10.104-22.562-22.57-22.562h.002Z" fill="#A8D29F"/><path d="M226.27 68.758h-40.842a2.69 2.69 0 0 0-2.69 2.69v.002a2.69 2.69 0 0 0 2.69 2.689h40.842a2.69 2.69 0 0 0 2.69-2.69v-.001a2.69 2.69 0 0 0-2.69-2.69ZM226.268 79.834h-40.84a2.698 2.698 0 0 0-2.69 2.69c0 1.479 1.211 2.689 2.69 2.689h40.84c1.479 0 2.69-1.21 2.69-2.69 0-1.479-1.211-2.689-2.69-2.689ZM226.268 90.912h-40.84a2.698 2.698 0 0 0-2.69 2.69c0 1.479 1.211 2.689 2.69 2.689h40.84c1.479 0 2.69-1.21 2.69-2.69 0-1.479-1.211-2.689-2.69-2.689Z" fill="#F3F9FF"/><path d="M143.371 71.75h-12.25c-.697 0-1.268.57-1.268 1.267 0 .696.571 1.267 1.268 1.267h12.25c.696 0 1.267-.57 1.267-1.267s-.571-1.268-1.267-1.268ZM133.912 76.359h-2.79c-.696 0-1.267.57-1.267 1.267s.571 1.267 1.267 1.267h2.79c.697 0 1.268-.57 1.268-1.267s-.571-1.267-1.268-1.267Z" fill="#1A9A00"/><path d="M273.221 168.732s15.905 16.413 16.668 22.603c.764 6.189-7.566 15.87-7.566 15.87l-9.102-38.473Z" fill="#E58638"/><path d="M266.422 338.998s-.54 8.725-2.23 8.851c-.225.017-8.565.017-8.565.017l-10.646-.061s.069-2.565 3.181-3.107c3.112-.542 8.321-2.73 10.207-6.841 1.984-4.325 8.053 1.141 8.053 1.141ZM290.136 338.998s-.541 8.725-2.23 8.851c-.226.017-8.565.017-8.565.017l-10.679-.038s.101-2.588 3.213-3.13c3.112-.542 8.321-2.73 10.207-6.841 1.984-4.325 8.054 1.141 8.054 1.141Z" fill="#163560"/><path d="M254.631 245.43s2.783 17.802 13.172 49.406c10.386 31.603 11.803 45.289 11.803 45.289s2.81.406 5.777.406c1.877 0 5.365-.719 5.365-.719s.096-34.54-4.693-50.431c-4.786-15.892-1.032-57.293-1.032-57.293l-30.392 13.342Z" fill="#163560"/><path d="M249.208 233.066s-.395 26.828 4.248 59.768c4.644 32.939 3.07 46.922 3.07 46.922s3.823.685 5.165.729c1.438.048 5.955-.359 5.955-.359s6.646-32.953 4.741-49.44c-1.906-16.487 9.101-56.574 9.101-56.574l-32.28-1.046Z" fill="#00245E"/><path d="m270.737 170.284-5.245 3.884-7.579-1.596c.105-.691.605-3.555 1.061-6.149.027-.153.056-.306.08-.457.39-2.206.728-4.103.728-4.103l7.079-3.527 2.641-1.315c-.008.045-.204 2.45-.233 2.8-.494 6.229 1.468 10.463 1.468 10.463Z" fill="#FFB27D"/><path d="M258.442 168.324c.166-.071 10.312-3.064 11.413-2.699 1.102.364 1.755 2.496 1.755 2.496l-16.596 3.751s1.306-2.655 3.426-3.546l.002-.002Z" fill="#E58638"/><path d="M285.761 236.377c-1.72 7.843-30.34 8.772-37.717 1.653-.841-.811-.881-4.586-.564-9.677.619-9.946 2.607-24.906 2.685-32.548.038-3.692.544-7.467 1.222-10.895 1.437-7.306 3.629-13.04 3.629-13.04s13.98-4.518 16.596-3.749c12.601 3.701 15.872 60.413 14.151 68.256h-.002Z" fill="#FF9A3D"/><path d="M247.478 228.353c.619-9.946 2.607-24.906 2.685-32.548.038-3.692.544-7.467 1.222-10.895l8.408-1.483s8.222 33.572-12.315 44.926Z" fill="#E58638"/><path d="M252.032 214.491s.573 1.37-.63 2.288c-1.205.92-1.984 2.409-1.709 3.499.275 1.088 2.916 2.864 3.832 2.578.915-.286 2.778-1.72 2.578-2.294-.201-.575 1.252-5.041-.978-6.759-2.232-1.719-3.091.688-3.091.688h-.002Z" fill="#FFB27D"/><path d="M261.437 169.858s-8.202 1.535-14.736 11.162c-6.535 9.627-10.833 16.785-9.63 20.255 1.205 3.47 12.177 15.504 14.068 15.504 1.89 0 4.945-1.376 5.116-4.47 0 0-7.725-11.574-6.203-13.309.651-.741 10.03-8.353 11.37-4.915 2.215 5.69.017-24.227.017-24.227h-.002Z" fill="#FF9A3D"/><path d="M268.736 159.931c-1.554 2.974-7.348 5.547-9.764 6.492.027-.153.056-.306.08-.456.39-2.207.728-4.104.728-4.104l7.08-3.527c1.565-.025 2.518.372 1.876 1.595Z" fill="#FCA56B"/><path d="M257.498 162.025s10.48 3.268 12.416-3.288c1.936-6.557 4.592-10.55-2.018-12.915-6.61-2.364-8.654-.248-9.833 1.783-1.178 2.031-3.241 13.399-.565 14.418v.002Z" fill="#FFB27D"/><path d="M258.476 146.975s.668 7.629 2.247 7.299c1.579-.332 3.009-.576 2.778 1.724-.231 2.299-2.419 4.954 2.444 5.361 4.865.407 11.857-12.133 10.52-14.508-3.855-6.85-23.562-8.232-17.989.124Z" fill="#163560"/><path d="m69.778 324.26 3.19 13.435 4.779-.026.176-13.409h-8.145ZM109.98 324.833l9.078 12.862 3.538-4.542-5.464-10.087-7.152 1.767Z" fill="#FFB27D"/><path d="M86.375 147.722c-1.65-.937-3.628-1.04-5.01-.958.357-.368 1.056-.502 1.056-.502-.857-.128-2.772.723-2.772.723-11.93-4.596-13.804 12.964-13.554 17.045.248 4.079-4.01 5.411-10.215 8.625C44.04 178.788 43 187.001 43 187.001c.092.053.189.116.29.187.588-.995 1.797-2.863 2.816-3.146-.038.09-1.204 2.573-1.64 3.995 3.494 2.657 10.03 8.543 14.583 12.717-.02-.815.012-1.973.31-2.586l.563 3.388c2.438 2.241 4.118 3.816 4.118 3.816-.301-3.297 14.914-20.694 22.852-25.903 1.933-2.844 2.62-7.868 2.672-8.263-.334 3.984-1.016 6.219-1.625 7.477 6.722-6.184 2.808-28.474-1.566-30.957l.002-.004Z" fill="#163560"/><path d="M86.425 179.727c.04.017-3.832 2.027-6.746 1.231-2.74-.747-4.53-4.299-4.492-4.306 1.16-.231 1.495-1.825 1.47-8.675l.525.103 8.82 1.746s-.2 2.776-.205 5.389c-.006 2.195.127 4.277.63 4.51l-.002.002Z" fill="#FFB27D"/><path d="M76.45 150.599s4.352-4.631 9.814-.237c0 0-3.179-.55-9.813.237Z" fill="#E37970"/><path d="M86 169.826s-.2 2.776-.205 5.389c-4.936-.14-7.544-4.64-8.613-7.135l8.82 1.746h-.001Z" fill="#D68D5D"/><path d="M76.271 167.122s-2.587-4.087-3.207-7.579c-.443-2.495.826-11.739 10.12-10.408 0 0 2.7.265 5.236 1.979 2.018 1.363 4.93 4.304 1.674 12.37l-.845 2.726-12.978.912Z" fill="#163560"/><path d="m121.156 329.627-4.675.144-5.062.154s-11.688-13.009-18.247-33.867a55.65 55.65 0 0 0-.485-1.472c-3.59-10.459-11.028-23.589-14.948-35.474a198.94 198.94 0 0 1-1.687-5.362c-.16-.54-.32-1.07-.468-1.593-2.889-10.036-3.725-16.623-4.496-23.664l28.308.227s4.571 48.068 21.759 100.906l.001.001Z" fill="#80BDCC"/><path d="M95.436 212.462c-.07 13.466 1.977 19.243 1.977 19.243s-12.12 6.156-26.526 1.625c-.17-.054-11.927-2.735-11.927-2.735.24-.546 2.384-9.62 2.62-10.12 3.04-6.53 5.349-9.393 5.71-11.399.668-3.746.683-7.625.35-11.282-.879-9.681-3.495-17.718-3.495-17.718 3.926-.893 7.702-2.42 11.788-3.951.94 1.17 3.71 2.351 6.203 2.296 2.87-.063 3.766-1.277 3.66-2.643a89.407 89.407 0 0 1 5.49 3.319c2.598 4.512 7.87 8.894 8.252 15.817.093 1.702-4.1 17.172-4.102 17.548Z" fill="#E7F1FD"/><path d="M71.091 213.962c-1.237 1.751-3.61 12.393-9.512 13.731 3.042-7.585 5.35-10.91 5.71-13.242.67-4.354.684-8.856.35-13.105 1.976-3.462 3.45-5.835 3.45-5.835.155-.559 3.141-9.785 4.098-1.538.954 8.249-2.715 18.033-4.098 19.991l.002-.002Z" fill="#5F9AA8"/><path d="M87.65 172.302s-11.677.193-11.684-7.079c-.008-7.272-1.52-12.145 5.934-12.575 7.456-.431 8.906 2.342 9.5 4.77.594 2.426-.712 14.647-3.75 14.884Z" fill="#FFB27D"/><path d="M91.053 153.374c-1.802-2.184-3.166-1.708-3.93-1.054-2.523-3.769-10.499 1.682-10.499 1.682-.78 5.218-4.544 8.207-4.544 8.207s2.13 1.315 7.036.053c3.862-.992 6.663-6.487 7.683-8.783.695.616 2.16 2.042 2.598 3.439.583 1.852.844 5.663 1.956 5.533 0 0 2.41-5.798-.298-9.079l-.002.002Z" fill="#163560"/><path d="M72.808 336.943s.385 2.661-.61 5.509c0 0-.782 3.563 2.729 3.628 3.511.067 4.372-.265 3.973-2.449a453.44 453.44 0 0 0-1.153-5.962l-4.94-.724v-.002Z" fill="#FFB27D"/><path d="m79.233 347.83-.012.008h-7.263l-.011-.008c-.398-1.862.252-5.374.252-5.374 3.975 3.798 6.463-.096 6.463-.096.645 1.625.57 5.47.57 5.47Z" fill="#C45446"/><path d="M131.056 344.154s-6.472-7.346-8.46-11.001l-4.811 2.464 10.757 10.099 2.516-.331v-1.231h-.002Z" fill="#FFB27D"/><path d="M135.025 347.817h-8.979c-.79-.712-1.544-2.147-2.469-4.029-.528-1.079-1.714-1.672-2.93-1.998v6.027h-1.858l-1.72-6.409c-1.146-2.147-.285-4.117.521-5.814.937-.002 3.656.676 8.437 6.167 1.571 1.804 3.305 2.447 5.029 2.393a.417.417 0 0 0 .071.039c2.722 1.248 3.61 2.782 3.898 3.624Z" fill="#C45446"/><path d="M134.59 184.37s-7.666 4.285-10.403 5.52a930.753 930.753 0 0 0-7.683 3.575 3.952 3.952 0 0 1-4.682-1.009c-4.151-4.845-14.892-15.346-25.985-16.663l-.038-.017.005.011h-.013l.06.119c.625 1.549 6.706 16.739 6.893 19.943.199 3.377.795 55.22.795 55.22s-.397 2.384 4.171 1.389c4.571-.992 5.763-1.987 5.763-1.987s-4.37-31.979-3.179-43.103c.235-2.184.023-4.636-.466-7.169 6.757 4.09 14.722 5.911 14.722 5.911s2.971-1.296 7.588-4.155c1.938-1.202 4.185-3.119 6.398-5.146 2.673-2.449 7.272-8.367 7.272-8.367l-1.218-4.073v.001Z" fill="#E37970"/><path d="m116.481 329.771-5.062.154s-11.688-13.009-18.247-33.867a55.65 55.65 0 0 0-.485-1.472c-3.59-10.459-11.028-23.589-14.948-35.474a197.819 197.819 0 0 1-1.687-5.362c-.16-.54-.32-1.07-.468-1.593l4.168-3.163s12.515 20.261 16.391 39.328c3.366 16.562 16.846 36.49 20.334 41.447l.004.002Z" fill="#5F9AA8"/><path d="M80.19 290.099c.072 9.272-.396 30.588-1.605 39.414h-4.483c-2.478 0-3.713-.036-3.713-.036-3.03-15.344-5.186-28.04-6.755-38.981-1.287-8.978-2.433-16.676-3.313-23.301-.886-6.669-1.503-12.252-1.722-16.97a74.595 74.595 0 0 1-.086-4.222l24.46-2.384c-.308 16.247-2.822 41.092-2.782 46.48Z" fill="#80BDCC"/><path d="M74.102 329.515c-2.478 0-3.713-.036-3.713-.036-3.03-15.344-5.186-28.041-6.755-38.981-1.287-8.978-2.433-16.676-3.313-23.301-.886-6.669-1.503-12.252-1.722-16.97l8.975 5.278s-5.727 2.019-3.543 17.315c2.186 15.294 7.03 54.53 10.071 56.695Z" fill="#5F9AA8"/><path d="M75.257 250.076s-1.722 6.222-7.683 5.428c-5.96-.794-14.438-4.37-14.438-4.37s2.547-8.047 5.715-18.617c3.836-12.798 8.582-29.297 10.818-39.703.628-2.916 1.058-5.352 1.216-7.094l5.048-9.597s7.27 16.548 7.668 20.719c.397 4.17-8.346 53.232-8.346 53.232l.002.002Z" fill="#E37970"/><path d="M96.546 201.499c-2.87.376-3.97 1.901-4.323 3.956-.19 1.109-.763 2.207-1.248 2.982-2.859.152-9.663.523-15.382.885l-.471 7.498c4.697-.584 10.468-1.775 17.113-4.049.51-.087 1.147-.404 1.947-1.057 4.117-3.371 6.454-9.015 6.461-9.822.008-.809-1.226-.767-4.095-.391l-.002-.002Z" fill="#FFB27D"/><path d="M74.994 205.583c-.266 6.753-1.856 19.864-16.029 26.882-.038.017-.076.038-.112.053 3.835-12.797 8.582-29.296 10.818-39.702 2.602 3.89 5.468 9.049 5.323 12.767Z" fill="#C45446"/><path d="M75.935 176.123s-12.124.859-15.037 7.348c-2.914 6.49-3.842 28.073-.132 34.429 0 0 5.107 1.454 14.138-.235l.334-.063s2.881-7.052.298-8.442c0 0-7.616.397-6.822-2.118.794-2.516 7.223-30.919 7.223-30.919h-.002Z" fill="#E37970"/><path d="M142.808 179.278c-6.522-.838-8.168 5.092-8.168 5.092l1.218 4.074c2.01.276 3.771-.247 5.392-2.566 1.621-2.319 2.068-1.427 3.099-3.155 1.397-2.34-.789-3.212-1.537-3.447l-.004.002ZM124.187 189.89c-.974.439-2.738 1.26-4.541 2.102.964 1.712 2.171 4.823 2.492 9.965 1.938-1.203 4.447-3.205 6.589-5.306 3.436-3.373 7.081-8.207 7.081-8.207l-1.218-4.074s-7.666 4.285-10.403 5.52Z" fill="#FFB27D"/><path d="M470.192 237.135s-4.637 1.191-7.585.304c-2.948-.888-8.023.57-8.84 1.645-.817 1.075-.518 1.502.941 1.872 1.459.371 6.625 2.573 10.02 1.298 3.395-1.275 7.824-1.32 7.824-1.32l-2.358-3.799h-.002Z" fill="#E49963"/><path d="M510.278 196.859s-5.211 37.02-13.839 40.335c-4.257 1.636-23.072 5.345-28.635 5.717 0 0-1.363-1.105-1.031-5.606 0 0 19.711-7.234 22.512-11.167 4.168-5.856-2.587-23.92 2.643-29.421 5.229-5.499 14.037-7.861 18.352.142h-.002Z" fill="#1652CA"/><path d="M509.611 339.497v-8.072h12.712c.344 0 .625-.28.625-.624v-1.294a.626.626 0 0 0-.625-.624h-12.712v-45.946a2.35 2.35 0 0 0-2.344-2.343h-2.515a2.35 2.35 0 0 0-2.344 2.343v45.946h-12.712a.626.626 0 0 0-.625.624v1.294c0 .344.281.624.625.624h12.712v8.072c-9.197.695-16.565 4.004-18.633 8.282h44.471c-2.068-4.278-9.436-7.587-18.633-8.282h-.002Z" fill="#2B478B"/><path d="M508.521 274.85c-1.52 2.577-3.278 4.994-5.09 7.28-5.6 7.068-11.696 12.895-12.758 18.402-.212 1.097-.546 2.28-.985 3.525a45.37 45.37 0 0 1-1.625 3.96c-2.377 5.161-5.93 10.943-9.477 16.199-6.133 9.085-11.901 16.667-11.901 16.667l-10.577-.451c.423-1.059 5.036-13.605 11.207-28.935 2.507-6.224 5.17-12.844 7.742-19.228.342-.853.686-1.703 1.024-2.542.786-1.955 1.559-3.877 2.314-5.749l10.409-25.859s23.16-8.77 25.565-3.088c1.984 4.686.369 9.276-5.852 19.819h.004Z" fill="#163560"/><path d="M466.355 338.961s-.541 8.724-2.23 8.85c-.226.017-8.565.017-8.565.017l-10.647-.061s.071-2.565 3.181-3.107c3.112-.542 8.321-2.728 10.207-6.841 1.984-4.325 8.054 1.142 8.054 1.142ZM490.847 314.033s7.356 4.726 6.642 6.261c-.095.204-4.16 7.484-4.16 7.484l-5.245 9.262s-2.205-1.311-1.163-4.292c1.045-2.981 1.673-8.593-.998-12.242-2.811-3.841 4.922-6.473 4.922-6.473h.002Z" fill="#163560"/><path d="M480.894 253.954s-29.071 18.102-32.317 30.268c-3.245 12.166 38.671 38.118 38.671 38.118s4.598-4.056 5.409-7.03c0 0-18.948-22.692-23.057-27.778-2.524-3.125 37.321-10.815 42.19-18.385 4.869-7.569 3.125-13.939 3.125-13.939l-34.021-1.256v.002Z" fill="#00245E"/><path d="M476.26 277.2h59.497c1.193 0 2.163.97 2.163 2.163v11.894c0 1.193-.97 2.163-2.163 2.163H476.26a2.165 2.165 0 0 1-2.163-2.163v-11.894c0-1.193.97-2.163 2.163-2.163Z" fill="#FF9A3D"/><path d="M494.337 190.512c-2.856 1.768-4.429 4.012-4.429 4.012 6.965 1.802 18.51-4.651 18.51-4.651s-4.483-3.012-6.144-9.627c-.084-.334-.16-.676-.229-1.027a20.753 20.753 0 0 1-.376-3.623l-3.2 2.865-5.319 4.764s.12 1.977.786 5.377c.117.593.248 1.231.401 1.908v.002Z" fill="#E49963"/><path d="M515.759 223.357c-.996 13.412.68 33.804-.45 37.337-.978 3.048-12.472 1.244-16.913.225a81.068 81.068 0 0 1-5.691-1.55c-5.738-1.775-11.989-4.311-12.659-6.193a1.73 1.73 0 0 1-.049-1.004c.223-.96 1.084-1.999 1.185-4.373.113-2.653.096-5.776.197-9.135.006-.378.009-.79.051-1.168v-.137a7.94 7.94 0 0 0 .008-.216c.095-3.747.292-7.684.519-11.591.145-2.453.312-4.883.504-7.211.501-6.009 1.175-11.351 2.068-14.73 1.459-5.506 4.674-9.098 7.601-11.73l2.117-1.815c2.364.515 5.155.173 7.681-1.023 2.735-1.298 3.68-2.228 4.155-1.879 6.314 4.871 10.856 19.795 9.678 36.193h-.002Z" fill="#fff"/><path d="M492.737 259.398c-5.737-1.775-11.988-4.312-12.658-6.194a1.542 1.542 0 0 1-.062-.215l.012-.789c.223-.96 1.084-1.998 1.186-4.372.112-2.653.095-5.776.196-9.135.006-.378.01-.79.052-1.168v-.138c.004-.072.006-.143.007-.215l21.671-9.826s1.249 17.46-10.402 32.054l-.002-.002Z" fill="#1652CA"/><path d="M493.15 183.227s.12 1.977.786 5.377c5.195-1.678 7.551-6.37 8.338-8.358.223-.562.321-.911.321-.911s-.203-.044-.55-.116l-3.576-.758-5.319 4.764v.002Z" fill="#D68D5D"/><path d="M491.047 183.173s11.414 1.287 12.105-5.831c.691-7.117 2.631-11.744-4.626-12.868-7.257-1.122-8.939 1.457-9.749 3.776-.809 2.319-.681 14.404 2.27 14.922v.001Z" fill="#E49963"/><path d="M503.103 177.835s-.724-9.448-11.112-10.427c-7.116-.67-3.149-6.793-2.391-7.77 0 0 5.451.748 11.04 1.67 11.728 1.937 3.614 15.053 2.463 16.525v.002Z" fill="#2B478B"/><path d="m439.358 220.269-.999.324 8.5 26.151.999-.325-8.5-26.15Z" fill="#1652CA"/><path d="m475.666 244.423-28.856.615.036 1.725 28.857-.615-.037-1.725Z" fill="#1652CA"/><path d="M472.579 242.827s-4.479 1.695-7.507 1.137c-3.028-.557-7.91 1.451-8.605 2.61-.694 1.158-.35 1.549 1.141 1.757 1.491.208 6.868 1.829 10.102.187 3.235-1.641 7.63-2.175 7.63-2.175l-2.763-3.516h.002Z" fill="#E49963"/><path d="M507.979 198.376s-1.096 37.368-9.306 41.615c-4.049 2.095-22.34 7.854-27.831 8.839 0 0-1.478-.949-1.644-5.459 0 0 18.793-9.362 21.143-13.582 3.496-6.28-5.21-23.49-.619-29.531 4.592-6.043 13.085-9.362 18.255-1.882h.002Z" fill="#fff"/></svg>