<svg width="80" height="80" viewBox="0 0 80 80" fill="none" xmlns="http://www.w3.org/2000/svg">
<circle cx="40" cy="40" r="40" fill="black"></circle>
<path d="M33.7979 50.0856C33.7979 50.0856 32.0607 51.0957 35.0342 51.4376C38.6366 51.8485 40.4776 51.7897 44.4474 51.0382C44.4474 51.0382 45.4912 51.6926 46.9487 52.2595C38.0496 56.0735 26.808 52.0385 33.7979 50.0856V50.0856ZM32.7104 45.1084C32.7104 45.1084 30.762 46.5507 33.7377 46.8585C37.5859 47.2554 40.6247 47.2879 45.8833 46.2754C45.8833 46.2754 46.6107 47.0127 47.7543 47.416C36.9946 50.5623 25.0103 47.6641 32.7104 45.1084" fill="#14B8A6"></path>
<path d="M41.8779 36.6656C44.0707 39.1901 41.3018 41.4619 41.3018 41.4619C41.3018 41.4619 46.8695 38.5877 44.3125 34.9884C41.9244 31.632 40.0929 29.9641 50.0075 24.2141C50.0075 24.2141 34.4449 28.1009 41.8779 36.6655" fill="#EA580C"></path>
<path d="M53.6478 53.767C53.6478 53.767 54.9334 54.8261 52.2319 55.6456C47.0953 57.2018 30.8523 57.6717 26.3401 55.7076C24.7181 55.0021 27.7599 54.0228 28.7166 53.8172C29.7145 53.6009 30.2848 53.6413 30.2848 53.6413C28.4809 52.3704 18.6253 56.1364 25.2787 57.2148C43.4231 60.1574 58.3542 55.8899 53.6478 53.767ZM34.6332 39.9516C34.6332 39.9516 26.3711 41.9141 31.7075 42.6266C33.9606 42.9282 38.4522 42.8601 42.636 42.5094C46.0553 42.2212 49.4887 41.6078 49.4887 41.6078C49.4887 41.6078 48.283 42.1242 47.4108 42.7198C39.0207 44.9264 22.8125 43.8999 27.4786 41.6427C31.4248 39.7352 34.6333 39.9516 34.6333 39.9516H34.6332ZM49.4546 48.2362C57.9837 43.8042 54.0402 39.5452 51.2877 40.119C50.613 40.2593 50.3122 40.381 50.3122 40.381C50.3122 40.381 50.5627 39.9887 51.041 39.8189C56.4862 37.9045 60.674 45.4651 49.2832 48.4595C49.2832 48.4597 49.4152 48.3417 49.4546 48.2362" fill="#14B8A6"></path>
<path d="M44.3125 14.9291C44.3125 14.9291 49.036 19.6543 39.8325 26.9199C32.4523 32.7484 38.1496 36.0716 39.8295 39.8685C35.5215 35.9817 32.3599 32.5601 34.481 29.3756C37.594 24.7008 46.2183 22.4344 44.3125 14.9289" fill="#EA580C"></path>
<path d="M35.4713 60.2457C43.6581 60.7698 56.2297 59.955 56.5275 56.0812C56.5275 56.0812 55.9552 57.5499 49.7616 58.716C42.774 60.0309 34.1559 59.8774 29.0444 59.0347C29.0445 59.0347 30.0908 59.9007 35.4715 60.2457" fill="#14B8A6"></path>
</svg>
