<svg width="80" height="80" fill="none" xmlns="http://www.w3.org/2000/svg"><circle cx="40" cy="40" r="40" fill="#000"/><path d="M33.798 50.086s-1.737 1.01 1.236 1.352c3.603.41 5.444.352 9.413-.4 0 0 1.044.655 2.502 1.222-8.9 3.814-20.141-.221-13.151-2.174Zm-1.088-4.978s-1.948 1.443 1.028 1.75c3.848.397 6.887.43 12.145-.583 0 0 .728.738 1.871 1.141-10.76 3.146-22.744.248-15.044-2.308" fill="#14B8A6"/><path d="M41.878 36.666c2.193 2.524-.576 4.796-.576 4.796s5.568-2.874 3.01-6.474c-2.388-3.356-4.22-5.024 5.696-10.774 0 0-15.563 3.887-8.13 12.452" fill="#EA580C"/><path d="M53.648 53.767s1.285 1.06-1.416 1.879c-5.137 1.556-21.38 2.026-25.892.062-1.622-.706 1.42-1.685 2.377-1.89.998-.217 1.568-.177 1.568-.177-1.804-1.27-11.66 2.495-5.006 3.574 18.144 2.942 33.075-1.325 28.369-3.448ZM34.633 39.952s-8.262 1.962-2.926 2.675c2.254.301 6.745.233 10.929-.118 3.42-.288 6.853-.901 6.853-.901s-1.206.516-2.078 1.112c-8.39 2.206-24.599 1.18-19.932-1.077 3.946-1.908 7.154-1.691 7.154-1.691Zm14.822 8.284c8.529-4.432 4.585-8.69 1.833-8.117-.675.14-.976.262-.976.262s.25-.392.729-.562c5.445-1.915 9.633 5.646-1.758 8.64 0 0 .132-.117.172-.223" fill="#14B8A6"/><path d="M44.313 14.93s4.723 4.724-4.48 11.99c-7.38 5.828-1.683 9.152-.003 12.948-4.308-3.886-7.47-7.308-5.349-10.492 3.113-4.675 11.737-6.942 9.831-14.447" fill="#EA580C"/><path d="M35.471 60.246c8.187.524 20.759-.291 21.057-4.165 0 0-.573 1.469-6.766 2.635-6.988 1.315-15.606 1.161-20.718.319 0 0 1.047.866 6.427 1.21" fill="#14B8A6"/></svg>