<svg width="80" height="80" fill="none" xmlns="http://www.w3.org/2000/svg"><circle cx="40" cy="40" r="40" fill="#000"/><path d="M19 19h41.48v41.48H19V19Z" fill="#F7DF1E"/><path d="m29.906 53.664 3.175-1.921c.612 1.085 1.17 2.004 2.505 2.004 1.281 0 2.089-.5 2.089-2.45V38.043h3.898v13.31c0 4.037-2.367 5.874-5.82 5.874-3.118 0-4.928-1.615-5.847-3.564M43.69 53.246l3.174-1.838c.836 1.365 1.922 2.367 3.843 2.367 1.615 0 2.645-.807 2.645-1.921 0-1.337-1.058-1.81-2.84-2.59l-.974-.417c-2.813-1.197-4.678-2.7-4.678-5.875 0-2.924 2.227-5.151 5.708-5.151 2.478 0 4.26.863 5.54 3.118l-3.034 1.95c-.669-1.198-1.392-1.671-2.506-1.671-1.142 0-1.866.724-1.866 1.67 0 1.17.724 1.643 2.395 2.367l.974.418c3.314 1.42 5.18 2.868 5.18 6.125 0 3.509-2.757 5.43-6.46 5.43-3.62 0-5.96-1.726-7.1-3.982" fill="#000"/></svg>