<svg width="35" height="35" viewBox="0 0 60 60" fill="none" xmlns="http://www.w3.org/2000/svg"><rect width="60" height="60" rx="15" fill="#2F2F2F"/><path d="M11 39.031c.114 2.98 1.545 5.546 4.495 7.025 2.957 1.483 5.915 1.227 8.535-.827 1.43-1.12 2.66-2.518 3.91-3.859.77-.827.312-2.187-.758-2.466-.634-.166-1.155.065-1.604.528-.966.994-1.924 1.997-2.921 2.96-1.326 1.279-2.925 1.71-4.688 1.298-3.798-.89-5.258-5.617-2.58-8.504 2.425-2.611 5.013-5.064 7.456-7.658 2.974-3.16 7.967-1.697 8.815 2.344.198.942 1.019 1.427 1.86 1.22.848-.207 1.309-1.056 1.066-2.024-.766-3.064-2.628-5.14-5.602-6.019-2.989-.882-5.719-.209-7.969 2.004-2.614 2.572-5.164 5.212-7.718 7.848-1.543 1.593-2.267 3.545-2.297 6.13ZM41.31 14c-2.53.01-4.341.656-5.84 2.042a56.7 56.7 0 0 0-3.32 3.376c-.27.295-.414.799-.432 1.216-.028.605.349 1.05.902 1.285.637.272 1.21.11 1.688-.366 1.03-1.024 2.02-2.087 3.07-3.086 1.3-1.24 2.873-1.628 4.587-1.222 3.86.913 5.272 5.68 2.52 8.598-2.445 2.595-4.961 5.12-7.483 7.636-2.91 2.903-7.478 1.607-8.574-2.406-.281-1.03-1.048-1.564-1.905-1.327-.894.247-1.298 1.054-1.05 2.093 1.467 6.117 8.96 8.407 13.437 4.06 2.662-2.586 5.278-5.225 7.8-7.952 2.404-2.599 2.912-5.707 1.535-8.975-1.373-3.26-3.98-4.829-6.934-4.972Z" fill="#fff"/></svg>