<svg width="28" height="28" viewBox="0 0 48 48" fill="none" xmlns="http://www.w3.org/2000/svg"><path d="M0 8c0-4.418 3.576-8 7.987-8h31.026C43.424 0 47 3.582 47 8v32c0 4.418-3.576 8-7.987 8H7.987C3.576 48 0 44.418 0 40V8Z" fill="#0077B5"/><path d="M33.084 41.253h7.077V26.955c0-7.06-4.267-9.47-8.216-9.47-3.652 0-6.133 2.43-6.818 3.854v-3.203h-6.806v23.117h7.077V28.719c0-3.341 2.059-4.967 4.159-4.967 1.986 0 3.527 1.15 3.527 4.875v12.626ZM6.45 10.738c0 2.413 1.827 4.177 4.08 4.177 2.254 0 4.081-1.764 4.081-4.177 0-2.413-1.827-4.18-4.08-4.18-2.254 0-4.08 1.767-4.08 4.18ZM6.992 41.235h7.077V18.118H6.992v23.117Z" fill="#fff"/></svg>