<svg width="25" height="20" viewBox="0 0 55 47" fill="none" xmlns="http://www.w3.org/2000/svg"><g clip-path="url('#clip0_1316_2246')" fill="#A0A0A0"><path d="M27.569 0h23.36c1.814 0 3.248 1.004 3.827 2.6a3.912 3.912 0 0 1-1.19 4.318c-.869.73-1.89.928-3.003.928H17.627c-4.514 0-9.012.015-13.525 0C1.144 7.831-.762 5.124.259 2.494.884.943 2.318 0 4.117 0h23.452ZM27.431 47H4.071C2.104 47 .503 45.753.107 43.959c-.397-1.78.457-3.543 2.104-4.38.61-.303 1.28-.425 1.952-.425h46.644c2.455 0 4.162 1.642 4.178 3.923 0 2.28-1.723 3.908-4.178 3.923H27.43ZM35.33 27.4c-5.215 0-10.43.03-15.645 0-2.76-.015-4.59-2.554-3.766-5.109.518-1.612 1.967-2.66 3.782-2.676 3.278-.015 6.572 0 9.85 0h21.347c2.928 0 4.819 2.615 3.858 5.246-.58 1.596-1.998 2.54-3.873 2.54H35.33Z"/></g><defs><clipPath id="clip0_1316_2246"><path fill="#fff" d="M0 0h55v47H0z"/></clipPath></defs></svg>