<svg width="80" height="80" fill="none" xmlns="http://www.w3.org/2000/svg"><circle cx="40" cy="40" r="40" fill="#000"/><path d="M56.625 27.949a20.445 20.445 0 1 0-3.68 28.673c8.931-6.903 10.58-19.739 3.68-28.673Z" fill="#FF6C37"/><path d="m47.34 33.026-8.62 8.69-2.437-2.505c8.485-8.484 9.336-7.718 11.057-6.184Z" fill="#000"/><path d="M38.72 41.953a.307.307 0 0 1-.205-.085l-2.453-2.453a.306.306 0 0 1 0-.426c8.364-8.365 9.506-7.974 11.482-6.185a.272.272 0 0 1 .102.222.24.24 0 0 1-.084.221l-8.621 8.621a.323.323 0 0 1-.222.085Zm-2.011-2.743 2.01 2.01 8.178-8.177a1.84 1.84 0 0 0-2.42-.409c-1.482.665-3.867 2.692-7.768 6.576Z" fill="#FF6C37"/><path d="m41.19 44.117-2.351-2.402 8.62-8.519c2.317 2.267-1.124 6.049-6.27 10.92v.001Z" fill="#000"/><path d="M41.19 44.424a.358.358 0 0 1-.205-.085l-2.402-2.351a.358.358 0 0 1 0-.273.33.33 0 0 1 0-.222l8.62-8.62a.323.323 0 0 1 .443 0 2.64 2.64 0 0 1 .852 2.027c0 2.3-2.624 5.196-7.087 9.422a.358.358 0 0 1-.222.102Zm-1.908-2.709 1.925 1.924c3.407-3.22 6.661-6.542 6.678-8.79a1.942 1.942 0 0 0-.443-1.312l-8.16 8.178Z" fill="#FF6C37"/><path d="m36.351 39.262 1.704 1.704a.102.102 0 0 1 0 .153l-3.595.767a.34.34 0 0 1-.307-.58l2.096-2.078s.068 0 .102.034Z" fill="#000"/><path d="M34.375 42.226a.665.665 0 0 1-.562-.324.647.647 0 0 1 .12-.766l2.078-2.096a.41.41 0 0 1 .544 0l1.704 1.704c.101.096.14.241.102.375a.395.395 0 0 1-.289.273l-3.595.767-.102.067Zm1.908-2.589-1.925 1.925 3.186-.682-1.26-1.243Z" fill="#FF6C37"/><path d="M51.923 28.239a3.304 3.304 0 1 0-.596 5.213l-2.317-2.317 2.913-2.896Z" fill="#000"/><path d="M49.623 34.235a3.61 3.61 0 0 1-3.496-4.31 3.62 3.62 0 0 1 .969-1.84 3.648 3.648 0 0 1 5.11 0 .29.29 0 0 1 0 .444l-2.76 2.606 2.096 2.062a.289.289 0 0 1 .085.256.308.308 0 0 1-.136.221 3.706 3.706 0 0 1-1.874.563l.006-.002Zm0-6.61a2.987 2.987 0 0 0-2.755 1.852 3.01 3.01 0 0 0 .643 3.259 2.98 2.98 0 0 0 3.305.63l-2.01-2.01a.272.272 0 0 1 0-.426l2.657-2.675a3.058 3.058 0 0 0-1.84-.631Z" fill="#FF6C37"/><path d="m51.974 28.29-2.913 2.896 2.317 2.317c.233-.134.45-.294.647-.477a3.407 3.407 0 0 0-.05-4.736Z" fill="#000"/><path d="M51.326 33.759a.255.255 0 0 1-.204-.085l-2.317-2.318a.272.272 0 0 1 0-.426l2.896-2.845a.305.305 0 0 1 .51 0 3.578 3.578 0 0 1 0 5.111c-.2.213-.43.397-.68.545a.274.274 0 0 1-.205.018Zm-1.873-2.624 1.924 1.925c.133-.093.258-.195.375-.306.566-.565.885-1.33.887-2.13a2.926 2.926 0 0 0-.733-1.942l-2.453 2.453Z" fill="#FF6C37"/><path d="M47.697 33.384a1.244 1.244 0 0 0-1.703 0l-7.717 7.7 1.277 1.295 8.16-7.155a1.263 1.263 0 0 0-.017-1.84Z" fill="#000"/><path d="M39.486 42.686a.307.307 0 0 1-.204-.085l-1.295-1.295a.307.307 0 0 1 0-.426l7.717-7.684a1.568 1.568 0 0 1 2.675 1.159 1.604 1.604 0 0 1-.528 1.124l-8.16 7.156a.29.29 0 0 1-.205.05v.001Zm-.903-1.602.852.869 8.007-6.968a.941.941 0 0 0 .324-.682.915.915 0 0 0-.29-.698.954.954 0 0 0-1.346 0l-7.547 7.479Z" fill="#FF6C37"/><path d="M32.297 49.858a.172.172 0 0 0 0 .205l.34 1.482a.439.439 0 0 1-.212.447.415.415 0 0 1-.487-.049l-2.334-2.249 7.275-7.332h2.522l1.704 1.704a38.681 38.681 0 0 1-8.808 5.792Z" fill="#000"/><path d="M32.143 52.363a.72.72 0 0 1-.51-.222L29.4 49.91a.272.272 0 0 1 0-.427l7.325-7.342a.288.288 0 0 1 .153-.085h2.539a.307.307 0 0 1 .204 0l1.704 1.704a.273.273 0 0 1 .085.238.274.274 0 0 1-.102.222l-.136.12a41.74 41.74 0 0 1-8.74 5.604l.324 1.38a.735.735 0 0 1-.699.903l.085.136Zm-2.078-2.675 2.01 2.027a.102.102 0 0 0 .136 0 .102.102 0 0 0 0-.12l-.34-1.482a.476.476 0 0 1 .255-.545 41.887 41.887 0 0 0 8.518-5.486l-1.397-1.397h-2.283l-6.899 7.003Z" fill="#FF6C37"/><path d="m27.85 51.443 1.704-1.704 2.624 2.624-4.174-.29a.34.34 0 0 1-.153-.63h-.001Z" fill="#000"/><path d="m32.228 52.618-4.157-.289a.658.658 0 0 1-.546-.417.651.651 0 0 1 .137-.674l1.704-1.703a.307.307 0 0 1 .426 0L32.4 52.14a.29.29 0 0 1 0 .34.324.324 0 0 1-.17.137Zm-4.157-.953 3.407.221-1.874-1.755-1.533 1.534Z" fill="#FF6C37"/><path d="m39.64 42.568-3.442.528 1.993-1.976 1.448 1.448Z" fill="#1E2235"/><path d="M36.198 43.419a.292.292 0 0 1-.273-.171.287.287 0 0 1 0-.34l1.976-1.994a.323.323 0 0 1 .443 0l1.449 1.448a.287.287 0 0 1 0 .306.3.3 0 0 1-.239.222l-3.407.529h.05Zm1.993-1.858-1.107 1.108 1.908-.29-.801-.818Z" fill="#FF6C37"/><path d="m39.64 42.566-2.403.307a.307.307 0 0 1-.29-.511l1.245-1.244 1.447 1.448Z" fill="#000"/><path d="M37.169 43.197a.63.63 0 0 1-.545-.323.614.614 0 0 1 .102-.733l1.244-1.244a.323.323 0 0 1 .443 0l1.448 1.448a.306.306 0 0 1-.024.466.307.307 0 0 1-.163.063l-2.385.306-.12.017Zm0-.63 1.806-.222-.8-.8-1.023 1.022h.017ZM51.99 30.249a.255.255 0 0 0-.324-.102.237.237 0 0 0-.102.324.733.733 0 0 1-.085.767.217.217 0 0 0-.064.161c0 .06.023.118.064.162a.185.185 0 0 0 .136 0 .223.223 0 0 0 .221-.069 1.176 1.176 0 0 0 .154-1.243Z" fill="#FF6C37"/></svg>