<svg width="80" height="80" fill="none" xmlns="http://www.w3.org/2000/svg"><circle cx="40" cy="40" r="40" fill="#000"/><path d="M75.52 33c-20.484-.166-20.986-.324-21.502-.472.085-.347.163-.688.232-1.024 1.136-5.515.394-9.958-2.143-11.42-2.432-1.403-6.41.06-10.427 3.555a31.13 31.13 0 0 0-1.161 1.066 28.39 28.39 0 0 0-.773-.714c-4.21-3.738-8.43-5.314-10.964-3.847-2.43 1.407-3.15 5.584-2.127 10.81.099.505.214 1.02.345 1.545-.598.17-1.174.35-1.726.542-4.936 1.721-8.088 4.418-8.088 7.216 0 2.89 3.384 5.788 8.525 7.545.406.139.827.27 1.26.394-.14.567-.263 1.123-.366 1.664-.975 5.136-.213 9.214 2.21 10.612 2.503 1.443 6.704-.04 10.795-3.616.324-.283.648-.583.973-.897.422.406.842.79 1.26 1.15 3.963 3.41 7.876 4.787 10.298 3.385 2.5-1.448 3.313-5.828 2.258-11.158-.08-.407-.174-.823-.28-1.246.295-.088.585-.178.867-.271 5.345-1.771 8.823-4.634 8.823-7.562 0-2.808-3.254-5.523-8.29-7.256ZM54.36 45.928c-.255.085-.517.166-.783.245-.59-1.868-1.386-3.854-2.361-5.906.93-2.004 1.695-3.965 2.269-5.82.477.138.94.283 1.386.437 4.314 1.485 6.946 3.68 6.946 5.373 0 1.802-2.842 4.142-7.457 5.671Zm-1.915 3.795c.467 2.356.533 4.487.224 6.153-.277 1.497-.836 2.495-1.526 2.894-1.47.85-4.612-.255-8-3.17-.389-.335-.78-.692-1.173-1.07 1.314-1.436 2.627-3.107 3.908-4.962 2.254-.2 4.384-.527 6.315-.973.095.383.18.76.252 1.128Zm-19.364 8.9c-1.436.507-2.58.522-3.27.123-1.471-.848-2.083-4.122-1.249-8.514.096-.503.21-1.02.34-1.548 1.91.422 4.024.726 6.284.91a48.48 48.48 0 0 0 4.002 4.944c-.297.287-.594.56-.888.818-1.81 1.581-3.622 2.703-5.22 3.267Zm-6.726-12.706c-2.273-.777-4.15-1.787-5.438-2.889-1.156-.99-1.74-1.973-1.74-2.771 0-1.698 2.531-3.863 6.753-5.335a28.744 28.744 0 0 1 1.605-.505 47.734 47.734 0 0 0 2.272 5.889 48.523 48.523 0 0 0-2.301 5.972 24.515 24.515 0 0 1-1.15-.36Zm2.255-15.345c-.877-4.478-.295-7.856 1.17-8.704 1.56-.903 5.008.385 8.644 3.613.232.206.465.422.7.645a47.724 47.724 0 0 0-3.973 4.915c-2.192.203-4.291.53-6.221.967a29.246 29.246 0 0 1-.32-1.436Zm20.11 4.966a63.185 63.185 0 0 0-1.417-2.332c1.488.188 2.913.438 4.251.743a42.556 42.556 0 0 1-1.492 4.015 69.23 69.23 0 0 0-1.341-2.426Zm-8.2-7.988a42.567 42.567 0 0 1 2.743 3.312 58.607 58.607 0 0 0-5.51-.002 43.945 43.945 0 0 1 2.766-3.31Zm-8.254 8.001c-.461.8-.9 1.605-1.316 2.411a43.972 43.972 0 0 1-1.482-4.034 44.888 44.888 0 0 1 4.227-.725c-.49.763-.967 1.547-1.43 2.348Zm1.471 11.902a42.365 42.365 0 0 1-4.297-.69c.412-1.33.92-2.711 1.512-4.116a58.59 58.59 0 0 0 2.785 4.806Zm6.837 5.652a44.698 44.698 0 0 1-2.805-3.357 69.67 69.67 0 0 0 2.728.053c.95 0 1.89-.022 2.815-.063a42.329 42.329 0 0 1-2.737 3.367Zm9.507-10.53a42.253 42.253 0 0 1 1.566 4.101 42.325 42.325 0 0 1-4.35.742c.485-.767.962-1.559 1.432-2.373.475-.823.926-1.648 1.352-2.47Zm-3.078 1.475a65.288 65.288 0 0 1-2.236 3.61c-1.384.098-2.813.149-4.27.149-1.45 0-2.862-.045-4.221-.133a56.466 56.466 0 0 1-4.268-7.371 56.534 56.534 0 0 1 4.244-7.358 56.446 56.446 0 0 1 8.498.002 60.087 60.087 0 0 1 2.247 3.587 65.322 65.322 0 0 1 2.01 3.74 60.016 60.016 0 0 1-2.004 3.774Zm4.11-22.241c1.56.9 2.168 4.531 1.187 9.293-.063.304-.133.613-.21.927a47.696 47.696 0 0 0-6.234-.985c-1.28-1.824-2.608-3.483-3.941-4.919.358-.344.716-.673 1.072-.983 3.442-2.996 6.66-4.178 8.125-3.333ZM40.496 36.094a4.163 4.163 0 1 1 0 8.326 4.163 4.163 0 0 1 0-8.326Z" fill="#00D8FF"/></svg>