<svg width="80" height="80" fill="none" xmlns="http://www.w3.org/2000/svg"><circle cx="40" cy="40" r="40" fill="#000"/><path d="M48.654 48.332a3.153 3.153 0 0 0 2.815-3.265c-.056-1.689-1.464-3.04-3.153-3.04h-.112a3.15 3.15 0 0 0-3.04 3.265c.056.845.394 1.577.9 2.083-1.914 3.773-4.841 6.531-9.233 8.84-2.983 1.576-6.08 2.139-9.176 1.745-2.534-.338-4.504-1.464-5.742-3.322-1.802-2.759-1.97-5.743-.45-8.727 1.069-2.139 2.758-3.715 3.827-4.504-.225-.731-.563-1.97-.732-2.87-8.163 5.91-7.318 13.905-4.841 17.678 1.858 2.814 5.63 4.56 9.796 4.56a13.84 13.84 0 0 0 3.378-.394c7.206-1.408 12.667-5.687 15.763-12.049Zm9.909-6.98c-4.279-5.011-10.584-7.77-17.79-7.77h-.901a3.093 3.093 0 0 0-2.759-1.69H37a3.15 3.15 0 0 0-3.04 3.266c.057 1.69 1.464 3.04 3.153 3.04h.113a3.171 3.171 0 0 0 2.758-1.914h1.014c4.278 0 8.332 1.239 11.991 3.66 2.815 1.858 4.842 4.278 5.968 7.206.957 2.365.9 4.673-.113 6.644-1.576 2.984-4.222 4.616-7.713 4.616-2.252 0-4.391-.675-5.517-1.182a33.245 33.245 0 0 1-2.533 2.027C45.5 60.38 47.979 61 50.343 61c5.405 0 9.402-2.984 10.922-5.968 1.633-3.265 1.52-8.895-2.702-13.68Zm-28.6 7.938c.056 1.689 1.464 3.04 3.153 3.04h.112a3.15 3.15 0 0 0 3.04-3.266c-.056-1.689-1.463-3.04-3.152-3.04h-.113c-.112 0-.281 0-.394.056-2.308-3.828-3.265-7.994-2.927-12.498.225-3.378 1.35-6.306 3.321-8.727 1.633-2.083 4.786-3.096 6.925-3.153 5.968-.112 8.501 7.32 8.67 10.303.732.17 1.97.563 2.815.845C50.737 23.73 45.107 19 39.703 19c-5.067 0-9.74 3.66-11.598 9.064-2.59 7.207-.9 14.132 2.252 19.593-.281.394-.45 1.013-.394 1.633Z" fill="#764ABC"/></svg>