<svg width="80" height="80" fill="none" xmlns="http://www.w3.org/2000/svg"><circle cx="40" cy="40" r="40" fill="#000"/><path d="M62.224 42.144c-1.954.01-3.652.48-5.074 1.177-.521-1.034-1.043-1.954-1.135-2.63-.102-.787-.225-1.268-.102-2.209.122-.941.675-2.281.665-2.383-.01-.103-.123-.583-1.248-.594-1.126-.01-2.097.215-2.21.512a12.35 12.35 0 0 0-.47 1.667c-.195 1.023-2.251 4.675-3.427 6.588-.379-.747-.706-1.402-.778-1.923-.102-.788-.225-1.269-.102-2.21.123-.94.675-2.281.665-2.383-.01-.103-.123-.583-1.248-.594-1.125-.01-2.097.215-2.21.512-.112.297-.235.992-.47 1.667-.236.675-2.967 6.772-3.683 8.347a47.282 47.282 0 0 1-.91 1.893s-.01.03-.041.082c-.195.378-.307.583-.307.583v.01c-.154.276-.317.532-.4.532-.06 0-.173-.736.021-1.739.41-2.117 1.381-5.411 1.371-5.524 0-.061.184-.634-.634-.93-.798-.297-1.084.194-1.156.194-.072 0-.123.173-.123.173s.89-3.703-1.698-3.703c-1.616 0-3.846 1.77-4.95 3.366-.697.378-2.18 1.187-3.765 2.056-.604.338-1.228.675-1.81.992-.042-.04-.083-.092-.124-.133-3.13-3.345-8.92-5.708-8.674-10.198.092-1.637.654-5.933 11.12-11.15 8.612-4.246 15.466-3.07 16.653-.46 1.698 3.723-3.673 10.638-12.572 11.64-3.397.379-5.176-.93-5.627-1.422-.47-.511-.542-.542-.716-.44-.286.154-.102.614 0 .88.266.696 1.361 1.923 3.212 2.527 1.637.532 5.616.828 10.435-1.033 5.39-2.087 9.605-7.887 8.367-12.746-1.238-4.93-9.421-6.557-17.165-3.806-4.603 1.637-9.595 4.215-13.186 7.57-4.265 3.99-4.94 7.458-4.664 8.91.992 5.156 8.101 8.511 10.945 10.997-.143.082-.276.153-.388.215-1.422.705-6.844 3.539-8.194 6.536-1.535 3.396.245 5.831 1.422 6.158 3.652 1.013 7.406-.808 9.421-3.815 2.015-3.008 1.77-6.915.839-8.706a.213.213 0 0 0-.041-.06l1.115-.656a54.58 54.58 0 0 1 2.056-1.156c-.348.952-.604 2.087-.726 3.724-.154 1.923.634 4.42 1.667 5.401.46.43 1.003.44 1.35.44 1.207 0 1.75-1.002 2.353-2.19.737-1.452 1.402-3.14 1.402-3.14s-.829 4.563 1.422 4.563c.818 0 1.646-1.064 2.015-1.606v.01s.02-.03.061-.102l.133-.215v-.02a88.497 88.497 0 0 0 2.159-4.03c1.411-2.783 2.772-6.261 2.772-6.261s.122.849.542 2.26c.245.829.757 1.74 1.166 2.62-.327.46-.532.715-.532.715l.01.01c-.266.348-.552.727-.87 1.095-1.114 1.33-2.444 2.854-2.628 3.294-.215.521-.164.9.245 1.207.297.225.829.256 1.371.225 1.003-.072 1.708-.317 2.056-.47a6.902 6.902 0 0 0 1.77-.931c1.094-.809 1.76-1.965 1.698-3.489-.03-.839-.307-1.677-.645-2.465.103-.143.195-.286.297-.43 1.729-2.526 3.069-5.298 3.069-5.298s.123.849.542 2.26c.205.716.624 1.494.992 2.25-1.626 1.32-2.629 2.855-2.987 3.857-.644 1.862-.143 2.7.809 2.895.43.092 1.043-.112 1.493-.307a6.801 6.801 0 0 0 1.892-.972c1.095-.808 2.149-1.933 2.087-3.457-.03-.696-.215-1.381-.47-2.046 1.38-.573 3.16-.89 5.432-.624 4.869.573 5.83 3.611 5.646 4.89-.184 1.278-1.207 1.974-1.544 2.189-.338.215-.45.286-.42.44.041.225.205.214.491.174.4-.072 2.557-1.034 2.65-3.386.153-3.008-2.711-6.291-7.775-6.26ZM24.662 54.808c-1.616 1.76-3.867 2.425-4.839 1.862-1.043-.604-.634-3.202 1.35-5.064 1.208-1.135 2.763-2.189 3.796-2.833.235-.143.583-.348 1.002-.604l.113-.061.245-.153c.726 2.66.03 5.002-1.667 6.853Zm11.764-8c-.563 1.371-1.74 4.88-2.456 4.686-.613-.164-.992-2.824-.122-5.452.44-1.32 1.37-2.895 1.913-3.51.88-.981 1.851-1.308 2.086-.91.297.522-1.074 4.328-1.421 5.187Zm9.707 4.645c-.235.123-.46.204-.562.143-.072-.04.102-.204.102-.204s1.217-1.31 1.698-1.903c.276-.348.604-.757.951-1.217v.133c0 1.565-1.514 2.618-2.189 3.048Zm7.488-1.708c-.174-.123-.143-.532.44-1.811.225-.501.757-1.34 1.667-2.148.103.327.174.644.164.94-.01 1.975-1.422 2.712-2.27 3.019Z" fill="#CD6799"/></svg>