<svg width="80" height="80" fill="none" xmlns="http://www.w3.org/2000/svg"><circle cx="40" cy="40" r="40" fill="#000"/><g clip-path="url('#clip0_449_5128')"><path d="M31.297 60a.28.28 0 0 0-.02-.19h18.434a.28.28 0 0 0-.02.19H31.297Z" fill="#9AC97B"/><path d="M49.71 59.81H31.278c-1.635-.392-2.793-1.362-3.622-2.868a871.127 871.127 0 0 0-7.723-13.772c-1.255-2.184-1.233-4.23.014-6.406 2.652-4.624 5.231-9.292 7.834-13.943 1.047-1.872 2.65-2.796 4.728-2.805 5.32-.022 10.642-.02 15.962 0 2.08.009 3.685.93 4.732 2.8 2.637 4.714 5.259 9.435 7.927 14.13 1.18 2.076 1.154 4.055-.03 6.129-2.628 4.6-5.21 9.226-7.768 13.867-.829 1.502-1.983 2.48-3.622 2.87l.002-.002ZM28.6 39.17c.018.83.075 1.647.236 2.462 1.021 5.157 5.292 9.2 10.258 9.685 5.357.524 10.242-2.47 12.251-7.51 1.967-4.93.497-10.817-3.517-14.077-1.019-.828-1.843-.85-2.484-.068-.619.755-.43 1.66.517 2.476.13.111.261.219.385.334 2.949 2.706 3.761 7.225 1.954 10.848-1.817 3.645-5.724 5.597-9.64 4.69-3.411-.788-5.687-2.983-6.572-6.419-.956-3.712.06-6.92 2.953-9.447.913-.798 1.093-1.758.469-2.486-.631-.735-1.468-.735-2.406.066-2.876 2.46-4.321 5.625-4.406 9.444l.002.002Zm13.548-5.377c0-1.616.005-3.23 0-4.845-.004-1.422-.594-2.21-1.671-2.25-1.116-.04-1.797.743-1.81 2.22a685.606 685.606 0 0 0-.003 9.999c.008 1.258.764 2.08 1.785 2.067.994-.012 1.69-.875 1.697-2.142.01-1.684.002-3.367.002-5.051v.002Z" fill="#6DB23F"/></g><defs><clipPath id="clip0_449_5128"><path fill="#fff" transform="translate(19 20)" d="M0 0h43v40H0z"/></clipPath></defs></svg>