<svg width="80" height="80" viewBox="0 0 80 80" fill="none" xmlns="http://www.w3.org/2000/svg">
<circle cx="40" cy="40" r="40" fill="black"></circle>
<g clip-path="url('#clip0_449_5128')">
<path d="M31.2973 60C31.3134 59.934 31.3053 59.87 31.277 59.8102C37.4216 59.8102 43.5662 59.8102 49.7108 59.8102C49.6825 59.8721 49.6744 59.934 49.6906 60H31.2973Z" fill="#9AC97B"></path>
<path d="M49.7109 59.8102C43.5663 59.8102 37.4217 59.8102 31.2771 59.8102C29.642 59.4181 28.4838 58.4482 27.6551 56.9418C25.1164 52.3318 22.5534 47.7322 19.9319 43.1696C18.6767 40.9864 18.6989 38.9394 19.946 36.7644C22.5979 32.1399 25.177 27.4722 27.7804 22.8209C28.8274 20.9493 30.4302 20.0248 32.5081 20.0165C37.828 19.9938 43.1499 19.9959 48.4699 20.0165C50.5497 20.0248 52.1546 20.9451 53.2016 22.8168C55.8393 27.5299 58.4609 32.2514 61.1289 36.946C62.3093 39.0219 62.2831 41.0009 61.0986 43.0747C58.471 47.6744 55.8899 52.3009 53.331 56.9418C52.5023 58.4441 51.3481 59.4222 49.7089 59.8122L49.7109 59.8102ZM28.599 39.1705C28.6172 40 28.6738 40.8172 28.8355 41.6323C29.8562 46.7891 34.1271 50.8316 39.0933 51.3166C44.4496 51.8407 49.335 48.8465 51.3441 43.8073C53.3108 38.8775 51.8413 32.9901 47.8271 29.7297C46.8084 28.9022 45.9837 28.8795 45.343 29.6616C44.7245 30.4169 44.9125 31.3228 45.8604 32.1379C45.9898 32.2493 46.1212 32.3566 46.2445 32.4722C49.1935 35.1775 50.006 39.6967 48.199 43.3203C46.3819 46.9645 42.4748 48.9167 38.5597 48.0108C35.1478 47.2225 32.8719 45.0269 31.9866 41.591C31.0306 37.8787 32.0472 34.6719 34.9396 32.1441C35.8532 31.3455 36.0331 30.3859 35.4086 29.6575C34.7779 28.9228 33.9411 28.9228 33.0033 29.7235C30.1271 32.1833 28.6819 35.3488 28.597 39.1684L28.599 39.1705ZM42.1474 33.7928C42.1474 32.1771 42.1515 30.5634 42.1474 28.9476C42.1434 27.5258 41.5532 26.7375 40.4758 26.6983C39.3601 26.6571 38.6789 27.4412 38.6668 28.9187C38.6405 32.2514 38.6405 35.584 38.6628 38.9167C38.6709 40.1754 39.4268 40.9967 40.4475 40.9843C41.442 40.972 42.1373 40.1094 42.1454 38.8424C42.1555 37.1585 42.1474 35.4746 42.1474 33.7908V33.7928Z" fill="#6DB23F"></path>
</g>
<defs>
<clipPath id="clip0_449_5128">
<rect width="43" height="40" fill="white" transform="translate(19 20)"></rect>
</clipPath>
</defs>
</svg>
