<svg width="80" height="80" fill="none" xmlns="http://www.w3.org/2000/svg"><circle cx="40" cy="40" r="40" fill="#000"/><path d="M53.967 27.252a7.648 7.648 0 0 1 3.833 2.183 9.99 9.99 0 0 1 1.469 1.948c.019.077-2.645 1.846-4.26 2.833-.059.04-.292-.211-.556-.597a3.452 3.452 0 0 0-1.217-1.219 3.502 3.502 0 0 0-1.662-.485c-1.857-.126-3.053.835-3.045 2.442-.016.395.075.787.264 1.136.409.835 1.167 1.336 3.55 2.357 4.386 1.866 6.269 3.097 7.431 4.846a8.698 8.698 0 0 1 .717 7.385 8.139 8.139 0 0 1-2.728 3.313 8.272 8.272 0 0 1-4.05 1.485c-1.553.176-3.122.16-4.67-.048a11.303 11.303 0 0 1-6.234-3.21 10.694 10.694 0 0 1-1.597-2.338c.18-.131.368-.25.564-.354.272-.154 1.303-.74 2.276-1.297l1.765-1.023.37.532a8.185 8.185 0 0 0 2.327 2.202 5.744 5.744 0 0 0 5.962-.298 2.61 2.61 0 0 0 .345-3.364c-.476-.674-1.449-1.24-4.212-2.425a15.202 15.202 0 0 1-5.774-3.502 7.964 7.964 0 0 1-1.683-3.03 11.992 11.992 0 0 1-.107-3.865 7.364 7.364 0 0 1 2.225-3.854 7.506 7.506 0 0 1 4.058-1.897 15.691 15.691 0 0 1 4.64.143Zm-14.384 2.527.019 2.479h-7.983v22.41H25.99V32.263h-7.982v-2.434a23.57 23.57 0 0 1 .069-2.5c.029-.038 4.882-.057 10.767-.047l10.708.03.031 2.467Z" fill="#17A2FF"/></svg>