<svg width="452" height="249" viewBox="0 0 652 349" fill="none" xmlns="http://www.w3.org/2000/svg">
    <path d="M578.495 109.226C551.724 86.4102 519.448 -51.1767 408.885 20.4826C351.761 57.5052 255.441 -11.3011 175.714 12.4652C102.496 34.2911 95.4372 106.202 102.521 129.633C116.832 176.966 72.2988 184.011 30.9864 204.346C-33.8165 236.247 13.837 348.355 75.0564 348.891C136.276 349.426 507.159 347.822 507.159 347.822C507.159 347.822 596.093 348.046 633.077 299.01C672.876 246.241 647.646 168.153 578.497 109.223L578.495 109.226Z" fill="#EBF2F9" fill-opacity="0.1"/>
    <path d="M458.494 23H271.94V304.253H458.494V23Z" fill="#004AB8"/>
    <path d="M440.163 38.7312H289.965V206.091H440.163V38.7312Z" fill="#F3F9FF"/>
    <path d="M339.27 278.655C349.819 268.109 349.819 251.011 339.27 240.466C328.721 229.92 311.617 229.92 301.068 240.466C290.519 251.011 290.519 268.109 301.068 278.655C311.617 289.2 328.721 289.2 339.27 278.655Z" fill="#F3F9FF"/>
    <path d="M343.003 259.562C343.003 246.955 332.781 236.734 320.172 236.734C307.563 236.734 297.337 246.955 297.337 259.562C297.337 272.169 307.559 282.39 320.172 282.39C325.381 282.39 330.18 280.647 334.02 277.711L320.172 259.562L341.508 267.702C342.472 265.173 343.003 262.431 343.003 259.562Z" fill="#FF9A3D"/>
    <path d="M438.481 265.75C441.908 251.235 432.916 236.691 418.396 233.265C403.877 229.84 389.328 238.829 385.901 253.344C382.474 267.859 391.466 282.403 405.986 285.829C420.506 289.255 435.054 280.265 438.481 265.75Z" fill="#F3F9FF"/>
    <path d="M412.205 236.734C399.592 236.734 389.37 246.955 389.37 259.562C389.37 265.801 391.871 271.453 395.93 275.574L412.203 259.562L433.539 267.702C434.504 265.173 435.034 262.431 435.034 259.562C435.034 246.955 424.812 236.734 412.203 236.734H412.205Z" fill="#FF9A3D"/>
    <path d="M408.868 247.972H399.148C398.766 247.972 398.453 248.285 398.453 248.667C398.453 249.049 398.766 249.362 399.148 249.362H408.868C409.25 249.362 409.563 249.049 409.563 248.667C409.563 248.285 409.25 247.972 408.868 247.972Z" fill="white"/>
    <path d="M408.868 250.171H399.148C398.766 250.171 398.453 250.484 398.453 250.866C398.453 251.248 398.766 251.561 399.148 251.561H408.868C409.25 251.561 409.563 251.248 409.563 250.866C409.563 250.484 409.25 250.171 408.868 250.171Z" fill="white"/>
    <path d="M403.163 252.368H399.149C398.768 252.368 398.454 252.681 398.454 253.063C398.454 253.445 398.768 253.758 399.149 253.758H403.163C403.545 253.758 403.858 253.445 403.858 253.063C403.858 252.681 403.545 252.368 403.163 252.368Z" fill="white"/>
    <path d="M316.647 247.972H306.927C306.545 247.972 306.232 248.285 306.232 248.667C306.232 249.049 306.545 249.362 306.927 249.362H316.647C317.029 249.362 317.342 249.049 317.342 248.667C317.342 248.285 317.029 247.972 316.647 247.972Z" fill="white"/>
    <path d="M316.647 250.171H306.927C306.545 250.171 306.232 250.484 306.232 250.866C306.232 251.248 306.545 251.561 306.927 251.561H316.647C317.029 251.561 317.342 251.248 317.342 250.866C317.342 250.484 317.029 250.171 316.647 250.171Z" fill="white"/>
    <path d="M310.941 252.368H306.927C306.545 252.368 306.232 252.681 306.232 253.063C306.232 253.445 306.545 253.758 306.927 253.758H310.941C311.322 253.758 311.636 253.445 311.636 253.063C311.636 252.681 311.322 252.368 310.941 252.368Z" fill="white"/>
    <path d="M319.189 98.543H303.34V197.244H319.189V98.543Z" fill="#1F78FF"/>
    <path d="M345.155 71.0316H329.306V197.244H345.155V71.0316Z" fill="#1F78FF"/>
    <path d="M373.487 122.411H357.638V197.242H373.487V122.411Z" fill="#1F78FF"/>
    <path d="M401.057 87.8812H385.208V197.244H401.057V87.8812Z" fill="#1F78FF"/>
    <path d="M428.77 137.058H412.921V197.242H428.77V137.058Z" fill="#1F78FF"/>
    <path d="M400.305 73.6521H386.882C386.119 73.6521 385.494 74.2762 385.494 75.0397C385.494 75.8032 386.119 76.4273 386.882 76.4273H400.305C401.068 76.4273 401.693 75.8032 401.693 75.0397C401.693 74.2762 401.068 73.6521 400.305 73.6521Z" fill="#1F78FF"/>
    <path d="M389.939 78.7043H386.882C386.119 78.7043 385.494 79.3285 385.494 80.0919C385.494 80.8554 386.119 81.4795 386.882 81.4795H389.939C390.703 81.4795 391.327 80.8554 391.327 80.0919C391.327 79.3285 390.703 78.7043 389.939 78.7043Z" fill="#1F78FF"/>
    <path d="M344.996 52.1567H331.574C330.811 52.1567 330.186 52.7809 330.186 53.5443C330.186 54.3078 330.811 54.9319 331.574 54.9319H344.996C345.76 54.9319 346.385 54.3078 346.385 53.5443C346.385 52.7809 345.76 52.1567 344.996 52.1567Z" fill="#1F78FF"/>
    <path d="M334.631 57.209H331.574C330.811 57.209 330.186 57.8331 330.186 58.5966C330.186 59.3601 330.811 59.9842 331.574 59.9842H334.631C335.395 59.9842 336.019 59.3601 336.019 58.5966C336.019 57.8331 335.395 57.209 334.631 57.209Z" fill="#1F78FF"/>
    <path d="M372.274 107.68H358.852C358.088 107.68 357.464 108.304 357.464 109.067C357.464 109.831 358.088 110.455 358.852 110.455H372.274C373.038 110.455 373.662 109.831 373.662 109.067C373.662 108.304 373.038 107.68 372.274 107.68Z" fill="#1F78FF"/>
    <path d="M361.909 112.732H358.852C358.088 112.732 357.464 113.356 357.464 114.12C357.464 114.883 358.088 115.507 358.852 115.507H361.909C362.673 115.507 363.297 114.883 363.297 114.12C363.297 113.356 362.673 112.732 361.909 112.732Z" fill="#1F78FF"/>
    <path d="M427.558 122.411H414.135C413.372 122.411 412.747 123.035 412.747 123.798C412.747 124.562 413.372 125.186 414.135 125.186H427.558C428.321 125.186 428.946 124.562 428.946 123.798C428.946 123.035 428.321 122.411 427.558 122.411Z" fill="#1F78FF"/>
    <path d="M417.192 127.463H414.135C413.372 127.463 412.747 128.087 412.747 128.851C412.747 129.614 413.372 130.238 414.135 130.238H417.192C417.956 130.238 418.58 129.614 418.58 128.851C418.58 128.087 417.956 127.463 417.192 127.463Z" fill="#1F78FF"/>
    <path d="M246.766 129.61H110.422V206.343H246.766V129.61Z" fill="#AED3FF"/>
    <path d="M251.199 129.61H114.855V206.343H251.199V129.61Z" fill="#004AB8"/>
    <path d="M169.577 183.67C179.204 174.045 179.204 158.441 169.577 148.817C159.949 139.192 144.34 139.192 134.712 148.817C125.085 158.441 125.085 174.045 134.712 183.67C144.34 193.294 159.949 193.294 169.577 183.67Z" fill="#F3F9FF"/>
    <path d="M235.871 152.476H195.032C193.552 152.476 192.342 153.686 192.342 155.166C192.342 156.645 193.552 157.855 195.032 157.855H235.871C237.351 157.855 238.562 156.645 238.562 155.166C238.562 153.686 237.351 152.476 235.871 152.476Z" fill="#F3F9FF"/>
    <path d="M235.871 163.554H195.032C193.552 163.554 192.342 164.764 192.342 166.243C192.342 167.723 193.552 168.933 195.032 168.933H235.871C237.351 168.933 238.562 167.723 238.562 166.243C238.562 164.764 237.351 163.554 235.871 163.554Z" fill="#F3F9FF"/>
    <path d="M235.871 174.63H195.032C193.552 174.63 192.342 175.84 192.342 177.319C192.342 178.799 193.552 180.009 195.032 180.009H235.871C237.351 180.009 238.562 178.799 238.562 177.319C238.562 175.84 237.351 174.63 235.871 174.63Z" fill="#F3F9FF"/>
    <path d="M129.572 165.886H152.144V143.322C139.678 143.322 129.572 153.425 129.572 165.886Z" fill="#A8D29F"/>
    <path d="M174.715 166.612H129.572C129.572 179.073 139.678 189.176 152.144 189.176C164.609 189.176 174.715 179.073 174.715 166.612Z" fill="#F1A34F"/>
    <path d="M148.245 154.286H135.995C135.298 154.286 134.727 154.856 134.727 155.553C134.727 156.25 135.298 156.82 135.995 156.82H148.245C148.942 156.82 149.513 156.25 149.513 155.553C149.513 154.856 148.942 154.286 148.245 154.286Z" fill="#1A9A00"/>
    <path d="M138.786 158.895H135.997C135.3 158.895 134.729 159.466 134.729 160.162C134.729 160.859 135.3 161.43 135.997 161.43H138.786C139.483 161.43 140.054 160.859 140.054 160.162C140.054 159.466 139.483 158.895 138.786 158.895Z" fill="#1A9A00"/>
    <path d="M166.433 172.128H154.183C153.486 172.128 152.915 172.699 152.915 173.395C152.915 174.092 153.486 174.663 154.183 174.663H166.433C167.13 174.663 167.701 174.092 167.701 173.395C167.701 172.699 167.13 172.128 166.433 172.128Z" fill="#DD8936"/>
    <path d="M156.972 176.737H154.183C153.486 176.737 152.915 177.308 152.915 178.005C152.915 178.701 153.486 179.272 154.183 179.272H156.972C157.669 179.272 158.24 178.701 158.24 178.005C158.24 177.308 157.669 176.737 156.972 176.737Z" fill="#DD8936"/>
    <path d="M100.818 220.085V298.56H237.162V220.085H100.818Z" fill="#AED3FF"/>
    <path d="M105.252 220.085V298.56H241.595V220.085H105.252Z" fill="#004AB8"/>
    <path d="M142.54 281.544C156.155 281.544 167.193 270.51 167.193 256.899C167.193 243.288 156.155 232.255 142.54 232.255C128.925 232.255 117.887 243.288 117.887 256.899C117.887 270.51 128.925 281.544 142.54 281.544Z" fill="#F3F9FF"/>
    <path d="M185.428 248.513H226.268C227.747 248.513 228.958 247.303 228.958 245.823C228.958 244.344 227.747 243.134 226.268 243.134H185.428C183.949 243.134 182.738 244.344 182.738 245.823C182.738 247.303 183.949 248.513 185.428 248.513Z" fill="#F3F9FF"/>
    <path d="M226.268 254.208H185.428C183.949 254.208 182.738 255.418 182.738 256.897C182.738 258.377 183.949 259.587 185.428 259.587H226.268C227.747 259.587 228.958 258.377 228.958 256.897C228.958 255.418 227.747 254.208 226.268 254.208Z" fill="#F3F9FF"/>
    <path d="M226.268 265.286H185.428C183.949 265.286 182.738 266.496 182.738 267.975C182.738 269.455 183.949 270.665 185.428 270.665H226.268C227.747 270.665 228.958 269.455 228.958 267.975C228.958 266.496 227.747 265.286 226.268 265.286Z" fill="#F3F9FF"/>
    <path d="M142.54 257.298L119.97 257.012C119.968 257.107 119.968 257.205 119.968 257.298C119.968 269.76 130.074 279.862 142.54 279.862C146.996 279.862 151.151 278.57 154.651 276.341L142.54 257.298Z" fill="#F1A34F"/>
    <path d="M143.371 264.404H131.122C130.422 264.404 129.855 264.971 129.855 265.671C129.855 266.37 130.422 266.937 131.122 266.937H143.371C144.071 266.937 144.638 266.37 144.638 265.671C144.638 264.971 144.071 264.404 143.371 264.404Z" fill="#DD8936"/>
    <path d="M133.912 269.014H131.122C130.426 269.014 129.855 269.584 129.855 270.281C129.855 270.978 130.426 271.548 131.122 271.548H133.912C134.609 271.548 135.18 270.978 135.18 270.281C135.18 269.584 134.609 269.014 133.912 269.014Z" fill="#DD8936"/>
    <path d="M237.164 45.925H100.818V117.036H237.164V45.925Z" fill="#AED3FF"/>
    <path d="M241.595 45.925H105.252V117.036H241.595V45.925Z" fill="#004AB8"/>
    <path d="M159.971 99.9511C169.599 90.3267 169.599 74.7226 159.971 65.0982C150.344 55.4739 134.735 55.4739 125.107 65.0982C115.48 74.7226 115.48 90.3267 125.107 99.9511C134.735 109.575 150.344 109.575 159.971 99.9511Z" fill="#F3F9FF"/>
    <path d="M142.54 59.9632C130.074 59.9632 119.968 70.0639 119.968 82.5255C119.968 91.0611 124.713 98.4915 131.707 102.324C135.323 95.6285 142.54 82.5255 142.54 82.5255L153.226 102.402C160.302 98.5927 165.108 91.1222 165.108 82.5255C165.108 70.0639 155.004 59.9632 142.538 59.9632H142.54Z" fill="#A8D29F"/>
    <path d="M226.27 68.7584H185.428C183.942 68.7584 182.738 69.9624 182.738 71.4477V71.4496C182.738 72.9348 183.942 74.1389 185.428 74.1389H226.27C227.755 74.1389 228.96 72.9348 228.96 71.4496V71.4477C228.96 69.9624 227.755 68.7584 226.27 68.7584Z" fill="#F3F9FF"/>
    <path d="M226.268 79.8344H185.428C183.949 79.8344 182.738 81.0444 182.738 82.5237C182.738 84.0029 183.949 85.213 185.428 85.213H226.268C227.747 85.213 228.958 84.0029 228.958 82.5237C228.958 81.0444 227.747 79.8344 226.268 79.8344Z" fill="#F3F9FF"/>
    <path d="M226.268 90.9122H185.428C183.949 90.9122 182.738 92.1223 182.738 93.6015C182.738 95.0808 183.949 96.2908 185.428 96.2908H226.268C227.747 96.2908 228.958 95.0808 228.958 93.6015C228.958 92.1223 227.747 90.9122 226.268 90.9122Z" fill="#F3F9FF"/>
    <path d="M143.371 71.7492H131.121C130.424 71.7492 129.853 72.3199 129.853 73.0166C129.853 73.7132 130.424 74.2839 131.121 74.2839H143.371C144.067 74.2839 144.638 73.7132 144.638 73.0166C144.638 72.3199 144.067 71.7492 143.371 71.7492Z" fill="#1A9A00"/>
    <path d="M133.912 76.3586H131.122C130.426 76.3586 129.855 76.9293 129.855 77.626C129.855 78.3227 130.426 78.8933 131.122 78.8933H133.912C134.609 78.8933 135.18 78.3227 135.18 77.626C135.18 76.9293 134.609 76.3586 133.912 76.3586Z" fill="#1A9A00"/>
    <path d="M273.221 168.732C273.221 168.732 289.126 185.145 289.889 191.335C290.653 197.524 282.323 207.205 282.323 207.205L273.221 168.732Z" fill="#E58638"/>
    <path d="M266.422 338.998C266.422 338.998 265.882 347.723 264.192 347.849C263.967 347.866 255.627 347.866 255.627 347.866L244.981 347.805C244.981 347.805 245.05 345.24 248.162 344.698C251.274 344.156 256.483 341.968 258.369 337.857C260.353 333.532 266.422 338.998 266.422 338.998Z" fill="#163560"/>
    <path d="M290.136 338.998C290.136 338.998 289.595 347.723 287.906 347.849C287.68 347.866 279.341 347.866 279.341 347.866L268.662 347.828C268.662 347.828 268.763 345.24 271.875 344.698C274.987 344.156 280.196 341.968 282.082 337.857C284.066 333.532 290.136 338.998 290.136 338.998Z" fill="#163560"/>
    <path d="M254.631 245.43C254.631 245.43 257.414 263.232 267.803 294.836C278.189 326.439 279.606 340.125 279.606 340.125C279.606 340.125 282.416 340.531 285.383 340.531C287.26 340.531 290.748 339.812 290.748 339.812C290.748 339.812 290.844 305.272 286.055 289.381C281.269 273.489 285.023 232.088 285.023 232.088L254.631 245.43Z" fill="#163560"/>
    <path d="M249.208 233.066C249.208 233.066 248.813 259.894 253.456 292.834C258.1 325.773 256.526 339.756 256.526 339.756C256.526 339.756 260.349 340.441 261.691 340.485C263.129 340.533 267.646 340.126 267.646 340.126C267.646 340.126 274.292 307.173 272.387 290.686C270.481 274.199 281.488 234.112 281.488 234.112L249.208 233.066Z" fill="#00245E"/>
    <path d="M270.737 170.284L265.492 174.168L257.913 172.572C258.018 171.881 258.518 169.017 258.974 166.423C259.001 166.27 259.03 166.117 259.054 165.966C259.444 163.76 259.782 161.863 259.782 161.863L266.861 158.336L269.502 157.021C269.494 157.066 269.298 159.471 269.269 159.821C268.775 166.05 270.737 170.284 270.737 170.284Z" fill="#FFB27D"/>
    <path d="M258.442 168.324C258.608 168.253 268.754 165.26 269.855 165.625C270.957 165.989 271.61 168.121 271.61 168.121L255.014 171.872C255.014 171.872 256.32 169.217 258.44 168.326L258.442 168.324Z" fill="#E58638"/>
    <path d="M285.761 236.377C284.041 244.22 255.421 245.149 248.044 238.03C247.203 237.219 247.163 233.444 247.48 228.353C248.099 218.407 250.087 203.447 250.165 195.805C250.203 192.113 250.709 188.338 251.387 184.91C252.824 177.604 255.016 171.87 255.016 171.87C255.016 171.87 268.996 167.352 271.612 168.121C284.213 171.822 287.484 228.534 285.763 236.377H285.761Z" fill="#FF9A3D"/>
    <path d="M247.478 228.353C248.097 218.407 250.085 203.447 250.163 195.805C250.201 192.113 250.707 188.338 251.385 184.91L259.793 183.427C259.793 183.427 268.015 216.999 247.478 228.353Z" fill="#E58638"/>
    <path d="M252.032 214.491C252.032 214.491 252.605 215.861 251.402 216.779C250.197 217.699 249.418 219.188 249.693 220.278C249.968 221.366 252.609 223.142 253.525 222.856C254.44 222.57 256.303 221.136 256.103 220.562C255.902 219.987 257.355 215.521 255.125 213.803C252.893 212.084 252.034 214.491 252.034 214.491H252.032Z" fill="#FFB27D"/>
    <path d="M261.437 169.858C261.437 169.858 253.235 171.393 246.701 181.02C240.166 190.647 235.868 197.805 237.071 201.275C238.276 204.745 249.248 216.779 251.139 216.779C253.029 216.779 256.084 215.403 256.255 212.309C256.255 212.309 248.53 200.735 250.052 199C250.703 198.259 260.082 190.647 261.422 194.085C263.637 199.775 261.439 169.858 261.439 169.858H261.437Z" fill="#FF9A3D"/>
    <path d="M268.736 159.931C267.182 162.905 261.388 165.478 258.972 166.423C258.999 166.27 259.028 166.117 259.052 165.967C259.442 163.76 259.78 161.863 259.78 161.863L266.86 158.336C268.425 158.311 269.378 158.708 268.736 159.931Z" fill="#FCA56B"/>
    <path d="M257.498 162.025C257.498 162.025 267.978 165.293 269.914 158.737C271.85 152.18 274.506 148.187 267.896 145.822C261.286 143.458 259.242 145.574 258.063 147.605C256.885 149.636 254.822 161.004 257.498 162.023V162.025Z" fill="#FFB27D"/>
    <path d="M258.476 146.975C258.476 146.975 259.144 154.604 260.723 154.274C262.302 153.942 263.732 153.698 263.501 155.998C263.27 158.297 261.082 160.952 265.945 161.359C270.81 161.766 277.802 149.226 276.465 146.851C272.61 140.001 252.903 138.619 258.476 146.975Z" fill="#163560"/>
    <path d="M69.7777 324.26L72.9681 337.695L77.747 337.669L77.9227 324.26H69.7777Z" fill="#FFB27D"/>
    <path d="M109.98 324.833L119.058 337.695L122.596 333.153L117.132 323.066L109.98 324.833Z" fill="#FFB27D"/>
    <path d="M86.3751 147.722C84.7255 146.785 82.7474 146.682 81.3651 146.764C81.7222 146.396 82.421 146.262 82.421 146.262C81.5637 146.134 79.6487 146.985 79.6487 146.985C67.7195 142.389 65.8446 159.949 66.0947 164.03C66.3429 168.109 62.0852 169.441 55.88 172.655C44.0406 178.788 43 187.001 43 187.001C43.0916 187.054 43.189 187.117 43.2902 187.188C43.8783 186.193 45.0868 184.325 46.1064 184.042C46.0682 184.132 44.9016 186.615 44.4663 188.037C47.9603 190.694 54.4958 196.58 59.0494 200.754C59.0284 199.939 59.0609 198.781 59.3587 198.168L59.922 201.556C62.3601 203.797 64.0403 205.372 64.0403 205.372C63.7386 202.075 78.9537 184.678 86.8925 179.469C88.8247 176.625 89.512 171.601 89.5636 171.206C89.2295 175.19 88.5478 177.425 87.9388 178.683C94.6614 172.499 90.7473 150.209 86.3732 147.726L86.3751 147.722Z" fill="#163560"/>
    <path d="M86.4247 179.727C86.4648 179.744 82.5928 181.754 79.6792 180.958C76.9394 180.211 75.1485 176.659 75.1867 176.652C76.3475 176.421 76.6817 174.827 76.6568 167.977L77.1819 168.08L86.0028 169.826C86.0028 169.826 85.8023 172.602 85.7966 175.215C85.7908 177.41 85.9245 179.492 86.4266 179.725L86.4247 179.727Z" fill="#FFB27D"/>
    <path d="M76.4506 150.599C76.4506 150.599 80.8019 145.968 86.2643 150.362C86.2643 150.362 83.0854 149.812 76.4506 150.599Z" fill="#E37970"/>
    <path d="M86.0009 169.826C86.0009 169.826 85.8004 172.602 85.7947 175.215C80.8592 175.075 78.2511 170.575 77.1819 168.08L86.0028 169.826H86.0009Z" fill="#D68D5D"/>
    <path d="M76.2712 167.122C76.2712 167.122 73.6841 163.035 73.0636 159.543C72.6206 157.048 73.8903 147.804 83.1847 149.135C83.1847 149.135 85.8844 149.4 88.4199 151.114C90.438 152.477 93.3497 155.418 90.0944 163.484L89.2485 166.21L76.2712 167.122Z" fill="#163560"/>
    <path d="M121.156 329.627L116.481 329.771L111.419 329.925C111.419 329.925 99.7305 316.916 93.1721 296.058C93.0194 295.573 92.859 295.083 92.6872 294.586C89.0977 284.127 81.6592 270.997 77.7394 259.112C77.1151 257.218 76.5556 255.438 76.0516 253.75C75.8912 253.21 75.7327 252.68 75.5838 252.157C72.6951 242.121 71.8588 235.534 71.0875 228.493L99.3964 228.72C99.3964 228.72 103.967 276.788 121.155 329.626L121.156 329.627Z" fill="#80BDCC"/>
    <path d="M95.4365 212.462C95.3659 225.928 97.4126 231.705 97.4126 231.705C97.4126 231.705 85.2925 237.861 70.887 233.33C70.7171 233.276 58.9597 230.595 58.9597 230.595C59.2003 230.049 61.3444 220.975 61.5792 220.475C64.6207 213.945 66.929 211.082 67.2899 209.076C67.9581 205.33 67.9734 201.451 67.6393 197.794C66.761 188.113 64.1453 180.076 64.1453 180.076C68.0708 179.183 71.8474 177.656 75.9332 176.125C76.8726 177.295 79.643 178.476 82.1365 178.421C85.0061 178.358 85.9016 177.144 85.7966 175.778C88.8552 177.478 91.2858 179.097 91.2858 179.097C93.8843 183.609 99.1558 187.991 99.5377 194.914C99.6312 196.616 95.4384 212.086 95.4365 212.462Z" fill="#E7F1FD"/>
    <path d="M71.0913 213.962C69.8541 215.713 67.4808 226.355 61.5792 227.693C64.6207 220.108 66.929 216.783 67.2899 214.451C67.9581 210.097 67.9734 205.595 67.6393 201.346C69.6154 197.884 71.0894 195.511 71.0894 195.511C71.244 194.952 74.2301 185.726 75.1867 193.973C76.1413 202.222 72.4717 212.006 71.0894 213.964L71.0913 213.962Z" fill="#5F9AA8"/>
    <path d="M87.6505 172.302C87.6505 172.302 75.9733 172.495 75.9657 165.223C75.958 157.951 74.4459 153.078 81.8997 152.648C89.3555 152.217 90.8065 154.99 91.4003 157.418C91.9941 159.844 90.6882 172.065 87.6505 172.302Z" fill="#FFB27D"/>
    <path d="M91.0528 153.374C89.2505 151.19 87.8872 151.666 87.1235 152.32C84.5995 148.551 76.6244 154.002 76.6244 154.002C75.8435 159.22 72.0803 162.209 72.0803 162.209C72.0803 162.209 74.2091 163.524 79.116 162.262C82.9785 161.27 85.7794 155.775 86.7989 153.479C87.4939 154.095 88.9583 155.521 89.3975 156.918C89.9798 158.77 90.2414 162.581 91.3526 162.451C91.3526 162.451 93.7621 156.653 91.0547 153.372L91.0528 153.374Z" fill="#163560"/>
    <path d="M72.8077 336.943C72.8077 336.943 73.1934 339.604 72.1987 342.452C72.1987 342.452 71.4158 346.015 74.927 346.08C78.4382 346.147 79.2993 345.815 78.9002 343.631C78.5031 341.446 77.747 337.669 77.747 337.669L72.8077 336.945V336.943Z" fill="#FFB27D"/>
    <path d="M79.2325 347.83C79.2325 347.83 79.2286 347.832 79.221 347.838H71.9581L71.9466 347.83C71.5495 345.968 72.1987 342.456 72.1987 342.456C76.1738 346.254 78.6616 342.36 78.6616 342.36C79.3069 343.985 79.2325 347.83 79.2325 347.83Z" fill="#C45446"/>
    <path d="M131.056 344.154C131.056 344.154 124.584 336.808 122.596 333.153L117.785 335.617L128.542 345.716L131.058 345.385V344.154H131.056Z" fill="#FFB27D"/>
    <path d="M135.025 347.817H126.046C125.256 347.105 124.502 345.67 123.577 343.788C123.049 342.709 121.863 342.116 120.647 341.79V347.817H118.789L117.069 341.408C115.923 339.261 116.784 337.291 117.59 335.594C118.527 335.592 121.246 336.27 126.027 341.761C127.598 343.565 129.332 344.208 131.056 344.154C131.079 344.17 131.104 344.183 131.127 344.193C133.849 345.441 134.737 346.975 135.025 347.817Z" fill="#C45446"/>
    <path d="M134.59 184.37C134.59 184.37 126.924 188.655 124.187 189.89C123.213 190.329 121.449 191.15 119.646 191.992C118.558 192.499 117.456 193.017 116.504 193.465C114.894 194.221 112.979 193.807 111.822 192.456C107.671 187.611 96.9296 177.11 85.8367 175.793L85.7985 175.776L85.8042 175.787H85.7908L85.8519 175.906C86.4763 177.455 92.5573 192.645 92.7444 195.849C92.943 199.226 93.5387 251.069 93.5387 251.069C93.5387 251.069 93.1416 253.453 97.7105 252.458C102.281 251.466 103.473 250.471 103.473 250.471C103.473 250.471 99.1024 218.492 100.294 207.368C100.529 205.184 100.317 202.732 99.8279 200.199C106.585 204.289 114.55 206.11 114.55 206.11C114.55 206.11 117.521 204.814 122.138 201.955C124.076 200.753 126.323 198.836 128.536 196.809C131.209 194.36 135.808 188.442 135.808 188.442L134.59 184.369V184.37Z" fill="#E37970"/>
    <path d="M116.481 329.771L111.419 329.925C111.419 329.925 99.7305 316.916 93.1721 296.058C93.0194 295.573 92.859 295.083 92.6872 294.586C89.0977 284.127 81.6591 270.997 77.7394 259.112C77.1151 257.219 76.5556 255.438 76.0516 253.75C75.8912 253.21 75.7327 252.68 75.5838 252.157L79.7518 248.994C79.7518 248.994 92.2671 269.255 96.143 288.322C99.509 304.884 112.989 324.812 116.477 329.769L116.481 329.771Z" fill="#5F9AA8"/>
    <path d="M80.1909 290.099C80.2616 299.371 79.7938 320.687 78.5852 329.513H74.1022C71.624 329.513 70.3887 329.477 70.3887 329.477C67.3586 314.133 65.203 301.437 63.6336 290.496C62.3468 281.518 61.2012 273.82 60.321 267.195C59.4351 260.526 58.8184 254.943 58.5988 250.225C58.5645 249.483 58.5396 248.759 58.5244 248.059C58.511 247.355 58.5072 246.669 58.5129 246.003L82.9727 243.619C82.6653 259.866 80.1508 284.711 80.1909 290.099Z" fill="#80BDCC"/>
    <path d="M74.1022 329.515C71.624 329.515 70.3887 329.479 70.3887 329.479C67.3586 314.135 65.203 301.438 63.6336 290.498C62.3468 281.52 61.2012 273.822 60.321 267.197C59.4351 260.528 58.8184 254.945 58.5988 250.227L67.5744 255.505C67.5744 255.505 61.8465 257.524 64.0307 272.82C66.2169 288.114 71.0607 327.35 74.1022 329.515Z" fill="#5F9AA8"/>
    <path d="M75.2573 250.076C75.2573 250.076 73.5352 256.298 67.5744 255.504C61.6136 254.71 53.1364 251.134 53.1364 251.134C53.1364 251.134 55.6834 243.087 58.8509 232.517C62.6866 219.719 67.4331 203.22 69.6689 192.814C70.297 189.898 70.7266 187.462 70.8851 185.72L75.9332 176.123C75.9332 176.123 83.2038 192.671 83.6009 196.842C83.998 201.012 75.2554 250.074 75.2554 250.074L75.2573 250.076Z" fill="#E37970"/>
    <path d="M96.5458 201.499C93.6762 201.875 92.5764 203.4 92.2232 205.455C92.0323 206.564 91.4595 207.662 90.9745 208.437C88.1163 208.589 81.3117 208.96 75.5934 209.322L75.1218 216.82C79.8186 216.236 85.5904 215.045 92.2347 212.771C92.7444 212.684 93.3821 212.367 94.1821 211.714C98.2985 208.343 100.636 202.699 100.643 201.892C100.651 201.083 99.4174 201.125 96.5477 201.501L96.5458 201.499Z" fill="#FFB27D"/>
    <path d="M74.9938 205.583C74.7285 212.336 73.138 225.447 58.9654 232.465C58.9272 232.482 58.889 232.503 58.8528 232.518C62.6885 219.721 67.435 203.222 69.6708 192.816C72.2731 196.706 75.139 201.865 74.9938 205.583Z" fill="#C45446"/>
    <path d="M75.9351 176.123C75.9351 176.123 63.8112 176.982 60.8976 183.471C57.984 189.961 57.0561 211.544 60.7659 217.9C60.7659 217.9 65.8732 219.354 74.9041 217.665C75.0148 217.644 75.1256 217.623 75.2382 217.602C75.2382 217.602 78.1193 210.55 75.5361 209.16C75.5361 209.16 67.92 209.557 68.7142 207.042C69.5085 204.526 75.937 176.123 75.937 176.123H75.9351Z" fill="#E37970"/>
    <path d="M142.808 179.278C136.286 178.44 134.64 184.37 134.64 184.37L135.858 188.444C137.868 188.72 139.629 188.197 141.25 185.878C142.871 183.559 143.318 184.451 144.349 182.723C145.746 180.383 143.56 179.511 142.812 179.276L142.808 179.278Z" fill="#FFB27D"/>
    <path d="M124.187 189.89C123.213 190.329 121.449 191.15 119.646 191.992C120.61 193.704 121.817 196.815 122.138 201.957C124.076 200.754 126.585 198.752 128.727 196.651C132.163 193.278 135.808 188.444 135.808 188.444L134.59 184.37C134.59 184.37 126.924 188.655 124.187 189.89Z" fill="#FFB27D"/>
    <path d="M470.192 237.135C470.192 237.135 465.555 238.326 462.607 237.439C459.659 236.551 454.584 238.009 453.767 239.084C452.95 240.159 453.249 240.586 454.708 240.956C456.167 241.327 461.333 243.529 464.728 242.254C468.123 240.979 472.552 240.934 472.552 240.934L470.194 237.135H470.192Z" fill="#E49963"/>
    <path d="M510.278 196.859C510.278 196.859 505.067 233.879 496.439 237.194C492.182 238.83 473.367 242.539 467.804 242.911C467.804 242.911 466.441 241.806 466.773 237.305C466.773 237.305 486.484 230.071 489.285 226.138C493.453 220.282 486.698 202.218 491.928 196.717C497.157 191.218 505.965 188.856 510.28 196.859H510.278Z" fill="#1652CA"/>
    <path d="M509.611 339.497V331.425H522.323C522.667 331.425 522.948 331.145 522.948 330.801V329.507C522.948 329.163 522.667 328.883 522.323 328.883H509.611V282.937C509.611 281.649 508.556 280.594 507.267 280.594H504.752C503.463 280.594 502.408 281.649 502.408 282.937V328.883H489.696C489.352 328.883 489.071 329.163 489.071 329.507V330.801C489.071 331.145 489.352 331.425 489.696 331.425H502.408V339.497C493.211 340.192 485.843 343.501 483.775 347.779H528.246C526.178 343.501 518.81 340.192 509.613 339.497H509.611Z" fill="#2B478B"/>
    <path d="M508.521 274.85C507.001 277.427 505.243 279.844 503.431 282.13C497.831 289.198 491.735 295.025 490.673 300.532C490.461 301.629 490.127 302.812 489.688 304.057C489.245 305.318 488.697 306.645 488.063 308.017C485.686 313.178 482.133 318.96 478.586 324.216C472.453 333.301 466.685 340.883 466.685 340.883L456.108 340.432C456.531 339.373 461.144 326.827 467.315 311.497C469.822 305.273 472.485 298.653 475.057 292.269C475.399 291.416 475.743 290.566 476.081 289.727C476.867 287.772 477.64 285.85 478.395 283.978C484.189 269.583 488.804 258.119 488.804 258.119C488.804 258.119 511.964 249.349 514.369 255.031C516.353 259.717 514.738 264.307 508.517 274.85H508.521Z" fill="#163560"/>
    <path d="M466.355 338.961C466.355 338.961 465.814 347.685 464.125 347.811C463.899 347.828 455.56 347.828 455.56 347.828L444.913 347.767C444.913 347.767 444.984 345.202 448.094 344.66C451.206 344.118 456.415 341.932 458.301 337.819C460.285 333.494 466.355 338.961 466.355 338.961Z" fill="#163560"/>
    <path d="M490.847 314.033C490.847 314.033 498.203 318.759 497.489 320.294C497.394 320.498 493.329 327.778 493.329 327.778L488.084 337.04C488.084 337.04 485.879 335.729 486.921 332.748C487.966 329.767 488.594 324.155 485.923 320.506C483.112 316.665 490.845 314.033 490.845 314.033H490.847Z" fill="#163560"/>
    <path d="M480.894 253.954C480.894 253.954 451.823 272.056 448.577 284.222C445.332 296.388 487.248 322.34 487.248 322.34C487.248 322.34 491.846 318.284 492.657 315.31C492.657 315.31 473.709 292.618 469.6 287.532C467.076 284.407 506.921 276.717 511.79 269.147C516.659 261.578 514.915 255.208 514.915 255.208L480.894 253.952V253.954Z" fill="#00245E"/>
    <path d="M476.26 277.2H535.757C536.95 277.2 537.92 278.17 537.92 279.363V291.257C537.92 292.45 536.95 293.42 535.757 293.42H476.26C475.067 293.42 474.097 292.45 474.097 291.257V279.363C474.097 278.17 475.067 277.2 476.26 277.2Z" fill="#FF9A3D"/>
    <path d="M494.337 190.512C491.481 192.28 489.908 194.524 489.908 194.524C496.873 196.326 508.418 189.873 508.418 189.873C508.418 189.873 503.935 186.861 502.274 180.246C502.19 179.912 502.114 179.57 502.045 179.219C501.827 178.104 501.692 176.898 501.669 175.596L498.469 178.461L493.15 183.225C493.15 183.225 493.27 185.202 493.936 188.602C494.053 189.195 494.184 189.833 494.337 190.51V190.512Z" fill="#E49963"/>
    <path d="M515.759 223.357C514.763 236.769 516.439 257.161 515.309 260.694C514.331 263.742 502.837 261.938 498.396 260.919C496.752 260.543 494.761 260.005 492.705 259.369C486.967 257.594 480.716 255.058 480.046 253.176C480.019 253.101 479.998 253.029 479.985 252.96C479.924 252.687 479.937 252.431 479.997 252.172C480.22 251.212 481.081 250.173 481.182 247.799C481.295 245.146 481.278 242.023 481.379 238.664C481.385 238.286 481.388 237.874 481.43 237.496V237.359C481.434 237.286 481.436 237.215 481.438 237.143C481.533 233.396 481.73 229.459 481.957 225.552C482.102 223.099 482.269 220.669 482.461 218.341C482.962 212.332 483.636 206.99 484.529 203.611C485.988 198.105 489.203 194.513 492.13 191.881L494.247 190.066C496.611 190.581 499.402 190.239 501.928 189.043C504.663 187.745 505.608 186.815 506.083 187.164C512.397 192.035 516.939 206.959 515.761 223.357H515.759Z" fill="white"/>
    <path d="M492.737 259.398C487 257.623 480.749 255.086 480.079 253.204C480.052 253.13 480.031 253.057 480.017 252.989C480.021 252.725 480.025 252.462 480.029 252.2C480.252 251.24 481.113 250.202 481.215 247.828C481.327 245.175 481.31 242.052 481.411 238.693C481.417 238.315 481.421 237.903 481.463 237.525V237.387C481.467 237.315 481.469 237.244 481.47 237.172L503.141 227.346C503.141 227.346 504.39 244.806 492.739 259.4L492.737 259.398Z" fill="#1652CA"/>
    <path d="M493.15 183.227C493.15 183.227 493.27 185.204 493.936 188.604C499.131 186.926 501.487 182.234 502.274 180.246C502.497 179.684 502.595 179.335 502.595 179.335C502.595 179.335 502.392 179.291 502.045 179.219C501.316 179.064 499.939 178.772 498.469 178.461L493.15 183.225V183.227Z" fill="#D68D5D"/>
    <path d="M491.047 183.173C491.047 183.173 502.461 184.46 503.152 177.342C503.843 170.225 505.783 165.598 498.526 164.474C491.269 163.352 489.587 165.931 488.777 168.25C487.968 170.569 488.096 182.654 491.047 183.172V183.173Z" fill="#E49963"/>
    <path d="M503.103 177.835C503.103 177.835 502.379 168.387 491.991 167.408C484.875 166.738 488.842 160.615 489.6 159.638C489.6 159.638 495.051 160.386 500.64 161.308C512.368 163.245 504.254 176.361 503.103 177.833V177.835Z" fill="#2B478B"/>
    <path d="M439.358 220.269L438.359 220.593L446.859 246.744L447.858 246.419L439.358 220.269Z" fill="#1652CA"/>
    <path d="M475.666 244.423L446.81 245.038L446.846 246.763L475.703 246.148L475.666 244.423Z" fill="#1652CA"/>
    <path d="M472.579 242.827C472.579 242.827 468.1 244.522 465.072 243.964C462.044 243.407 457.162 245.415 456.467 246.574C455.773 247.732 456.117 248.123 457.608 248.331C459.099 248.539 464.476 250.16 467.71 248.518C470.945 246.877 475.34 246.343 475.34 246.343L472.577 242.827H472.579Z" fill="#E49963"/>
    <path d="M507.979 198.376C507.979 198.376 506.883 235.744 498.673 239.991C494.624 242.086 476.333 247.845 470.842 248.83C470.842 248.83 469.364 247.881 469.198 243.371C469.198 243.371 487.991 234.009 490.341 229.789C493.837 223.509 485.131 206.299 489.722 200.258C494.314 194.215 502.807 190.896 507.977 198.376H507.979Z" fill="white"/>
</svg>
