<svg width="35" height="35" viewBox="0 0 60 60" fill="none" xmlns="http://www.w3.org/2000/svg">
<rect width="60" height="60" rx="15" fill="#2F2F2F"/>
<path d="M11 39.0313C11.1136 42.0103 12.5446 44.5768 15.4948 46.0559C18.4518 47.5385 21.4105 47.2831 24.0301 45.2292C25.4594 44.109 26.6903 42.711 27.9399 41.37C28.7097 40.5433 28.2519 39.1832 27.182 38.9036C26.5479 38.7379 26.0274 38.9692 25.5781 39.4317C24.6116 40.4259 23.6537 41.4287 22.6567 42.3917C21.3308 43.6707 19.7319 44.1021 17.9686 43.6896C14.1706 42.7991 12.7108 38.0734 15.3897 35.1859C17.8143 32.5746 20.4017 30.122 22.8449 27.5279C25.8188 24.3677 30.8122 25.8313 31.6599 29.8718C31.8583 30.8141 32.6789 31.2991 33.5199 31.092C34.3677 30.8849 34.8288 30.0357 34.5864 29.0675C33.82 26.0039 31.9583 23.9276 28.9844 23.0491C25.9952 22.1672 23.2654 22.8403 21.0154 25.0529C18.4009 27.6246 15.8509 30.2653 13.2974 32.9008C11.7545 34.4938 11.0305 36.4459 11 39.0313ZM41.3108 14C38.7794 14.0104 36.9686 14.6559 35.4698 16.0418C34.3134 17.1119 33.2147 18.2527 32.1499 19.4177C31.8803 19.7129 31.7362 20.2168 31.7176 20.6345C31.6904 21.2386 32.0668 21.6839 32.6196 21.9186C33.2571 22.1913 33.8302 22.0291 34.3083 21.5527C35.3375 20.5292 36.3277 19.4661 37.3772 18.4667C38.6777 17.2275 40.2511 16.8392 41.9653 17.2448C45.8243 18.1578 47.2367 22.9248 44.4848 25.8434C42.0399 28.4375 39.5237 30.9626 37.0025 33.479C34.0913 36.382 29.5236 35.0858 28.4283 31.073C28.1468 30.0426 27.3804 29.5093 26.5225 29.7458C25.629 29.9926 25.2254 30.8003 25.473 31.8393C26.9396 37.9561 34.4338 40.2464 38.91 35.8987C41.5719 33.3133 44.1881 30.6743 46.7094 27.9473C49.1136 25.3481 49.6223 22.2396 48.2455 18.9724C46.8721 15.7121 44.2644 14.1433 41.3108 14Z" fill="white"/>
</svg>
