<svg width="80" height="80" viewBox="0 0 80 80" fill="none" xmlns="http://www.w3.org/2000/svg">
<circle cx="40" cy="40" r="40" fill="black"/>
<path fill-rule="evenodd" clip-rule="evenodd" d="M25.3852 20C22.5322 20 20.4212 22.5077 20.5157 25.2272C20.6064 27.84 20.4886 31.2238 19.6403 33.9834C18.7891 36.7507 17.3504 38.5043 15 38.7294V41.2706C17.3504 41.4962 18.7891 43.2489 19.6402 46.0166C20.4886 48.7762 20.6063 52.16 20.5156 54.7728C20.4211 57.4919 22.5321 60 25.3855 60H54.6187C57.4716 60 59.5822 57.4923 59.4877 54.7728C59.397 52.16 59.5148 48.7762 60.3631 46.0166C61.2144 43.2489 62.6495 41.4955 65 41.2706V38.7294C62.6496 38.5038 61.2145 36.7511 60.3631 33.9834C59.5147 31.2242 59.397 27.84 59.4877 25.2272C59.5822 22.5081 57.4716 20 54.6187 20H25.3852ZM48.8983 44.6226C48.8983 48.3673 46.117 50.6383 41.5013 50.6383H33.644C33.4193 50.6383 33.2037 50.5487 33.0448 50.3891C32.8859 50.2295 32.7966 50.013 32.7966 49.7873V30.2128C32.7966 29.9871 32.8859 29.7706 33.0448 29.611C33.2037 29.4514 33.4193 29.3617 33.644 29.3617H41.4565C45.3053 29.3617 47.8312 31.4554 47.8312 34.6698C47.8312 36.9259 46.1319 38.9457 43.9672 39.2996V39.4173C46.9141 39.7419 48.8983 41.7916 48.8983 44.6226ZM40.6445 32.0596H36.1645V38.4147H39.9378C42.8548 38.4147 44.4632 37.2351 44.4632 35.1266C44.4629 33.1507 43.0801 32.0596 40.6445 32.0596ZM36.1645 40.9362V47.9396H40.8094C43.8465 47.9396 45.4552 46.7158 45.4552 44.4158C45.4552 42.1158 43.8014 40.9358 40.6141 40.9358L36.1645 40.9362Z" fill="#7952B3"/>
</svg>
