<svg width="80" height="80" viewBox="0 0 80 80" fill="none" xmlns="http://www.w3.org/2000/svg">
<circle cx="40" cy="40" r="40" fill="black"/>
<path d="M57.5678 21L54.3275 57.2998L39.7621 61.3378L25.2369 57.3055L22 21H57.5678Z" fill="#264DE4"/>
<path d="M51.5535 54.9883L54.3225 23.9685H39.7839V58.2513L51.5535 54.9883Z" fill="#2965F1"/>
<path d="M29.4205 37.4337L29.8196 41.8864H39.7839V37.4337H29.4205Z" fill="#EBEBEB"/>
<path d="M39.7839 28.4212H39.7685H28.6186L29.0234 32.874H39.7839V28.4212Z" fill="#EBEBEB"/>
<path d="M39.7839 53.6305V48.9978L39.7644 49.003L34.8053 47.6639L34.4883 44.1127H32.0786H30.0185L30.6423 51.1041L39.7634 53.6362L39.7839 53.6305Z" fill="#EBEBEB"/>
<path d="M45.2515 41.8863L44.7347 47.6611L39.7685 49.0016V53.6341L48.8968 51.1041L48.9638 50.3519L50.0101 38.6293L50.1188 37.4336L50.9226 28.4212H39.7685V32.874H46.0428L45.6377 37.4336H39.7685V41.8863H45.2515Z" fill="black"/>
</svg>
