<svg width="80" height="80" viewBox="0 0 80 80" fill="none" xmlns="http://www.w3.org/2000/svg">
<circle cx="40" cy="40" r="40" fill="black"/>
<path d="M59.2457 38.2181L41.7813 20.7543C40.7761 19.7486 39.1449 19.7486 38.1385 20.7543L34.5119 24.381L39.1124 28.9815C40.1814 28.6203 41.4074 28.8626 42.2596 29.7148C43.1158 30.5725 43.3565 31.8089 42.9865 32.8814L47.4201 37.3153C48.4927 36.9457 49.7304 37.1848 50.5871 38.043C51.7844 39.2398 51.7844 41.1797 50.5871 42.3774C49.3894 43.5752 47.4496 43.5752 46.2513 42.3774C45.3507 41.4758 45.1282 40.1531 45.5841 39.0436L41.4494 34.9088L41.4489 45.7898C41.7487 45.938 42.0224 46.1338 42.2596 46.3695C43.4569 47.5664 43.4569 49.5064 42.2596 50.7051C41.0619 51.9023 39.1211 51.9023 37.9252 50.7051C36.7278 49.5064 36.7278 47.5666 37.9252 46.3697C38.2121 46.0826 38.5531 45.8552 38.9285 45.7007V34.7184C38.5526 34.5649 38.2114 34.3374 37.9252 34.0494C37.018 33.1435 36.7999 31.8124 37.2647 30.6984L32.7297 26.1629L20.7547 38.1373C19.7484 39.1441 19.7484 40.7755 20.7547 41.7815L38.2194 59.2455C39.2249 60.2515 40.8558 60.2515 41.8625 59.2455L59.2455 41.8626C60.2515 40.8563 60.2515 39.2239 59.2455 38.2181" fill="#EF4444"/>
</svg>
