<svg width="80" height="80" viewBox="0 0 80 80" fill="none" xmlns="http://www.w3.org/2000/svg">
<circle cx="40" cy="40" r="40" fill="black"/>
<path d="M40.4445 61.3505L48.7098 35.9126H32.179L40.4443 61.3505H40.4445Z" fill="#E24329"/>
<path d="M40.4445 61.3503L32.179 35.9123H20.5955L40.4445 61.3503Z" fill="#FC6D26"/>
<path d="M20.5954 35.9123L18.0838 43.6428C17.9721 43.9865 17.9721 44.3567 18.0837 44.7004C18.1954 45.044 18.413 45.3436 18.7053 45.556L40.4444 61.3504L20.5953 35.9125L20.5954 35.9123Z" fill="#FCA326"/>
<path d="M20.5955 35.9124H32.179L27.201 20.5912C26.9449 19.8028 25.8296 19.803 25.5736 20.5912L20.5955 35.9124Z" fill="#E24329"/>
<path d="M40.4445 61.3503L48.7099 35.9123H60.2935L40.4443 61.3503H40.4445Z" fill="#FC6D26"/>
<path d="M60.2935 35.9123L62.8052 43.6428C62.9168 43.9865 62.9168 44.3567 62.8051 44.7004C62.6934 45.0441 62.4758 45.3436 62.1835 45.556L40.4445 61.3504L60.2935 35.9125V35.9123Z" fill="#FCA326"/>
<path d="M60.2935 35.9124H48.7098L53.6879 20.5912C53.9441 19.8028 55.0594 19.803 55.3154 20.5912L60.2935 35.9124Z" fill="#E24329"/>
</svg>
