<svg width="80" height="80" viewBox="0 0 80 80" fill="none" xmlns="http://www.w3.org/2000/svg">
<circle cx="40" cy="40" r="40" fill="black"/>
<path d="M30.9755 34.4421L39.6818 29.4155C39.7889 29.3537 39.9104 29.3211 40.0341 29.3211C40.1577 29.3211 40.2792 29.3537 40.3863 29.4155L49.0927 34.4421C49.1997 34.504 49.2886 34.5929 49.3504 34.7C49.4123 34.807 49.4448 34.9285 49.4449 35.0521V45.1054C49.4449 45.3569 49.3105 45.5894 49.0927 45.7154L40.3863 50.742C40.2792 50.8039 40.1577 50.8364 40.0341 50.8364C39.9104 50.8364 39.7889 50.8039 39.6818 50.742L30.9755 45.7154C30.8684 45.6536 30.7795 45.5646 30.7177 45.4576C30.6558 45.3505 30.6233 45.229 30.6232 45.1054V35.052C30.6234 34.8003 30.7577 34.568 30.9755 34.442" fill="#8080F2"/>
<path d="M62.6052 39.2549L52.1916 21.1383C51.8134 20.4833 51.1146 20 50.3582 20H29.5308C28.7744 20 28.0753 20.4833 27.6971 21.1383L17.2837 39.2149C16.9054 39.8701 16.9054 40.697 17.2837 41.3522L27.6971 59.3204C28.0753 59.9754 28.7744 60.3103 29.5308 60.3103H50.358C51.1144 60.3103 51.8134 59.9855 52.1914 59.3303L62.605 41.3328C62.9836 40.678 62.9836 39.9099 62.605 39.2549H62.6052ZM53.9821 47.9667C53.9821 48.2329 53.8219 48.4793 53.591 48.6127L40.3264 56.2656C40.2122 56.331 40.0829 56.3655 39.9512 56.3655C39.8196 56.3655 39.6903 56.331 39.576 56.2656L26.3012 48.6127C26.0705 48.4793 25.909 48.233 25.909 47.9665V32.6603C25.909 32.3938 26.0682 32.1477 26.2991 32.0143L39.563 24.3612C39.6771 24.2957 39.8064 24.2612 39.9381 24.2612C40.0697 24.2612 40.199 24.2957 40.3131 24.3612L53.5887 32.0143C53.8197 32.1477 53.9821 32.3938 53.9821 32.6603V47.9665V47.9667Z" fill="#4B32C3"/>
</svg>
