<svg width="80" height="80" viewBox="0 0 80 80" fill="none" xmlns="http://www.w3.org/2000/svg">
<circle cx="40" cy="40" r="40" fill="black"/>
<path d="M56.1808 21H36.4908C36.4908 23.3573 37.4273 25.6181 39.0942 27.285C40.7611 28.9519 43.0219 29.8884 45.3792 29.8884H49.0063V33.3904C49.0095 38.2949 52.9845 42.27 57.8889 42.2732V22.7081C57.8889 21.765 57.1244 21 56.1808 21Z" fill="#2684FF"/>
<path d="M46.4383 30.8108H26.7484C26.7515 35.7153 30.7264 39.6904 35.631 39.6936H39.2582V43.2068C39.2644 48.1113 43.2421 52.0837 48.1466 52.0837V32.5192C48.1466 31.5758 47.3817 30.811 46.4383 30.811V30.8108Z" fill="url(#paint0_linear_449_5177)"/>
<path d="M36.69 40.616H17C17 45.525 20.9796 49.5044 25.8884 49.5044H29.5269V53.0063C29.5301 57.9063 33.4982 61.8797 38.3983 61.889V42.3243C38.3983 41.3809 37.6334 40.616 36.69 40.616Z" fill="url(#paint1_linear_449_5177)"/>
<defs>
<linearGradient id="paint0_linear_449_5177" x1="47.7252" y1="30.8451" x2="39.4003" y2="39.5318" gradientUnits="userSpaceOnUse">
<stop offset="0.18" stop-color="#0052CC"/>
<stop offset="1" stop-color="#2684FF"/>
</linearGradient>
<linearGradient id="paint1_linear_449_5177" x1="38.5406" y1="40.7128" x2="28.9107" y2="50.1873" gradientUnits="userSpaceOnUse">
<stop offset="0.18" stop-color="#0052CC"/>
<stop offset="1" stop-color="#2684FF"/>
</linearGradient>
</defs>
</svg>
