<svg width="80" height="80" viewBox="0 0 80 80" fill="none" xmlns="http://www.w3.org/2000/svg">
<circle cx="40" cy="40" r="40" fill="black"/>
<path d="M20 20H60.8889V60.8889H20V20Z" fill="#017ACB"/>
<path d="M39.6331 35.1417H41.5945V38.5278H36.2917V53.5928L36.1511 53.6311C35.9595 53.6822 33.4359 53.6822 32.8928 53.6247L32.4584 53.5864V38.5278H27.1556V35.1417L28.8359 35.1225C29.7559 35.1097 32.1198 35.1097 34.0875 35.1225C36.0553 35.1353 38.547 35.1417 39.6331 35.1417V35.1417ZM54.6023 51.9955C53.8228 52.8197 52.9859 53.2797 51.5931 53.6567C50.9862 53.8228 50.884 53.8292 49.5167 53.8228C48.1495 53.8164 48.0409 53.8164 47.3764 53.6439C45.6578 53.203 44.2714 52.3405 43.3259 51.1203C43.0576 50.7753 42.6167 50.0597 42.6167 49.9703C42.6167 49.9447 42.6806 49.8872 42.7637 49.8489C42.8467 49.8105 43.0192 49.7019 43.1598 49.6189C43.3003 49.5358 43.5559 49.3825 43.7284 49.293C43.9009 49.2036 44.3992 48.9097 44.8337 48.6478C45.2681 48.3858 45.6642 48.175 45.7089 48.175C45.7537 48.175 45.8367 48.2644 45.9006 48.373C46.2839 49.0183 47.1784 49.8425 47.8109 50.1236C48.2006 50.2897 49.0631 50.475 49.4784 50.475C49.8617 50.475 50.5645 50.3089 50.9415 50.1364C51.344 49.9511 51.5484 49.7658 51.7912 49.3953C51.9573 49.1333 51.9765 49.063 51.9701 48.5647C51.9701 48.1047 51.9445 47.9769 51.8167 47.7661C51.459 47.1783 50.9734 46.8717 49.0056 46.0028C46.9739 45.1019 46.0603 44.5653 45.3192 43.8433C44.7698 43.3067 44.6612 43.1597 44.3162 42.4889C43.8689 41.6264 43.8114 41.3453 43.8051 40.0611C43.7987 39.1603 43.8178 38.8664 43.9137 38.5597C44.0478 38.0997 44.4823 37.2117 44.6803 36.988C45.0892 36.5089 45.2362 36.3619 45.5237 36.1255C46.3926 35.41 47.747 34.9372 49.0439 34.8925C49.1909 34.8925 49.6765 34.918 50.1301 34.95C51.4334 35.0586 52.3215 35.378 53.1776 36.0617C53.8228 36.5728 54.8003 37.7739 54.7045 37.9336C54.6406 38.0294 52.0915 39.7289 51.9253 39.78C51.8231 39.8119 51.7528 39.7736 51.6123 39.6075C50.7434 38.5661 50.392 38.3425 49.5487 38.2914C48.9481 38.253 48.6287 38.3233 48.2262 38.5917C47.8045 38.8728 47.6001 39.3008 47.6001 39.895C47.6064 40.7639 47.9387 41.1728 49.1653 41.7797C49.9576 42.1694 50.6348 42.4889 50.6859 42.4889C50.7626 42.4889 52.4045 43.3067 52.8326 43.5622C54.8259 44.7314 55.6373 45.9325 55.8481 48.0025C56.0015 49.5614 55.5606 50.9861 54.6023 51.9955V51.9955Z" fill="black"/>
</svg>
