<svg width="80" height="80" viewBox="0 0 80 80" fill="none" xmlns="http://www.w3.org/2000/svg">
<circle cx="40" cy="40" r="40" fill="black"/>
<path d="M19.389 34.106C19.389 34.106 18.3931 33.3881 19.5882 32.4296L22.3726 29.9398C22.3726 29.9398 23.1693 29.1016 24.0117 29.8319L49.7059 49.2852V58.6135C49.7059 58.6135 49.6934 60.0783 47.8137 59.9165L19.389 34.106Z" fill="#2489CA"/>
<path d="M26.0118 40.1189L19.389 46.1399C19.389 46.1399 18.7085 46.6462 19.389 47.5508L22.4639 50.3476C22.4639 50.3476 23.1942 51.1319 24.2731 50.2397L31.2942 44.9158L26.0118 40.1189Z" fill="#1070B3"/>
<path d="M37.6389 40.1686L49.7848 30.8943L49.7059 21.6158C49.7059 21.6158 49.1872 19.5908 47.4568 20.6448L31.2942 35.3551L37.6389 40.1686Z" fill="#0877B9"/>
<path d="M47.8137 59.929C48.5192 60.651 49.374 60.4145 49.374 60.4145L58.8392 55.7503C60.0508 54.9246 59.8807 53.8996 59.8807 53.8996V26.0476C59.8807 24.8234 58.6275 24.4002 58.6275 24.4002L50.4238 20.4456C48.6312 19.3377 47.4569 20.6448 47.4569 20.6448C47.4569 20.6448 48.9673 19.5576 49.7059 21.6158V58.4434C49.7059 58.6965 49.652 58.9455 49.5441 59.1696C49.3283 59.6053 48.8594 60.012 47.7349 59.8418L47.8137 59.929Z" fill="#3C99D4"/>
</svg>
