<svg width="80" height="80" viewBox="0 0 80 80" fill="none" xmlns="http://www.w3.org/2000/svg">
<circle cx="40" cy="40" r="40" fill="black"/>
<path d="M56.8827 50.7105C54.644 50.6538 52.9088 50.8811 51.4536 51.506C51.0338 51.6763 50.3621 51.6765 50.3061 52.2162C50.53 52.4435 50.558 52.8129 50.7539 53.1252C51.0901 53.6933 51.6773 54.4603 52.2091 54.8582C52.7967 55.3126 53.3846 55.7671 54.0001 56.1648C55.0916 56.8466 56.3231 57.2442 57.3865 57.9261C58.0024 58.3235 58.6177 58.8352 59.2334 59.2612C59.5413 59.4882 59.737 59.8578 60.129 59.9997V59.9146C59.933 59.6588 59.877 59.2896 59.6812 59.0055C59.4017 58.7214 59.1215 58.4657 58.8416 58.1816C58.0301 57.0739 57.0226 56.108 55.9313 55.3126C55.0358 54.6876 53.0766 53.8355 52.7129 52.7843C52.7129 52.7843 52.6848 52.756 52.6569 52.7276C53.2725 52.6708 54.0001 52.4435 54.588 52.2731C55.5394 52.0172 56.4069 52.0742 57.3865 51.8185C57.8341 51.7049 58.282 51.5628 58.7296 51.4208V51.1652C58.2261 50.6538 57.8623 49.9722 57.3305 49.4892C55.9033 48.239 54.3359 47.0176 52.7129 45.995C51.8453 45.4268 50.7257 45.0575 49.8023 44.5747C49.4667 44.4041 48.9068 44.319 48.7111 44.0349C48.2071 43.41 47.9272 42.5863 47.5635 41.8476C46.7522 40.285 45.9684 38.5523 45.2687 36.9049C44.7652 35.7969 44.4573 34.6889 43.8416 33.6664C40.9591 28.8371 37.8247 25.9112 33.0114 23.0419C31.9758 22.4455 30.7445 22.1898 29.4292 21.8774C28.7298 21.8489 28.0299 21.7922 27.3304 21.7636C26.8825 21.5648 26.4347 21.0251 26.0429 20.7694C24.448 19.7467 20.3339 17.5311 19.1586 20.4571C18.4029 22.3034 20.2781 24.1214 20.9215 25.0591C21.3976 25.7123 22.013 26.4508 22.3489 27.1895C22.5448 27.6722 22.6006 28.1839 22.7966 28.6951C23.2445 29.9447 23.664 31.3369 24.252 32.5018C24.5598 33.0982 24.8955 33.7231 25.2874 34.2629C25.5113 34.5752 25.9029 34.7174 25.9871 35.2287C25.5954 35.7969 25.5672 36.6492 25.3432 37.3593C24.3358 40.5693 24.7278 44.5463 26.1548 46.904C26.6025 47.6139 27.6661 49.1768 29.0933 48.5801C30.3528 48.0688 30.0729 46.4496 30.4364 45.0292C30.5207 44.688 30.4647 44.461 30.6325 44.2338V44.2907C31.0243 45.0859 31.416 45.8531 31.7799 46.6485C32.6475 48.0403 34.1586 49.4892 35.4179 50.4551C36.0898 50.9662 36.6214 51.8469 37.461 52.1594V52.074H37.4049C37.237 51.8183 36.9851 51.7049 36.7613 51.5058C36.2577 50.9948 35.6978 50.3697 35.3061 49.8015C34.1309 48.2106 33.0952 46.4494 32.1717 44.6313C31.724 43.7509 31.332 42.785 30.9684 41.9044C30.8003 41.5632 30.8003 41.0521 30.5205 40.8818C30.1007 41.5067 29.4851 42.0465 29.1773 42.8134C28.6458 44.0349 28.5897 45.5405 28.3938 47.1027C28.2818 47.1314 28.3376 47.1027 28.2816 47.1599C27.3863 46.9323 27.0785 45.995 26.7424 45.1995C25.9028 43.1827 25.7628 39.9443 26.4907 37.615C26.6866 37.0183 27.5263 35.1436 27.1904 34.5754C27.0225 34.0356 26.4626 33.7231 26.1548 33.2971C25.7912 32.7573 25.3992 32.0758 25.1474 31.479C24.4757 29.8882 24.1398 28.1269 23.4123 26.5361C23.0764 25.7974 22.489 25.0307 22.013 24.3488C21.4814 23.5819 20.8937 23.0419 20.4738 22.133C20.3341 21.8206 20.138 21.3092 20.3619 20.9683C20.4179 20.741 20.5297 20.656 20.7537 20.5991C21.1176 20.2865 22.1531 20.6842 22.5167 20.8547C23.5522 21.2805 24.4197 21.6786 25.2874 22.275C25.679 22.5591 26.0989 23.0989 26.6025 23.241H27.1903C28.0859 23.4397 29.0931 23.2978 29.9328 23.5533C31.4162 24.0361 32.7593 24.7464 33.9628 25.5135C37.629 27.8712 40.6511 31.2233 42.6942 35.2287C43.0301 35.8818 43.1698 36.4787 43.4777 37.1602C44.0656 38.5523 44.7932 39.9727 45.3806 41.3362C45.9684 42.6712 46.528 44.0349 47.3676 45.1429C47.7874 45.7392 49.4664 46.0519 50.2221 46.3644C50.7819 46.6199 51.6495 46.8473 52.1531 47.1597C53.1046 47.756 54.056 48.4382 54.9517 49.0913C55.3995 49.4322 56.7986 50.1425 56.8827 50.7105V50.7105Z" fill="#14B8A6"/>
<path d="M28.3375 26.0245C27.8619 26.0245 27.5262 26.0817 27.1903 26.1667V26.2235H27.2463C27.4704 26.6781 27.8619 26.9906 28.1416 27.3882C28.3657 27.8426 28.5614 28.2973 28.7855 28.7519C28.8133 28.7233 28.8413 28.6951 28.8413 28.6951C29.2333 28.4108 29.4291 27.9564 29.4291 27.2746C29.2611 27.0759 29.2331 26.877 29.0932 26.6781C28.9254 26.3938 28.5614 26.252 28.3375 26.0245V26.0245Z" fill="#14B8A6"/>
</svg>
