<svg width="80" height="80" viewBox="0 0 80 80" fill="none" xmlns="http://www.w3.org/2000/svg">
<circle cx="40" cy="40" r="40" fill="black"/>
<path d="M40.2515 17L20 28.4566V51.3699L40.2515 62.8265L60.5031 51.3699V28.4566L40.2515 17Z" fill="black"/>
<path d="M23.6165 50.5794L39.5832 59.611V52.5766L29.6351 47.1042L23.6165 50.5794ZM22.5243 49.5903V30.7021L28.3672 34.0742V46.2144L22.5243 49.5903ZM56.9515 50.5794L40.9848 59.611V52.5766L50.933 47.1042L56.9515 50.5794V50.5794ZM58.0437 49.5903V30.7021L52.2008 34.0742V46.2144L58.0437 49.5903V49.5903ZM57.3601 29.4801L40.9848 20.2155V27.0169L51.4752 32.7872L51.5554 32.833L57.3601 29.4801V29.4801ZM23.2079 29.4801L39.5832 20.2155V27.0169L29.0928 32.7872L29.0126 32.833L23.2079 29.4801V29.4801Z" fill="#8ED6FB"/>
<path d="M40.9847 50.9765L50.7993 45.5805V34.8876L40.9847 40.5548V50.9765ZM39.5832 50.9765L29.7687 45.5805V34.8876L39.5832 40.5548V50.9765ZM50.1348 33.6503L40.2821 28.2313L30.4294 33.6503L40.2821 39.3404L50.1348 33.6503" fill="#1C78C0"/>
</svg>
