<svg width="80" height="80" viewBox="0 0 80 80" fill="none" xmlns="http://www.w3.org/2000/svg">
<circle cx="40" cy="40" r="40" fill="black"/>
<path d="M50.4094 35.4213L50.4131 35.4829L50.5354 35.4714C50.5317 35.4329 50.5465 35.3713 50.5724 35.2942L50.5614 35.1826C50.5094 35.1864 50.4576 35.2673 50.4094 35.4213V35.4213ZM49.2386 32.4943L49.2275 32.3826L49.0533 32.398L49.0645 32.5097L49.2386 32.4943V32.4943ZM45.8411 39.1071C45.8336 39.0031 45.5225 38.5987 44.9074 37.8862C44.8963 37.7553 45.1075 37.5588 45.541 37.3009L46.7785 36.1801C47.0564 35.8141 47.2193 35.2211 47.2675 34.3969L47.2527 34.2082C47.2045 33.6381 46.8081 33.1799 46.056 32.8294C45.6113 32.5175 44.811 32.3441 43.6551 32.3133C42.6992 32.398 41.4505 32.7523 39.913 33.3801C39.4906 33.696 39.0089 34.0117 38.468 34.3275L38.4754 34.4239C38.5087 34.42 38.5605 34.4008 38.6199 34.3584C38.6828 34.3507 38.72 34.3815 38.7236 34.4431L38.8163 34.393L38.8607 34.3892L38.8644 34.4315C38.8681 34.4816 38.5347 34.755 37.8604 35.2442L37.9122 35.3443L37.8677 35.3482L37.7566 35.3058C37.7603 35.3404 37.7121 35.3636 37.6195 35.3713L37.6233 35.4137L37.7306 35.5523C37.6973 35.5562 37.6455 35.5408 37.575 35.5138C37.4194 35.5292 37.2675 35.6139 37.1156 35.7756L37.1786 35.4907C37.4047 34.4778 37.5602 33.5804 37.6418 32.8024L37.6306 32.7523C37.475 32.6483 37.3231 32.502 37.1823 32.3171C37.1861 32.1978 37.1861 32.1284 37.1823 32.113L37.1712 32.0706L37.1268 32.0823C36.6376 32.8448 35.6965 34.1466 34.2998 35.9875C33.2364 37.297 32.688 38.0248 32.6547 38.1712C32.2212 38.6372 32.0137 38.9183 32.0359 39.0147C31.9211 39.0917 31.8729 39.1687 31.8915 39.2534C31.8581 39.2612 31.8358 39.2496 31.8285 39.2149C31.6432 39.5269 31.3691 39.7271 31.0022 39.8157L30.6169 39.9081C30.565 39.9197 30.5391 39.9582 30.5428 40.0237L30.5539 40.0737L30.6984 40.0391L30.7095 40.0815L30.3835 40.2124L29.8055 40.3511L29.5017 40.3703C29.4572 40.4166 29.7425 40.3664 29.6314 40.3934L29.2534 40.4859C29.0238 40.5398 28.8978 40.5205 28.8755 40.4243L28.831 40.4358C28.8385 40.4782 28.8422 40.5089 28.8348 40.5359L28.8125 40.4397L28.5087 40.5128C28.4865 40.3664 28.0752 39.835 27.2786 38.9183C27.2638 38.7412 27.5454 38.4831 28.1197 38.1481L29.7425 36.6653C30.1056 36.1801 30.3205 35.4021 30.3909 34.3314L30.3687 34.0811C30.3057 33.3263 29.7796 32.7177 28.7903 32.2479C28.2049 31.8358 27.1527 31.6162 25.6336 31.5816C24.3738 31.6932 22.7288 32.1593 20.7058 32.9719C20.15 33.3916 19.5165 33.8076 18.8051 34.2197L18.8162 34.3507C18.8644 34.3468 18.9274 34.3199 19.0052 34.2737C19.0867 34.2659 19.1312 34.3044 19.1386 34.3815L19.2646 34.3083L19.3276 34.3044L19.3312 34.366C19.3349 34.4277 18.894 34.7859 18.0011 35.4406L18.0715 35.5562L18.0085 35.56L17.8715 35.5099C17.8752 35.5484 17.8122 35.5754 17.6825 35.5869L17.6899 35.6563L17.838 35.8258C17.7899 35.8296 17.7232 35.8141 17.6381 35.7834C17.349 35.8103 17.0674 36.026 16.7895 36.4342L16.86 36.5498C17.1008 36.3187 17.2415 36.2032 17.2823 36.1993L17.2972 36.3881C17.2564 36.3918 17.1934 36.4188 17.1082 36.4651L17.2601 36.7038C17.5471 36.3815 17.872 36.0981 18.2271 35.8604C18.4012 35.9066 18.4939 35.9644 18.4976 36.026L18.631 36.0145C19.5869 35.2788 20.5317 34.7474 21.4691 34.42L21.4802 34.5509C21.306 34.8205 21.1875 34.9592 21.1245 34.9669C21.1319 35.0593 21.1616 35.1402 21.2172 35.2096C21.2319 35.3752 20.8058 36.4921 19.9426 38.5564C17.9826 43.3551 16.3376 46.906 15 49.2014C15.0037 49.2477 15.0297 49.3093 15.0778 49.3863C15.4076 49.3054 15.615 49.2208 15.704 49.1398L15.7744 49.1322L15.7855 49.263L15.9077 49.2515L16.0337 49.1784C16.0374 49.2169 16.0782 49.2362 16.1634 49.2284L16.1745 49.3594C16.1856 49.4865 16.1152 49.679 15.967 49.9447C15.8336 50.1027 15.6891 50.4339 15.5372 50.9385L15.541 51L15.6632 50.9885C16.1968 50.3684 16.6006 49.7599 16.8785 49.1668C18.4347 48.6931 19.6202 48.227 20.4428 47.7688C21.269 47.6956 21.8988 47.4683 22.3287 47.0948L22.3212 47.0255L22.01 47.1218L21.9396 47.1295L21.9322 47.0601C22.5398 46.9639 22.9585 46.8252 23.192 46.6327C24.3738 45.6852 25.2667 45.0151 25.8707 44.6184C27.1119 43.671 27.9196 42.7466 28.2865 41.8493C28.3531 41.8338 28.4198 41.8184 28.4939 41.7992C28.668 41.7915 28.7644 41.7877 28.7903 41.7799C28.7829 41.7453 28.7977 41.726 28.831 41.7183C29.1089 41.6875 28.9756 41.7375 29.1534 41.6952L29.6203 41.5836L29.6981 41.5642L29.661 41.5873C29.7129 41.5951 29.7684 41.5912 29.8314 41.5758L29.8647 41.7183L27.7418 45.2268L27.2713 45.8393L27.0415 46.6403L27.086 46.6288L27.3156 46.5287L27.2416 46.8406L27.2638 46.933L27.3268 47.0139C27.2971 47.0216 27.2861 47.0409 27.2934 47.0755L27.3046 47.1256L27.4009 47.1025C27.5417 46.9754 27.601 46.8599 27.5787 46.7559C27.7306 46.7828 27.8306 46.7944 27.8826 46.779L27.8936 46.829C27.801 46.8522 27.7528 46.9292 27.7455 47.0601L27.7566 47.1101L27.8085 47.0986C28.5791 46.2244 30.4687 43.2319 31.9841 41.2022C31.9359 40.9827 32.7251 40.6784 34.3554 40.2856L34.4072 40.2741C34.4665 40.5398 34.3406 41.183 34.0293 42.2036C33.8292 42.8198 33.7329 43.1587 33.7477 43.2126C33.4883 44.0329 33.366 44.4759 33.3809 44.5451L32.8029 46.5132C32.4286 47.5223 32.1434 48.5814 31.9433 49.6983C31.9766 49.6906 32.0286 49.6945 32.1027 49.7137L32.1842 49.6405C32.1915 49.6752 32.2138 49.6867 32.2472 49.679L32.2138 49.5365L32.4658 49.5289C32.5398 49.5096 32.6029 49.4133 32.6547 49.2362C32.6436 48.9704 32.6954 48.8279 32.8103 48.7971C32.9659 48.1655 33.0623 47.8497 33.0956 47.8381C33.2401 47.2104 33.3475 46.8522 33.418 46.7635C33.6366 45.9471 33.7959 45.5273 33.8996 45.5003L33.9219 45.6004L33.7626 46.028C33.4846 47.3105 33.2031 48.3234 32.9178 49.0667L32.9993 49.4364L33.0511 49.4249C33.7403 47.8843 34.7333 44.834 36.0263 40.2741C36.0634 39.8735 36.2487 39.5615 36.5784 39.342L36.5043 39.2612L36.4931 39.2188C36.6414 39.1841 36.7451 39.1225 36.8044 39.0378C36.797 39.0031 36.6673 38.9531 36.4153 38.8837L37.0601 36.0106C37.2009 35.8796 37.2824 35.8104 37.3082 35.8104L37.3194 35.9566C37.2861 35.9605 37.2342 35.9798 37.1749 36.0221L37.2972 36.2032C37.5195 35.9529 37.7603 35.7372 38.0233 35.5562C38.1568 35.5947 38.2234 35.6409 38.2308 35.687L38.3272 35.6794C39.0607 35.121 39.7795 34.7204 40.4873 34.4778L40.4946 34.574C40.365 34.7781 40.276 34.8821 40.2279 34.886C40.2353 34.9553 40.2538 35.017 40.2872 35.0708C40.2983 35.198 39.9796 36.0452 39.3275 37.6166C37.8381 41.2561 36.5894 43.9482 35.5743 45.6968C35.578 45.7314 35.6002 45.7776 35.641 45.8393C35.8893 45.7776 36.0486 45.7121 36.1116 45.6505L36.156 45.6467L36.1634 45.7429L36.2672 45.7353L36.3598 45.6852C36.3635 45.7121 36.3968 45.7237 36.4598 45.7199L36.4673 45.8239C36.4746 45.9163 36.4228 46.0626 36.3079 46.2628C36.2005 46.3823 36.0893 46.6327 35.9708 47.0139L35.9744 47.064L36.0708 47.0563C36.4746 46.5864 36.7822 46.1242 36.9933 45.6698C38.1753 45.3078 39.0756 44.9572 39.698 44.6106C40.3317 44.5529 40.8095 44.3834 41.1356 44.0984L41.1319 44.0483L40.891 44.1216L40.8392 44.1254L40.8355 44.0753C41.2949 44.006 41.6173 43.8982 41.7914 43.7557C42.688 43.0393 43.3661 42.5271 43.8255 42.2266C45.2557 41.1445 45.9226 40.1046 45.8411 39.1071V39.1071ZM45.5965 39.1726L45.6298 39.5615C45.5855 39.6579 45.5373 39.7079 45.4928 39.7117L45.4372 39.0493C45.541 39.0878 45.5928 39.1263 45.5965 39.1726V39.1726ZM17.5417 36.0376L17.4787 36.0414L17.4676 35.922L17.7232 35.8989L17.7269 35.9605C17.6862 35.9644 17.6232 35.9875 17.5417 36.0376V36.0376ZM16.2931 49.0204C16.1449 48.9511 16.0115 48.9242 15.8966 48.9357L15.8818 48.747C15.8744 48.6738 15.9152 48.6237 16.0041 48.6045C16.0855 48.5968 16.1337 48.6585 16.1412 48.7817C16.3561 48.5082 16.4746 48.3696 16.4969 48.3657L16.6339 48.4235C16.5895 48.8086 16.4746 49.0051 16.2931 49.0204V49.0204ZM29.6351 34.5124C29.5721 34.5201 29.4461 34.316 29.2646 33.9116L29.2534 33.7922C29.372 33.7807 29.4943 33.9809 29.6239 34.393L29.6351 34.5124V34.5124ZM29.4572 33.0759L29.4053 33.203L27.5935 32.4172C28.8014 32.4596 29.4239 32.6792 29.4572 33.0759ZM21.8062 39.9043L21.5506 39.9275L21.5395 39.808L21.7951 39.7849L21.8062 39.9043ZM21.5987 35.8026L21.6617 35.7988L21.6766 35.9875C21.6173 35.9914 21.5395 36.0837 21.4431 36.261L21.432 36.13C21.5469 35.9875 21.6061 35.8796 21.5987 35.8026V35.8026ZM21.0615 37.1198L21.0837 37.3701L21.0208 37.374L20.9986 37.1236L21.0615 37.1198ZM20.78 37.5897L20.9022 37.5781C20.8911 37.7861 20.8355 37.8978 20.7355 37.9054L20.6725 37.9093C20.7503 37.7707 20.7873 37.6628 20.78 37.5897V37.5897ZM20.5687 38.2444L20.6392 38.2367L20.6428 38.2983L20.5279 38.4986L20.4057 38.5101L20.402 38.4485C20.5243 38.437 20.5799 38.3715 20.5687 38.2444V38.2444ZM20.3613 38.8337L20.3242 39.1494L20.2612 39.1533L20.2353 38.8413L20.3613 38.8337V38.8337ZM18.2827 44.9766C18.2012 45.4079 18.1123 45.6274 18.0196 45.6351L18.016 45.5735C17.9937 45.3617 18.0826 45.1614 18.2827 44.9766V44.9766ZM17.901 45.8354L17.9048 45.897C17.9122 45.9817 17.8752 46.0319 17.7937 46.0356L17.7899 45.974C17.7825 45.9009 17.8195 45.8546 17.901 45.8354ZM17.7899 47.6186L17.9826 47.5993L17.99 47.6687C17.9418 47.6725 17.8788 47.6994 17.801 47.7457L17.6787 47.7572C17.6714 47.6917 17.7121 47.6417 17.7899 47.6186V47.6186ZM23.2734 45.8585C22.1916 46.4131 21.5543 46.7905 21.3653 46.9869C20.1945 47.4106 19.6128 47.6725 19.624 47.7764C18.5828 48.204 17.8973 48.5197 17.5676 48.7162C17.4898 48.7239 17.3787 48.6931 17.2305 48.6237C17.2119 48.4042 17.3083 48.227 17.5121 48.0845C17.6936 48.0692 17.8677 48.0962 18.0345 48.1693C18.2271 48.0653 18.5643 47.9498 19.0422 47.8266L19.0312 47.6956L18.6458 47.7302C18.6939 47.6609 19.0645 47.48 19.761 47.1872L19.9537 47.168L19.9574 47.2296C19.6277 47.2604 19.4461 47.3605 19.4054 47.5416C19.4127 47.6224 19.4572 47.6571 19.5387 47.6493C19.787 47.4876 19.9092 47.3913 19.9056 47.3644C20.3761 47.272 21.6766 46.5633 23.807 45.2423L23.8181 45.3617C23.8218 45.4194 23.6402 45.5812 23.2734 45.8585V45.8585ZM20.0056 46.9754C20.3168 46.9484 20.5836 46.8175 20.8058 46.5903C20.8948 46.5826 20.943 46.6172 20.9466 46.6981C20.7948 46.7135 20.5021 46.8444 20.076 47.0986L20.013 47.1025L20.0056 46.9754ZM25.2779 42.7658L23.644 44.1138C22.4287 44.9419 21.7766 45.3578 21.6802 45.3656C19.7462 46.4708 18.542 47.0448 18.0753 47.0871L18.0048 47.0948C18.0641 46.8675 18.9237 45.0382 20.5909 41.5951C21.3245 41.5296 22.4805 41.1752 24.0552 40.5283L24.4406 40.4936C25.2372 40.4204 25.8337 40.5822 26.2264 40.9673L26.2486 41.2176C25.956 42.0996 25.6299 42.6157 25.2779 42.7658V42.7658ZM22.0841 40.898L22.3472 40.8749L22.3509 40.9365L22.0878 40.9596L22.0841 40.898ZM25.7781 40.2471L25.9707 40.2278C26.1486 40.3164 26.2412 40.3934 26.2486 40.4628L26.2523 40.5244C26.0819 40.5398 25.9225 40.4473 25.7781 40.2471V40.2471ZM26.3005 37.1545C26.1301 37.3662 25.6632 37.7283 24.9 38.2367C24.648 38.2598 23.7106 38.6372 22.0878 39.3767C22.0067 39.3381 21.9173 39.3222 21.8285 39.3304L21.8174 39.2111C21.7989 38.9684 21.9025 38.6642 22.1323 38.2945C22.2582 37.6012 22.3954 37.2045 22.5473 37.1083L23.8996 33.9463C23.8848 33.7499 24.1738 33.5996 24.7665 33.4956L24.9593 33.4764L24.9741 33.6575C25.5558 33.565 25.9188 33.5111 26.0596 33.4995C27.1342 33.4033 27.6936 33.6305 27.738 34.1735L27.8603 34.1619L27.8344 33.8423L27.9678 33.8307C28.2827 34.0117 28.4531 34.2313 28.4754 34.4893C28.4902 34.6665 28.3976 34.886 28.2012 35.1479C28.1197 35.1556 28.0715 35.094 28.0641 34.9707L27.9307 34.9823L27.9011 35.3674C27.3564 36.2147 26.96 36.6499 26.7155 36.6731C26.4932 36.9927 26.3561 37.1506 26.3005 37.1545ZM27.1305 39.369C27.0193 39.2919 26.9304 39.2573 26.8637 39.2612L26.8489 39.0724L26.9711 39.0608L27.2416 39.2265C27.2527 39.315 27.2156 39.3613 27.1305 39.369V39.369ZM27.9901 40.4281C28.1086 40.4782 28.179 40.532 28.1938 40.5822L28.1345 40.5975L28.1382 40.6014C28.1271 40.6014 28.1122 40.6053 28.1012 40.6092L28.0122 40.6823L27.9901 40.4281V40.4281ZM28.0715 40.9596L28.0604 40.9095L28.216 40.871L28.2272 40.9211L28.0715 40.9596ZM28.4458 41.3948C28.6051 41.3678 28.6829 41.3563 28.9793 41.287L28.9904 41.337L28.4273 41.4718C28.4346 41.4448 28.442 41.4179 28.4458 41.3948ZM28.9941 41.6374C28.757 41.6605 28.8088 41.6297 28.4309 41.7183L28.4198 41.6682L28.894 41.5103L29.1201 41.4564L29.1423 41.5488C29.0386 41.5719 29.1126 41.5719 28.9941 41.6374ZM29.4943 41.5142C29.4387 41.5296 29.3942 41.5027 29.3683 41.4372L29.5128 41.4025C29.5758 41.3871 29.6166 41.4141 29.6314 41.4796L29.4943 41.5142V41.5142ZM30.8503 39.9967L30.8392 39.9467L31.0727 39.8889L31.0949 39.9813L30.8503 39.9967ZM32.299 49.2323C32.3138 49.1629 32.3175 49.1129 32.3101 49.0782L32.362 49.0667C32.425 49.0513 32.4621 49.0744 32.4768 49.136L32.488 49.1861L32.299 49.2323V49.2323ZM33.3142 40.3934L33.2104 40.3742C33.0438 40.4435 32.903 40.4936 32.788 40.5205L32.6917 40.5437C32.6362 40.559 32.5917 40.5359 32.5694 40.4743L33.2475 40.3126L33.4698 40.2047L33.544 40.2933C33.4365 40.3164 33.3587 40.3511 33.3142 40.3934V40.3934ZM33.8366 40.2201L33.8255 40.1701C33.8589 40.1623 33.9033 40.1354 33.9515 40.0853L34.4332 39.9697L34.4442 40.0198C34.1886 40.0853 33.9848 40.1508 33.8366 40.2201ZM33.9107 39.2072C33.8774 39.2149 33.8329 39.2457 33.7774 39.2919C33.7699 39.2573 33.7033 39.2573 33.5773 39.2881C33.555 39.1918 33.9107 39.0571 34.648 38.8798L34.7518 38.8567L34.774 38.9492C34.2553 39.1071 33.9663 39.1957 33.9107 39.2072ZM35.2075 37.7514C35.1557 38.3638 34.9481 38.7104 34.5813 38.799L34.5702 38.749L34.2441 38.8798L34.0997 38.9146C34.0255 38.9338 33.9589 38.9299 33.8996 38.9107L33.87 38.7758C33.8589 38.7258 34.3294 38.0479 35.2853 36.7462L35.3964 36.7654C35.4372 36.9426 35.3743 37.27 35.2075 37.7514ZM37.501 35.7102L37.4565 35.714L37.449 35.6178L37.6418 35.5985L37.6454 35.6485C37.6121 35.6563 37.564 35.6755 37.501 35.7102V35.7102ZM36.5561 45.5735C36.445 45.5195 36.345 45.4964 36.2597 45.5042L36.2487 45.3578C36.2449 45.3078 36.2745 45.2731 36.3375 45.2538C36.4005 45.2462 36.4376 45.2923 36.445 45.3924C36.6043 45.1807 36.6932 45.0728 36.7117 45.0728L36.8118 45.1152C36.7747 45.4079 36.6896 45.5619 36.5561 45.5735V45.5735ZM46.6858 34.5586C46.6377 34.5625 46.545 34.4084 46.4006 34.0964L46.3931 34.0002C46.4857 33.9925 46.5821 34.1427 46.6784 34.4508L46.6858 34.5586V34.5586ZM46.5524 33.4571L46.508 33.5573L45.1371 32.9603C46.0522 32.9912 46.5265 33.1568 46.5524 33.4571ZM40.7392 38.645L40.5465 38.6642L40.5391 38.5679L40.7317 38.5486L40.7392 38.645ZM40.5799 35.5292L40.6317 35.5253L40.6429 35.6717C40.5947 35.6755 40.5354 35.7449 40.465 35.8796L40.4576 35.7834C40.5428 35.6717 40.5836 35.5869 40.5799 35.5292V35.5292ZM40.176 36.5306L40.1909 36.7193L40.1389 36.7232L40.1241 36.5344L40.176 36.5306ZM39.9574 36.8887L40.0537 36.881C40.0426 37.0428 40.0019 37.1275 39.9315 37.1351L39.8796 37.139C39.9351 37.0313 39.9611 36.9465 39.9574 36.8887V36.8887ZM39.8018 37.3817L39.8463 37.3779L39.85 37.4279L39.7647 37.582L39.6684 37.5897L39.6647 37.5396C39.7647 37.5319 39.8092 37.478 39.8018 37.3817V37.3817ZM39.6462 37.8284L39.6129 38.0749L39.5684 38.0788L39.5499 37.8362L39.6462 37.8284ZM38.0641 42.5001C38.0012 42.8237 37.9344 42.9893 37.864 42.9969L37.8604 42.9546C37.8492 42.7928 37.9159 42.6387 38.0641 42.5001ZM37.7714 43.151L37.7751 43.1934C37.7826 43.2627 37.7529 43.3012 37.6862 43.305L37.6825 43.255C37.6788 43.2049 37.7084 43.1703 37.7714 43.151V43.151ZM37.6899 44.5066L37.8381 44.4951L37.8417 44.5451C37.8084 44.549 37.7566 44.5683 37.6973 44.603L37.601 44.6106C37.5973 44.5568 37.6269 44.5221 37.6899 44.5066V44.5066ZM41.8507 43.1703C41.0356 43.5901 40.5502 43.8751 40.3983 44.0214C39.5091 44.3449 39.0682 44.5451 39.0756 44.626C38.2864 44.9535 37.7677 45.1883 37.5232 45.3386C37.4639 45.3424 37.3787 45.3193 37.2675 45.2654C37.2527 45.0998 37.3268 44.965 37.4825 44.8649C37.6233 44.8533 37.7566 44.8726 37.8789 44.9265C38.027 44.8495 38.2827 44.7647 38.6458 44.6684L38.6384 44.5721L38.3383 44.5991C38.3754 44.5451 38.6606 44.4065 39.1905 44.1832L39.3386 44.1716L39.3423 44.2139C39.0904 44.2371 38.9496 44.3142 38.9199 44.4528C38.9237 44.5144 38.9607 44.5451 39.0237 44.5375C39.209 44.4104 39.2979 44.3372 39.2979 44.3142C39.6536 44.2487 40.6391 43.7095 42.2583 42.7004L42.2656 42.7967C42.2656 42.8352 42.1286 42.9584 41.8507 43.1703V43.1703ZM39.3683 44.0176C39.6091 43.9944 39.813 43.8982 39.9833 43.7287C40.0463 43.7248 40.0834 43.7518 40.0871 43.8135C39.9759 43.825 39.7573 43.9213 39.4276 44.1062L39.3758 44.1099L39.3683 44.0176V44.0176ZM43.3772 40.8171L42.1435 41.8493C41.2209 42.477 40.7207 42.7928 40.6429 42.8006C39.1757 43.6401 38.2642 44.0753 37.9048 44.1062L37.8529 44.1099C37.8974 43.9367 38.5532 42.5463 39.8203 39.9351C40.3723 39.8851 41.2468 39.6116 42.4472 39.1187L42.7473 39.0917C43.3513 39.0378 43.8033 39.161 44.0997 39.4575L44.1146 39.6463C43.8885 40.3087 43.6439 40.6977 43.3772 40.8171V40.8171ZM40.954 39.3998L41.1468 39.3805L41.1504 39.4306L40.9578 39.4499L40.954 39.3998V39.3998ZM43.7588 38.903L43.907 38.8914C44.0441 38.9607 44.1146 39.0223 44.1182 39.0724L44.1219 39.1148C43.9923 39.1263 43.87 39.0571 43.7588 38.903V38.903ZM44.1479 36.5575C44.0181 36.7193 43.6662 36.9965 43.0919 37.3817C42.8993 37.401 42.1878 37.6859 40.9578 38.2405C40.8985 38.2174 40.8318 38.2098 40.7614 38.2135L40.754 38.1173C40.7392 37.9324 40.817 37.7013 40.9875 37.4202C41.0838 36.8887 41.1912 36.5922 41.3024 36.5228L42.3361 34.1196C42.3249 33.9771 42.5435 33.8616 42.9882 33.773L43.1364 33.7615L43.1475 33.9077C43.5847 33.8346 43.8588 33.7922 43.97 33.7807C44.7851 33.7075 45.2112 33.877 45.2446 34.2929L45.3409 34.2852L45.3224 34.0541L45.4187 34.0464C45.6558 34.1812 45.7818 34.3429 45.7966 34.5355C45.8077 34.6741 45.7411 34.8436 45.6003 35.0401C45.5373 35.0477 45.5002 35.0016 45.4928 34.9014L45.3965 34.9091L45.3669 35.198C44.9555 35.8489 44.6554 36.1839 44.4665 36.1993C44.2997 36.4342 44.196 36.5537 44.1479 36.5575V36.5575ZM44.5813 38.1597L44.5703 38.0133L44.6666 38.0057L44.874 38.1365C44.8777 38.1982 44.8481 38.2329 44.7851 38.2405C44.6962 38.1828 44.6295 38.1558 44.5813 38.1597V38.1597ZM27.3342 47.5146L27.2378 47.5377L27.1563 47.6108C27.1712 47.6725 27.2083 47.6956 27.2713 47.6802C27.3342 47.6648 27.3601 47.6263 27.3453 47.5647L27.3342 47.5146V47.5146ZM26.9674 46.7559L26.9785 46.8059C27.0415 46.7905 27.0675 46.752 27.0527 46.6904L27.0415 46.6403C26.9822 46.6557 26.9562 46.6943 26.9674 46.7559V46.7559ZM29.5906 41.6336L29.661 41.5873C29.6461 41.5873 29.6351 41.5834 29.6239 41.5797C29.598 41.5873 29.5869 41.6066 29.5906 41.6336ZM29.5758 40.3048L29.6869 40.2779L29.6647 40.1777L29.5536 40.2047L29.5758 40.3048V40.3048ZM55.7596 44.1947L55.5076 44.1639L55.4631 44.264L55.4668 44.3142L56.9674 44.1832L56.96 44.0869L55.7596 44.1947ZM57.1305 44.0753L57.1378 44.1716H57.1526L57.1453 44.0753H57.1305ZM63.4253 43.2203L63.4328 43.3166L63.5958 43.3474L63.5884 43.2511L63.4253 43.2203V43.2203ZM63.1957 43.2395C62.0694 43.5015 61.9286 43.4552 61.6914 43.4745L61.6988 43.5707L61.8026 43.5631L61.8581 43.5592L61.8433 43.5477L61.9656 43.4976C63.0808 43.3705 63.2105 43.4168 63.1994 43.2858L63.1957 43.2395ZM56.4339 41.5373L56.3339 41.5027C56.2524 41.7298 56.2116 41.8647 56.2153 41.9032L56.219 41.9455C56.2968 41.9417 56.3672 41.803 56.4339 41.5373ZM55.0779 40.7786L55.0741 40.7285L55.0223 40.7324L54.9296 40.794L54.9815 40.8864C55.0519 40.8787 55.0852 40.844 55.0779 40.7786V40.7786ZM58.0234 43.9443L58.0159 43.8481L57.9864 43.852L57.9937 43.9482L58.0234 43.9443V43.9443ZM64.1368 42.5117L64.2071 42.504C64.2479 42.5001 64.2664 42.4655 64.2627 42.4039L64.2219 42.3114C63.9663 42.3345 63.8477 42.3461 63.6403 42.4655L63.6366 42.4154L63.329 42.4462C63.3217 42.3499 63.2957 42.2999 63.2549 42.3037L63.0956 42.3191C62.9103 42.3345 62.8215 42.3269 62.7288 42.4C62.7252 42.3654 62.714 42.3499 62.6955 42.3499L62.5176 42.3654L62.4139 42.427C62.4101 42.3922 62.3991 42.3769 62.3805 42.3769L62.3175 42.4346L62.3138 42.3846L62.0656 42.3654L62.0064 42.3692L62.0137 42.4655L62.1397 42.5001L62.2583 42.4925C62.299 42.5193 62.3435 42.5271 62.3953 42.5232L62.4991 42.4693L62.5028 42.5117C61.9211 42.6618 61.9248 42.6349 61.5247 42.7042C61.4802 42.6734 61.4469 42.6581 61.4246 42.6618L61.4172 42.6696C61.3728 42.6657 61.3468 42.6349 61.3431 42.5848L61.5506 42.5578C61.5654 42.5578 61.5765 42.5733 61.6913 42.5964C61.8581 42.5117 61.8656 42.477 61.9544 42.4693L61.9471 42.373C61.3764 42.4886 61.6062 42.4115 60.8911 42.477L60.8577 42.4808L60.8504 42.3846C61.7692 42.269 61.4617 42.3345 61.7766 42.2421C61.7803 42.2767 61.7915 42.2921 61.81 42.2921C61.8438 42.2563 61.8881 42.2332 61.9359 42.2266L61.9989 42.2229C62.3213 42.1959 62.4288 42.2614 63.066 42.0765L63.0697 42.1189L63.1734 42.0649L63.2697 42.0573C63.2624 41.9609 63.4032 41.9455 63.4513 41.9417L63.4439 41.8377C62.325 42.0726 62.0322 42.0071 61.721 42.0996L61.7173 42.0573C61.4246 42.1111 61.4136 42.088 61.3394 42.0919C61.3171 42.0958 61.2838 42.115 61.2468 42.1535C61.2431 42.1189 61.232 42.1034 61.2098 42.1034C61.1986 42.1034 61.195 42.1073 61.1912 42.1073L60.2427 42.269C60.2391 42.2421 60.2279 42.2266 60.2056 42.2305C59.7129 42.3384 59.8462 42.3576 59.1867 42.4192C59.1571 42.4231 59.1164 42.4385 59.0645 42.4731C59.0608 42.4462 59.0459 42.4308 59.0126 42.4346L58.6087 42.4693L58.3383 42.5386C58.3346 42.5117 58.3198 42.4962 58.2865 42.5001C58.1345 42.5425 58.0011 42.5695 57.8937 42.5771H57.8863C57.8196 42.5848 57.9196 42.5578 57.8678 42.5348L57.7863 42.5848C57.6677 42.5964 57.7307 42.5771 57.3231 42.581C56.608 42.6734 56.6858 42.685 56.608 42.6888L56.3412 42.6696C56.345 42.6966 56.3302 42.7158 56.3005 42.7158C55.9967 42.6734 55.8411 42.6233 55.8374 42.5656C55.8782 42.2652 55.9485 42.1111 56.0486 42.1034L56.1005 42.0996L56.056 42.1997L56.1078 42.1959C56.2042 42.1419 56.2486 42.0919 56.2449 42.0456L56.2376 41.9417L56.1412 41.9494L56.1338 41.853C56.1264 41.7799 56.1375 41.7144 56.1634 41.6605L56.382 41.2946L56.3894 41.391L56.4932 41.3832L56.4858 41.287L56.4265 41.1984C56.5043 41.129 56.5636 41.0905 56.6118 41.0866L56.608 41.0366L56.4672 41.0481L56.4562 40.9018C56.7378 40.2933 56.8711 39.939 56.8637 39.8389L56.9637 39.8812C57.0267 39.8774 57.0563 39.8389 57.0527 39.7695L56.9563 39.7772L56.9526 39.7349C56.9458 39.6645 56.9586 39.5937 56.9897 39.5308C57.1416 39.3652 57.212 39.1995 57.1971 39.0262C57.2268 39.0223 57.2416 39.0378 57.2453 39.0724C57.375 38.9954 57.4751 38.7912 57.5492 38.4524C57.7788 38.021 58.1049 37.1583 58.5309 35.8681C59.3461 33.5881 59.3127 33.3455 59.4276 32.8063L59.3313 32.814C59.3387 32.8833 59.3239 32.9488 59.2942 33.0104C59.2275 32.9834 59.1757 32.968 59.1386 32.9719L59.1349 32.9296C59.1201 32.7331 59.1979 32.4982 59.3757 32.2209L59.4202 32.217L59.5017 32.5482L59.5981 32.5406C59.5943 32.5175 59.6203 32.3865 59.6721 32.1439C59.6684 32.0938 59.6314 32.063 59.5573 32.0591L59.4647 32.1208C59.4573 32.0514 59.461 31.8704 59.4721 31.5816L59.4238 31.5854C59.3424 31.5007 59.3017 31.4313 59.2979 31.3736L58.7681 31.4275C58.7644 31.389 58.7459 31.3312 58.7088 31.258C58.7051 31.208 58.8237 31.1579 59.0682 31.1079L59.1757 31.1502L59.2757 31.0886C59.2794 31.1232 59.2979 31.1386 59.335 31.1347L59.435 31.0731C59.4387 31.1079 59.4573 31.1232 59.4943 31.1194L59.5425 31.1155L59.5351 31.0039C59.461 31.0115 59.2646 31.0115 58.9533 31L58.8533 31.0694L58.8496 31.0077C56.3635 31.2195 54.9519 31.339 54.6147 31.3736C54.5702 31.3775 54.3961 31.3736 54.0886 31.3658C54.0923 31.4082 54.0552 31.4313 53.9811 31.4391L53.8737 31.389L53.5106 31.4853C53.4254 31.493 53.2809 31.4891 53.0808 31.466C53.0252 31.5122 52.9585 31.5392 52.877 31.5469C52.8326 31.5507 53.4069 31.5161 53.9404 31.4776C53.8848 31.5238 53.7996 31.5507 53.681 31.5623C53.5995 31.57 53.5292 31.5584 53.4699 31.5238C53.3884 31.5623 53.1253 31.6239 52.6844 31.7163L52.577 31.6739L50.843 31.9513C50.7763 31.9167 50.6985 31.905 50.6095 31.9128C50.5169 31.9204 50.3613 31.9552 50.1464 32.0168L49.3091 32.3787L49.372 32.4866C49.4127 32.4827 49.472 32.4596 49.5425 32.4172L49.8389 32.4442L49.8018 32.7331C49.5277 32.8602 49.3683 33.0489 49.3239 33.2877C48.9126 33.4764 48.7088 33.6112 48.7088 33.6921L48.7126 33.7421L48.7755 33.7383L48.8867 33.6767L49.0163 33.8385L49.0348 34.0618C49.0423 34.1312 48.3494 35.6447 46.9637 38.6026C45.7633 41.4526 45.1334 43.0124 45.0741 43.2935C44.6629 43.4129 44.4257 43.5862 44.3553 43.8173C44.3627 43.8905 44.485 43.9406 44.7221 43.9598L44.7332 44.0714L44.6258 44.2563L44.6443 44.4798C44.6554 44.5953 44.9555 44.6839 45.5447 44.7455C45.541 44.707 45.5595 44.6839 45.6003 44.68C45.6113 44.8186 45.5743 45.0882 45.489 45.4888L45.552 45.4849C45.7966 45.1383 45.9114 44.8995 45.9004 44.7686L45.9522 44.7647C46.0115 44.7609 46.0745 44.8302 46.1486 44.9804C46.0745 45.0112 45.8151 45.6235 45.3705 46.8213L45.4335 46.9292L45.4965 46.9253C46.0412 45.4927 46.3821 44.6992 46.5228 44.549C47.2379 44.4835 48.4753 44.3527 50.2316 44.1562L50.3428 44.0868C50.3464 44.1254 50.3686 44.1447 50.4094 44.1408L50.5243 44.1292L50.6355 44.0599C50.6392 44.0984 50.6614 44.1177 50.7022 44.1138L52.0323 43.9944C52.3842 43.9636 52.551 43.852 52.5361 43.6632C52.5325 43.6131 52.7399 43.5554 53.1586 43.4937C53.1993 43.4899 53.2586 43.5015 53.3401 43.5284C53.3364 43.4937 53.5477 43.4591 53.9701 43.4206C53.9811 43.1895 54.0515 43.0663 54.1775 43.0547L54.1664 42.943C54.0479 42.9546 53.9144 42.9854 53.7588 43.0393C53.4809 43.0239 53.3031 43.0008 53.229 42.9738C53.1549 43.0162 53.0993 43.0393 53.0585 43.0432L52.1323 43.0739L52.0211 43.1355C52.0174 43.1009 51.9952 43.0855 51.9545 43.0894L51.9026 43.0932L51.784 43.1549C51.7803 43.1202 51.684 43.0932 51.4913 43.0663L51.3728 43.1394L51.1431 43.1587L51.1394 43.097C52.3324 42.9623 52.9215 42.7928 52.9067 42.5926C52.9845 42.5848 53.0252 42.6233 53.0326 42.7042L53.3809 42.6118L53.3698 42.5001L50.5132 42.581C50.5169 42.6195 50.4984 42.6426 50.4576 42.6465L50.1093 42.6157C50.0204 42.6233 49.9463 42.6503 49.8871 42.6966L49.7573 42.6465C49.3979 42.6773 49.1311 42.7235 48.9533 42.7813C48.7088 42.7621 48.4383 42.7658 48.1382 42.7928L47.4973 42.8506L47.2009 42.8159C47.186 42.6195 47.5528 41.6528 48.3087 39.9197C48.5273 39.3343 48.7274 38.9684 48.92 38.8298C48.9607 38.826 49.02 38.8413 49.1015 38.876L49.5573 38.7142L49.7906 38.7527C50.1835 38.7181 50.6392 38.6026 51.1616 38.4023C51.2912 38.3908 51.3876 38.3985 51.458 38.4293L51.8062 38.3445L52.8437 38.252C53.2846 38.2135 53.7625 38.1134 54.2813 37.9478L54.2701 37.8362C54.0775 37.8554 53.9774 37.8207 53.9701 37.7398C53.9589 37.5897 53.8181 37.528 53.5477 37.5511L53.5365 37.4395L53.8218 37.3547L54.5702 37.2892L54.5591 37.1776C54.5295 37.1814 54.3776 37.1776 54.096 37.166L54.0849 37.0466L54.3739 37.0196C54.4517 37.012 54.4851 36.9734 54.4776 36.8964C54.0886 36.9079 53.8922 36.8887 53.8885 36.8348C51.1764 36.9734 49.8166 37.0004 49.8093 36.9118C49.7685 36.9157 49.7129 36.9426 49.6388 36.9889L49.5684 36.8733C50.2871 35.2866 50.7095 34.4854 50.8318 34.4739C50.8355 34.5355 50.8058 34.6356 50.7428 34.7705L50.7466 34.8205L50.8615 34.809C51.1467 34.1003 51.3876 33.7345 51.5876 33.7191C52.4398 33.642 51.4691 33.5842 53.292 33.2877C53.3661 33.3224 53.4179 33.3378 53.455 33.3339C54.1701 33.1837 55.1667 33.0258 56.445 32.8641L56.4376 32.7523L55.7559 32.8178L55.7484 32.7061C55.83 32.6985 55.8967 32.6715 55.9522 32.6252L55.956 32.6868C55.993 32.6831 56.0448 32.6561 56.1116 32.6098C56.2301 32.5983 56.319 32.6098 56.382 32.6445C56.6191 32.5791 56.8118 32.5405 56.9526 32.5251L57.3787 32.4827C57.4824 32.4135 57.5306 32.3519 57.5269 32.294L57.5232 32.244C57.4157 32.2555 57.2935 32.2479 57.149 32.2209C57.1453 32.1593 57.1749 32.1169 57.2453 32.0976L58.0382 32.0206L58.4013 31.9243C58.405 31.9667 58.4235 31.982 58.4531 31.982C58.4902 31.9783 58.5421 31.9513 58.6087 31.905C58.6273 31.9089 58.6495 31.9089 58.668 31.9128C58.6199 32.0168 58.5643 32.167 58.5087 32.3634L58.405 32.3711C58.3976 32.2979 58.3791 32.2324 58.3458 32.1746L58.2938 32.1785C57.3306 34.9669 56.9007 36.2648 56.0115 38.4061C55.8485 38.9531 55.7114 39.2573 55.5928 39.3228C55.5966 39.3844 55.6336 39.4152 55.6966 39.4075C55.7189 39.6771 55.6596 39.9428 55.515 40.2047C55.1037 41.4372 54.8296 42.1111 54.6888 42.2344L54.7815 42.8159C54.7851 42.8776 54.7555 42.9122 54.6925 42.9199L54.5962 42.9277C54.5814 42.7658 54.5257 42.6888 54.4258 42.7004L54.3739 42.7042C54.2478 42.9083 54.1515 43.1433 54.0886 43.4168L54.1849 43.409C54.3146 43.3205 54.3739 43.2165 54.3628 43.097L54.5554 43.0778L54.6665 43.1202C54.5777 43.2665 54.5369 43.3821 54.5443 43.4706L54.5962 43.5631L54.4702 43.8712L54.4739 43.9213C54.5851 43.9097 54.7073 43.9482 54.837 44.0291C54.9259 44.0214 55.0223 43.9791 55.1297 43.9058C55.2409 43.8943 55.6559 43.8905 56.3709 43.8905L56.7303 43.7633C57.1675 43.7595 57.2379 43.7711 57.6158 43.7364L57.7714 43.721L57.8529 43.6632L57.8566 43.7133C58.2531 43.6786 58.279 43.7056 58.5902 43.7441L58.5939 43.7942L58.3753 43.8135L58.3828 43.9097C58.4494 43.902 58.5087 43.8827 58.5569 43.8403C58.6125 43.8366 58.6458 43.8673 58.6495 43.9367C58.5606 43.9443 58.4606 43.9675 58.3494 44.006L58.2531 43.9713C58.1012 44.0137 58.1345 44.0252 58.0307 44.0329L57.8789 44.0022C57.8826 44.0291 57.8678 44.0483 57.8418 44.0483C57.8456 44.1099 57.8789 44.1408 57.9344 44.1369L58.09 44.1216L58.9015 44.0483L59.209 43.9791C59.2127 44.006 59.2238 44.0214 59.2497 44.0176L59.398 43.9598L59.6759 43.9367C59.8907 43.9174 59.887 43.902 60.3539 43.825C60.3502 43.7942 60.3612 43.7826 60.3835 43.7787L60.3872 43.8211C61.1468 43.6863 61.1949 43.6786 61.3171 43.6362L61.3283 43.6594C61.5172 43.6131 61.4098 43.6247 61.4617 43.5862C61.4654 43.6209 61.4765 43.6362 61.495 43.6362L61.6284 43.6247L61.621 43.5207L61.3506 43.5169L61.3468 43.5091C61.3357 43.513 61.3283 43.513 61.3171 43.5169H61.2801V43.5246C61.0986 43.5631 61.0948 43.5361 60.9763 43.5477L60.2982 43.5862L60.2946 43.5361L60.6725 43.4822L60.8096 43.4706L60.8874 43.4129L60.8911 43.463C61.4246 43.4168 61.6135 43.5554 64.0811 43.0085C64.2146 42.9969 64.2034 42.8814 64.2886 42.6426C64.2435 42.6458 64.1984 42.6351 64.159 42.6118C63.9552 42.6927 63.8477 42.6542 63.455 42.7197C63.4217 42.7236 63.3957 42.6927 63.3846 42.6311L63.3808 42.5887L63.7588 42.6002C63.8292 42.5926 63.9663 42.581 64.1701 42.4616C64.1701 42.4962 64.0923 42.5155 64.1367 42.5117H64.1368V42.5117ZM45.8929 42.8159L45.7188 42.8313C45.7114 42.7582 45.8041 42.4808 45.9967 42.0071L46.1115 41.9956C46.1153 42.1073 46.0448 42.3807 45.8929 42.8159V42.8159ZM46.1042 41.9378L46.1005 41.8878C46.0967 41.8262 46.1338 41.7838 46.2153 41.7645L46.219 41.8145C46.2227 41.8878 46.1856 41.9301 46.1042 41.9378ZM48.4198 43.798L48.4235 43.8481L48.1346 43.8751L48.1308 43.825L48.4198 43.798ZM48.0716 43.7672C48.0753 43.8288 47.9863 43.8982 47.7937 43.9675L47.4379 43.9406L47.3231 43.9521L47.312 43.8403L48.0716 43.7672ZM50.4131 32.5636L50.239 32.5791L50.2353 32.5175C50.2316 32.4558 50.265 32.4135 50.3391 32.3942L50.4021 32.3904L50.5206 32.4404C50.5242 32.5136 50.4909 32.556 50.4131 32.5636ZM53.0623 32.0244L53.1178 32.0206L53.1253 32.1323L52.966 32.1476C52.9622 32.086 52.9918 32.0438 53.0623 32.0244V32.0244ZM52.3953 32.2671L52.1323 32.2363L52.1286 32.1862C52.4732 32.1554 52.588 32.1169 52.7992 32.0553C52.8029 32.0976 52.8399 32.113 52.9067 32.1054L52.914 32.217L52.8104 32.2286C52.7288 32.2363 52.6584 32.2247 52.5991 32.19C52.5361 32.2324 52.4695 32.2594 52.3953 32.2671V32.2671ZM52.7251 33.2646L52.7214 33.2145L53.1475 33.1722L53.1512 33.2223L52.7251 33.2646ZM53.1808 32.8794L53.1771 32.8178L53.3846 32.7986L53.3884 32.8602L53.1808 32.8794ZM53.229 32.1246L53.1734 32.1284L53.2216 32.009L53.6958 31.9628L53.6995 32.0244C53.5773 32.036 53.4179 32.0706 53.229 32.1246ZM53.4699 33.1875L53.4624 33.0759L53.67 33.0567C53.7403 33.0489 53.7773 33.0835 53.7811 33.1606L53.4699 33.1875ZM54.7258 31.4082L54.4591 31.4853L54.4109 31.4891C54.285 31.5007 54.1219 31.4968 53.9292 31.4776C54.2738 31.4545 54.6036 31.4275 54.7258 31.4082V31.4082ZM54.4406 32.6407L54.4443 32.6907L54.0775 32.7254L54.0737 32.6753L54.4406 32.6407ZM55.0408 32.9372C55.0371 32.8911 54.9666 32.8602 54.8222 32.8448L54.4554 32.9527L54.1738 32.9642C54.1108 32.9179 54.0775 32.8872 54.0737 32.8641L54.3998 32.8833L55.1334 32.7601L55.5076 32.7755L55.5113 32.8371C55.326 32.8563 55.1704 32.8911 55.0408 32.9372V32.9372ZM58.8163 31.9243C58.8607 31.9282 58.8903 31.9282 58.9015 31.9282C59.0311 31.7972 59.1757 31.6932 59.3424 31.6201C59.209 32.2286 59.0015 32.6792 58.7162 32.9719L58.5087 32.8409C58.6829 32.3826 58.7867 32.0784 58.8163 31.9243ZM58.179 33.0604L58.2308 33.0567C58.1605 33.1953 58.0975 33.2684 58.0456 33.2723L58.0345 33.1259C58.0679 33.1259 58.116 33.1028 58.179 33.0604V33.0604ZM57.7678 34.0811C57.8678 33.6651 57.9641 33.4302 58.053 33.3686L58.0567 33.4186C58.0049 33.8037 57.9233 34.0079 57.8159 34.0233L57.8344 34.2659C57.7455 34.3969 57.7048 34.497 57.7084 34.574L57.6565 34.5779L57.627 34.2428C57.6862 34.2352 57.7343 34.1812 57.7678 34.0811V34.0811ZM57.6084 34.6356C57.6121 34.6934 57.575 34.8282 57.5009 35.0362L57.4491 35.0401L57.4379 34.8937C57.5084 34.7243 57.5677 34.6395 57.6083 34.6356H57.6084ZM54.6184 43.6555L54.6147 43.6131L54.711 43.6055L54.7222 43.7518C54.6703 43.7557 54.6332 43.7248 54.6184 43.6555V43.6555ZM58.8903 43.7711C58.8866 43.7364 58.8718 43.721 58.8385 43.7248L58.5977 43.748L58.5939 43.6979H58.6162L59.1867 43.6478L59.1905 43.6979C59.0238 43.7056 58.9237 43.7326 58.8903 43.7711V43.7711ZM58.6051 43.6478C58.6274 43.6594 58.6162 43.671 58.6051 43.6786C58.5939 43.6747 58.5791 43.6632 58.6051 43.6478ZM58.6347 42.9546L58.3161 42.9815L58.3123 42.9314L58.6014 42.9045L58.8533 42.8391C58.857 42.8698 58.8718 42.8814 58.9052 42.8776C59.2053 42.8237 59.1757 42.8082 59.3202 42.7967C59.3683 42.7928 59.398 42.8237 59.4017 42.8853L58.6347 42.9546V42.9546ZM59.7499 42.8544C59.5721 42.8352 59.561 42.8198 59.435 42.8313L59.4313 42.7889L59.7166 42.7621L59.7203 42.8044C59.6906 42.8082 59.7981 42.8159 59.7499 42.8544ZM59.7722 42.8006L59.7684 42.7582L59.924 42.7427L59.9278 42.7851L59.7722 42.8006ZM60.1168 42.7697L60.113 42.7273C60.139 42.7236 60.1761 42.7042 60.2242 42.6657C60.302 42.6581 60.3427 42.7119 60.3502 42.7736L60.1168 42.7697ZM60.5577 42.7119L60.554 42.6618L60.7429 42.6465L60.7466 42.6966L60.5577 42.7119ZM60.8207 42.6888C60.8171 42.6311 60.8392 42.5964 60.8874 42.5887L60.9504 42.6734C60.9467 42.6465 60.9578 42.6311 60.98 42.6272L61.0282 42.7197L60.8207 42.6888ZM64.4665 42.2421L64.4702 42.2382V42.2344C64.4702 42.2344 64.4665 42.2382 64.4665 42.2421ZM64.5332 42.192C64.5628 42.1728 64.5777 42.1535 64.5072 42.142C64.4739 42.1805 64.5443 42.192 64.4702 42.1959L64.4739 42.2305C64.4813 42.2229 64.4999 42.2113 64.5147 42.1997L64.4739 42.2344V42.2382L64.3961 42.3422L64.5517 42.2845H64.5702L64.5628 42.1881L64.5332 42.192V42.192ZM64.8036 42.4116L64.7741 42.4154L64.7814 42.5117L65 42.4925C64.9964 42.4308 64.8518 42.4116 64.8036 42.4116V42.4116Z" fill="#F9DC3E"/>
</svg>
