<svg width="80" height="80" viewBox="0 0 80 80" fill="none" xmlns="http://www.w3.org/2000/svg">
<circle cx="40" cy="40" r="40" fill="black"/>
<path d="M21.7037 26.7038C21.7037 23.9423 23.9423 21.7038 26.7037 21.7038H54.1852C56.9466 21.7038 59.1852 23.9423 59.1852 26.7038V53.163C59.1852 55.9244 56.9466 58.163 54.1852 58.163H26.7037C23.9423 58.163 21.7037 55.9244 21.7037 53.163V26.7038Z" fill="#2E001E"/>
<path d="M26 20C22.6863 20 20 22.6863 20 26V53.8667C20 57.1804 22.6863 59.8667 26 59.8667H54.8889C58.2026 59.8667 60.8889 57.1804 60.8889 53.8667V26C60.8889 22.6863 58.2026 20 54.8889 20H26ZM21.7037 27.7037C21.7037 24.39 24.39 21.7037 27.7037 21.7037H53.1852C56.4989 21.7037 59.1852 24.39 59.1852 27.7037V52.163C59.1852 55.4767 56.4989 58.163 53.1852 58.163H27.7037C24.39 58.163 21.7037 55.4767 21.7037 52.163V27.7037Z" fill="#FF2BC2"/>
<path d="M49.6955 36.7474C49.44 36.6281 49.1163 36.577 48.7074 36.577C46.5607 36.577 45.1296 38.2296 45.1296 40.9726C45.1296 44.1074 46.5948 45.3681 48.503 45.3681C48.9118 45.3681 49.3548 45.317 49.6785 45.1807V36.7474H49.6955ZM42.063 41.1089C42.063 37.1393 44.6185 34.0385 48.8096 34.0385C49.1674 34.0385 49.3548 34.0385 49.6955 34.0726V29.643C49.6955 29.5408 49.7807 29.4726 49.8659 29.4726H52.6089C52.7452 29.4726 52.7793 29.5237 52.7793 29.6089V45.1807C52.7793 45.6407 52.7793 46.22 52.8644 46.8504C52.8644 46.9696 52.8644 46.9866 52.7622 47.0378C51.3311 47.7192 49.8318 48.0259 48.4007 48.0259C44.7037 48.0259 42.063 45.7429 42.063 41.1089V41.1089ZM36.2533 38.3489L41.0237 47.6C41.1089 47.7363 41.0578 47.8726 40.9215 47.8726H37.957C37.7696 47.8726 37.6844 47.8215 37.5992 47.6511C36.5089 45.4022 35.4015 43.0681 34.26 40.6489H34.2259C33.2037 42.9318 32.0792 45.4192 30.9889 47.6681C30.9037 47.8044 30.8185 47.8555 30.6822 47.8555H27.8541C27.6837 47.8555 27.6667 47.7192 27.7518 47.617L32.42 38.6385L27.9052 29.7111C27.8029 29.5748 27.9052 29.4556 28.0244 29.4556H30.9548C31.1252 29.4556 31.2104 29.4896 31.2615 29.643C32.3348 31.9089 33.4252 34.1407 34.4474 36.4237H34.4815C35.4696 34.1748 36.56 31.9089 37.5992 29.677C37.6844 29.5408 37.7355 29.4556 37.9059 29.4556H40.6489C40.7852 29.4556 40.8363 29.5578 40.7511 29.7111L36.2533 38.3489V38.3489Z" fill="#FF2BC2"/>
</svg>
