<svg width="80" height="80" viewBox="0 0 80 80" fill="none" xmlns="http://www.w3.org/2000/svg">
<circle cx="40" cy="40" r="40" fill="black"/>
<path d="M40.4098 50.4366C49.4559 62.7684 58.3088 46.9946 58.2957 37.5087C58.2806 26.2936 46.9132 20.0255 40.4024 20.0255C29.9521 20.0254 20 28.662 20 40.4789C20 53.6135 31.4081 60.8888 40.4024 60.8888C38.3671 60.5957 31.5842 59.1424 31.4931 43.5195C31.4316 32.9533 34.9399 28.7316 40.3877 30.5887C40.5097 30.6339 46.3968 32.9563 46.3968 40.5426C46.3968 48.0968 40.4098 50.4364 40.4098 50.4364V50.4366Z" fill="url(#paint0_linear_449_5132)"/>
<path d="M40.3992 30.5801C34.4218 28.5198 27.0993 33.4464 27.0993 43.3141C27.0993 59.4263 39.039 60.8887 40.4864 60.8887C50.9367 60.8887 60.8888 52.2519 60.8888 40.4352C60.8888 27.3007 49.4807 20.0253 40.4864 20.0253C42.9776 19.6803 53.9134 22.7214 53.9134 37.6679C53.9134 47.4151 45.7478 52.7214 40.4367 50.4543C40.3147 50.4091 34.4275 48.0867 34.4275 40.5004C34.4275 32.946 40.3992 30.5801 40.3992 30.5801V30.5801Z" fill="url(#paint1_linear_449_5132)"/>
<defs>
<linearGradient id="paint0_linear_449_5132" x1="26.0473" y1="26.0475" x2="56.5909" y2="52.8732" gradientUnits="userSpaceOnUse">
<stop/>
<stop offset="1" stop-color="white"/>
</linearGradient>
<linearGradient id="paint1_linear_449_5132" x1="54.8527" y1="54.8523" x2="21.7936" y2="32.2766" gradientUnits="userSpaceOnUse">
<stop/>
<stop offset="1" stop-color="white"/>
</linearGradient>
</defs>
</svg>
