<svg width="80" height="80" viewBox="0 0 80 80" fill="none" xmlns="http://www.w3.org/2000/svg">
<circle cx="40" cy="40" r="40" fill="black"/>
<path d="M40 28C34.6665 28 31.3333 30.6667 29.9998 35.9997C32 33.3329 34.3334 32.3333 36.9999 32.9997C38.5214 33.38 39.6089 34.4842 40.8128 35.706C42.7735 37.6963 45.0429 39.9997 50.0003 39.9997C55.3333 39.9997 58.667 37.333 60 31.9996C58.0003 34.6663 55.6669 35.6665 52.9999 35C51.4788 34.6198 50.3914 33.5156 49.1874 32.2938C47.2267 30.3035 44.9569 28 40 28V28ZM29.9998 39.9997C24.6668 39.9997 21.333 42.6665 20 47.9999C21.9998 45.3332 24.3331 44.333 27.0001 45C28.5212 45.3807 29.6086 46.4844 30.8126 47.7057C32.7733 49.696 35.0431 52 40 52C45.3335 52 48.6668 49.3333 50.0003 43.9998C48 46.6666 45.6666 47.6667 43.0001 46.9998C41.4786 46.62 40.3911 45.5153 39.1872 44.294C37.2265 42.3037 34.9571 39.9997 29.9998 39.9997V39.9997Z" fill="#06B6D4"/>
</svg>
