<svg width="80" height="80" viewBox="0 0 80 80" fill="none" xmlns="http://www.w3.org/2000/svg">
<circle cx="40" cy="40" r="40" fill="black"/>
<path d="M56.6253 27.9486C54.1537 24.7481 50.7886 22.3524 46.9554 21.0645C43.1222 19.7767 38.9932 19.6545 35.0905 20.7134C31.1879 21.7724 27.6869 23.9649 25.0305 27.0136C22.374 30.0624 20.6812 33.8305 20.1664 37.8413C19.6515 41.8522 20.3377 45.9256 22.138 49.5464C23.9384 53.1673 26.7721 56.1729 30.2807 58.1832C33.7894 60.1935 37.8154 61.1182 41.8496 60.8402C45.8838 60.5622 49.7449 59.0942 52.9447 56.6217C61.8763 49.7192 63.5246 36.8834 56.6247 27.9486H56.6253Z" fill="#FF6C37"/>
<path d="M47.3397 33.0265L38.7193 41.7153L36.2833 39.2109C44.7676 30.7265 45.6192 31.4931 47.3404 33.0265H47.3397Z" fill="black"/>
<path d="M38.7193 41.9529C38.643 41.951 38.5701 41.9207 38.5149 41.8679L36.0616 39.4146C36.0063 39.3574 35.9755 39.281 35.9755 39.2015C35.9755 39.122 36.0063 39.0456 36.0616 38.9885C44.4265 30.6236 45.5682 31.0152 47.5442 32.8041C47.5773 32.8305 47.6038 32.8644 47.6215 32.9028C47.6393 32.9413 47.6478 32.9834 47.6464 33.0258C47.6592 33.1088 47.6273 33.1938 47.5615 33.2475L38.941 41.8685C38.8806 41.924 38.8013 41.9543 38.7193 41.9535V41.9529ZM36.7088 39.2102L38.7193 41.2207L46.897 33.043C46.6147 32.6892 46.2118 32.4518 45.7654 32.3764C45.319 32.3009 44.8605 32.3927 44.4776 32.6341C42.9954 33.2986 40.6104 35.3257 36.7088 39.2102V39.2102Z" fill="#FF6C37"/>
<path d="M41.1898 44.1174L38.8387 41.7152L47.4592 33.1964C49.7765 35.4625 46.3348 39.2446 41.1898 44.1167V44.1174Z" fill="black"/>
<path d="M41.1899 44.4241C41.1145 44.4181 41.0429 44.3883 40.9854 44.3391L38.5832 41.988C38.5472 41.9006 38.5472 41.8026 38.5832 41.7152C38.5577 41.6435 38.5577 41.5652 38.5832 41.4935L47.2037 32.8731C47.2636 32.8168 47.3428 32.7854 47.4251 32.7854C47.5073 32.7854 47.5865 32.8168 47.6464 32.8731C47.9256 33.13 48.1462 33.4441 48.2931 33.7939C48.4401 34.1437 48.51 34.521 48.4981 34.9003C48.4981 37.2002 45.8742 40.0963 41.4109 44.3218C41.3513 44.3809 41.2728 44.417 41.1892 44.4241H41.1899ZM39.2815 41.7152L41.2065 43.6395C44.6137 40.4196 47.8681 37.0974 47.8847 34.8485C47.9033 34.3718 47.7457 33.9049 47.442 33.5369L39.2815 41.7152Z" fill="#FF6C37"/>
<path d="M36.351 39.2619L38.0549 40.9658C38.0657 40.9754 38.0745 40.9872 38.0804 41.0004C38.0864 41.0136 38.0895 41.028 38.0895 41.0425C38.0895 41.057 38.0864 41.0713 38.0804 41.0845C38.0745 41.0978 38.0657 41.1096 38.0549 41.1191L34.4599 41.8858C34.3873 41.9015 34.3116 41.893 34.2443 41.8616C34.177 41.8303 34.1218 41.7778 34.0871 41.7122C34.0523 41.6466 34.04 41.5714 34.052 41.4982C34.0639 41.4249 34.0995 41.3575 34.1532 41.3063L36.2488 39.2281C36.2488 39.2281 36.3171 39.2281 36.351 39.2619Z" fill="black"/>
<path d="M34.3749 42.2264C34.2613 42.2249 34.15 42.1944 34.0516 42.1377C33.9532 42.081 33.8709 42 33.8127 41.9024C33.7472 41.7789 33.7234 41.6374 33.745 41.4992C33.7665 41.3611 33.8322 41.2336 33.9322 41.1358L36.0105 39.0402C36.0854 38.9733 36.1824 38.9362 36.2829 38.9362C36.3835 38.9362 36.4805 38.9733 36.5554 39.0402L38.2593 40.7441C38.3603 40.84 38.3999 40.985 38.3615 41.1192C38.3232 41.2533 38.2108 41.36 38.0721 41.392L34.4771 42.1586L34.3749 42.2264ZM36.2833 39.637L34.3583 41.5619L37.5444 40.8802L36.2833 39.637Z" fill="#FF6C37"/>
<path d="M51.9232 28.2386C50.6901 27.049 48.753 26.9992 47.4598 28.1217C46.1667 29.2442 45.9457 31.1711 46.9526 32.5575C47.9595 33.9439 49.8576 34.3323 51.3271 33.4519L49.0098 31.1347L51.9232 28.2386Z" fill="black"/>
<path d="M49.6232 34.2352C48.9147 34.2261 48.2246 34.0088 47.6389 33.6103C47.0531 33.2117 46.5976 32.6496 46.3291 31.994C46.0607 31.3389 45.9903 30.6195 46.1266 29.9248C46.2628 29.23 46.5998 28.5905 47.0957 28.0853C47.7778 27.4157 48.6955 27.0406 49.6513 27.0406C50.6071 27.0406 51.5247 27.4157 52.2068 28.0853C52.272 28.1403 52.3091 28.2214 52.3091 28.307C52.3089 28.3491 52.2997 28.3907 52.282 28.429C52.2644 28.4672 52.2388 28.5012 52.2068 28.5287L49.4468 31.1353L51.5424 33.197C51.5763 33.2295 51.6018 33.2697 51.6166 33.3142C51.6315 33.3588 51.6351 33.4063 51.6274 33.4526C51.6223 33.4973 51.6075 33.5403 51.584 33.5786C51.5605 33.6169 51.5288 33.6496 51.4913 33.6743C50.9283 34.0262 50.2811 34.2203 49.6174 34.2365L49.6232 34.2352ZM49.6232 27.6247C48.4093 27.6311 47.3232 28.3613 46.8676 29.4774C46.4121 30.5936 46.66 31.8784 47.511 32.7358C47.9343 33.1615 48.4763 33.4495 49.066 33.562C49.6557 33.6745 50.2657 33.6063 50.816 33.3663L48.8054 31.3558C48.7734 31.3302 48.7476 31.2978 48.7299 31.2609C48.7122 31.224 48.7029 31.1836 48.7029 31.1427C48.7029 31.1018 48.7122 31.0614 48.7299 31.0245C48.7476 30.9876 48.7734 30.9552 48.8054 30.9296L51.4632 28.2546C50.9348 27.8497 50.2888 27.6283 49.6232 27.624V27.6247Z" fill="#FF6C37"/>
<path d="M51.9742 28.2897L49.0609 31.1858L51.3781 33.503C51.6113 33.3691 51.8285 33.209 52.0253 33.0258C52.6326 32.3838 52.9668 31.5311 52.9572 30.6474C52.9477 29.7638 52.5952 28.9184 51.9742 28.2897V28.2897Z" fill="black"/>
<path d="M51.3264 33.7586C51.2881 33.7607 51.2499 33.7541 51.2145 33.7394C51.1791 33.7247 51.1475 33.7022 51.1219 33.6736L48.8047 31.3564C48.7727 31.3308 48.7469 31.2984 48.7292 31.2615C48.7115 31.2246 48.7023 31.1842 48.7023 31.1433C48.7023 31.1024 48.7115 31.062 48.7292 31.0251C48.7469 30.9882 48.7727 30.9558 48.8047 30.9303L51.7008 28.0853C51.7287 28.0431 51.7667 28.0085 51.8113 27.9846C51.8559 27.9607 51.9057 27.9482 51.9563 27.9482C52.0069 27.9482 52.0567 27.9607 52.1013 27.9846C52.1459 28.0085 52.1839 28.0431 52.2119 28.0853C52.5519 28.4184 52.822 28.816 53.0064 29.2548C53.1907 29.6937 53.2857 30.1649 53.2857 30.6408C53.2857 31.1168 53.1907 31.588 53.0064 32.0268C52.822 32.4656 52.5519 32.8633 52.2119 33.1964C52.0113 33.4091 51.7818 33.5926 51.5302 33.7413C51.4668 33.7733 51.3936 33.7795 51.3257 33.7586H51.3264ZM49.4525 31.1353L51.3775 33.0603C51.5099 32.9675 51.6353 32.865 51.7525 32.7536C52.3184 32.1893 52.6371 31.4234 52.6387 30.6242C52.64 29.909 52.3793 29.2181 51.9058 28.682L49.4525 31.1353Z" fill="#FF6C37"/>
<path d="M47.6975 33.3842C47.4668 33.1675 47.1621 33.0469 46.8456 33.0469C46.529 33.0469 46.2244 33.1675 45.9936 33.3842L38.2766 41.084L39.5543 42.3791L47.7148 35.2235C47.8392 35.1043 47.938 34.9608 48.0049 34.8019C48.0718 34.6431 48.1055 34.4722 48.1038 34.2998C48.1022 34.1274 48.0653 33.9572 47.9955 33.7997C47.9256 33.6421 47.8242 33.5005 47.6975 33.3835V33.3842Z" fill="black"/>
<path d="M39.486 42.6864C39.4096 42.6845 39.3367 42.6542 39.2815 42.6014L37.9865 41.3064C37.9313 41.2492 37.9004 41.1728 37.9004 41.0933C37.9004 41.0138 37.9313 40.9374 37.9865 40.8802L45.7042 33.1964C45.9265 32.9744 46.2104 32.8242 46.519 32.7655C46.8277 32.7068 47.1468 32.7421 47.4351 32.8669C47.7235 32.9918 47.9676 33.2004 48.1359 33.4656C48.3043 33.7309 48.389 34.0407 48.3792 34.3547C48.3704 34.5678 48.3191 34.7771 48.2284 34.9702C48.1376 35.1632 48.0093 35.3363 47.8509 35.4791L39.6904 42.6346C39.631 42.6766 39.5581 42.6949 39.486 42.6857V42.6864ZM38.5832 41.084L39.4348 41.9529L47.442 34.9846C47.64 34.8121 47.7582 34.5655 47.7659 34.3029C47.7736 34.0404 47.6701 33.7835 47.4765 33.6046C47.2977 33.4266 47.0557 33.3267 46.8034 33.3267C46.5511 33.3267 46.3091 33.4266 46.1303 33.6046L38.5832 41.084Z" fill="#FF6C37"/>
<path d="M32.2966 49.8585C32.2748 49.8881 32.2631 49.9239 32.2631 49.9607C32.2631 49.9975 32.2748 50.0333 32.2966 50.0629L32.6371 51.5451C32.6508 51.6323 32.6379 51.7216 32.6 51.8014C32.5622 51.8812 32.5012 51.9477 32.425 51.9923C32.3491 52.0367 32.2611 52.0559 32.1736 52.047C32.0861 52.0382 32.0037 52.0018 31.9382 51.9431L29.6044 49.6943L36.8793 42.3618H39.401L41.1049 44.0657C38.4469 46.3896 35.4833 48.3386 32.2966 49.8585V49.8585Z" fill="black"/>
<path d="M32.1433 52.3629C31.9504 52.359 31.76 52.2798 31.6322 52.1412L29.4006 49.9096C29.3686 49.884 29.3428 49.8516 29.3251 49.8147C29.3074 49.7778 29.2982 49.7374 29.2982 49.6965C29.2982 49.6556 29.3074 49.6152 29.3251 49.5783C29.3428 49.5414 29.3686 49.509 29.4006 49.4834L36.726 42.1407C36.767 42.0972 36.8207 42.0674 36.8794 42.0558H39.4176C39.4838 42.0324 39.5559 42.0324 39.6221 42.0558L41.326 43.7597C41.3584 43.7896 41.383 43.8268 41.3979 43.8684C41.4127 43.9099 41.4172 43.9543 41.411 43.998C41.4122 44.0403 41.4036 44.0824 41.3858 44.1208C41.3681 44.1593 41.3417 44.1931 41.3087 44.2197L41.1727 44.3391C38.504 46.5639 35.568 48.4468 32.4327 49.9441L32.7566 51.3241C32.7817 51.4305 32.7826 51.5412 32.7595 51.6481C32.7363 51.755 32.6895 51.8553 32.6226 51.9418C32.5557 52.0283 32.4703 52.0988 32.3727 52.1481C32.2751 52.1974 32.1677 52.2243 32.0584 52.2268L32.1433 52.3629ZM30.065 49.6879L32.075 51.7151C32.0937 51.7318 32.1179 51.741 32.143 51.741C32.1681 51.741 32.1923 51.7318 32.211 51.7151C32.2236 51.6977 32.2303 51.6768 32.2303 51.6553C32.2303 51.6339 32.2236 51.613 32.211 51.5956L31.8705 50.1134C31.8437 50.007 31.8545 49.8946 31.901 49.7953C31.9476 49.696 32.0271 49.6158 32.1261 49.5684C35.177 48.0911 38.0373 46.249 40.6443 44.0823L39.2471 42.6851H36.9643L30.065 49.6879Z" fill="#FF6C37"/>
<path d="M27.85 51.4428L29.5539 49.739L32.1778 52.3628L28.004 52.0734C27.9323 52.0678 27.8642 52.0397 27.8095 51.9931C27.7548 51.9465 27.7161 51.8838 27.6991 51.814C27.6821 51.7441 27.6876 51.6707 27.7148 51.6042C27.742 51.5376 27.7896 51.4814 27.8506 51.4435L27.85 51.4428Z" fill="black"/>
<path d="M32.2283 52.6184L28.0711 52.329C27.8245 52.306 27.6124 52.1374 27.5255 51.9118C27.4386 51.6863 27.4916 51.4186 27.6622 51.2384L29.3661 49.5345C29.4233 49.4793 29.4997 49.4484 29.5792 49.4484C29.6587 49.4484 29.7351 49.4793 29.7922 49.5345L32.3989 52.1412C32.4349 52.1906 32.4544 52.2502 32.4544 52.3115C32.4544 52.3727 32.4349 52.4323 32.3989 52.4817C32.3595 52.5454 32.2992 52.5935 32.2283 52.6178V52.6184ZM28.0711 51.6646L31.4782 51.8863L29.6044 50.1313L28.0711 51.6646Z" fill="#FF6C37"/>
<path d="M39.6393 42.5675L36.1976 43.0958L38.1909 41.1198L39.6393 42.5675Z" fill="#1E2235"/>
<path d="M36.1977 43.4185C36.1405 43.42 36.0841 43.4046 36.0356 43.3743C35.9871 43.344 35.9486 43.3 35.9249 43.2479C35.8886 43.1986 35.869 43.1389 35.869 43.0777C35.869 43.0164 35.8886 42.9568 35.9249 42.9074L37.9009 40.9141C37.9608 40.8577 38.04 40.8264 38.1223 40.8264C38.2045 40.8264 38.2837 40.8577 38.3436 40.9141L39.7926 42.3618C39.8216 42.4077 39.8369 42.4609 39.8369 42.5151C39.8369 42.5694 39.8216 42.6226 39.7926 42.6685C39.7784 42.7244 39.7484 42.7751 39.7061 42.8144C39.6638 42.8537 39.6111 42.88 39.5543 42.8902L36.1472 43.4185H36.1977ZM38.1909 41.5613L37.0838 42.6685L38.9921 42.3791L38.1909 41.5613Z" fill="#FF6C37"/>
<path d="M39.6393 42.5663L37.2371 42.8729C37.1728 42.8875 37.1055 42.881 37.0452 42.8544C36.9849 42.8277 36.9348 42.7823 36.9024 42.725C36.8699 42.6676 36.8567 42.6013 36.8649 42.5359C36.8731 42.4705 36.9021 42.4094 36.9477 42.3618L38.1916 41.1179L39.6393 42.5663Z" fill="black"/>
<path d="M37.1687 43.1975C37.0574 43.1964 36.9483 43.1659 36.8526 43.109C36.7569 43.0521 36.6779 42.9709 36.6238 42.8736C36.5587 42.7569 36.5335 42.6223 36.5519 42.49C36.5704 42.3577 36.6315 42.2351 36.726 42.1408L37.9699 40.8968C38.0298 40.8405 38.109 40.8092 38.1913 40.8092C38.2735 40.8092 38.3527 40.8405 38.4126 40.8968L39.861 42.3452C39.9041 42.386 39.9344 42.4384 39.9482 42.4961C39.9621 42.5538 39.9589 42.6143 39.9391 42.6702C39.9193 42.7261 39.8837 42.7751 39.8366 42.8112C39.7895 42.8473 39.733 42.869 39.6738 42.8736L37.2888 43.1802L37.1687 43.1975ZM37.1687 42.5669L38.9749 42.3452L38.1743 41.5447L37.1521 42.5669H37.1687ZM51.9908 30.2492C51.9587 30.1954 51.908 30.1553 51.8483 30.1365C51.7886 30.1176 51.7241 30.1214 51.6669 30.147C51.6387 30.1613 51.6137 30.1811 51.5933 30.2052C51.5728 30.2294 51.5575 30.2573 51.5481 30.2875C51.5291 30.3484 51.5351 30.4144 51.5647 30.4709C51.6842 30.722 51.6509 31.019 51.4797 31.2375C51.4585 31.2586 51.4418 31.2838 51.4308 31.3117C51.4198 31.3395 51.4147 31.3693 51.4158 31.3992C51.4164 31.4591 51.4392 31.5167 51.4797 31.5608C51.5234 31.5781 51.5721 31.5781 51.6158 31.5608C51.6555 31.5708 51.6971 31.5697 51.7362 31.5576C51.7753 31.5456 51.8103 31.523 51.8375 31.4925C51.9778 31.3207 52.0666 31.1128 52.0938 30.8926C52.1209 30.6725 52.0852 30.4492 51.9908 30.2486V30.2492Z" fill="#FF6C37"/>
</svg>
