<svg width="80" height="80" viewBox="0 0 80 80" fill="none" xmlns="http://www.w3.org/2000/svg">
<circle cx="40" cy="40" r="40" fill="black"/>
<path d="M54.4431 41.2458C53.0477 41.2531 51.8348 41.5892 50.8193 42.0861C50.4467 41.3481 50.0741 40.6905 50.0083 40.2083C49.9352 39.6457 49.8476 39.3022 49.9352 38.63C50.0229 37.9578 50.4174 37.0006 50.4101 36.9275C50.4028 36.8545 50.3225 36.5111 49.5188 36.5038C48.7151 36.4964 48.021 36.6572 47.9407 36.8691C47.8603 37.081 47.7069 37.5632 47.6046 38.0601C47.4658 38.7908 45.9972 41.3993 45.157 42.7656C44.8867 42.2322 44.6529 41.7646 44.6017 41.392C44.5287 40.8293 44.441 40.4859 44.5287 39.8137C44.6164 39.1415 45.0109 38.1843 45.0036 38.1112C44.9963 38.0382 44.9159 37.6948 44.1122 37.6874C43.3086 37.6801 42.6145 37.8409 42.5341 38.0528C42.4537 38.2647 42.3661 38.7615 42.198 39.2438C42.03 39.726 40.0792 44.0808 39.5678 45.2061C39.3048 45.7833 39.0783 46.2436 38.9176 46.5578C38.9176 46.5578 38.9102 46.5797 38.8883 46.6163C38.7495 46.8866 38.6691 47.0328 38.6691 47.0328C38.6691 47.0328 38.6691 47.0328 38.6691 47.0401C38.5595 47.2374 38.4427 47.42 38.3842 47.42C38.3404 47.42 38.26 46.8939 38.3988 46.1779C38.6911 44.6654 39.3851 42.3126 39.3778 42.2322C39.3778 42.1884 39.5093 41.7792 38.9249 41.5673C38.355 41.3554 38.1504 41.7062 38.0993 41.7062C38.0481 41.7062 38.0116 41.8304 38.0116 41.8304C38.0116 41.8304 38.6472 39.1853 36.7988 39.1853C35.6444 39.1853 34.0517 40.4494 33.2626 41.5892C32.7658 41.8596 31.7064 42.4368 30.5739 43.0579C30.1429 43.299 29.6972 43.5401 29.2807 43.7667C29.2515 43.7374 29.2223 43.7009 29.1931 43.6717C26.9574 41.2824 22.8221 39.5945 22.9974 36.3868C23.0632 35.2178 23.465 32.1489 30.9392 28.4225C37.091 25.3902 41.9861 26.2305 42.8337 28.0937C44.0465 30.7534 40.2107 35.6927 33.8544 36.4088C31.4287 36.6791 30.1575 35.7439 29.836 35.3931C29.4999 35.0278 29.4488 35.0059 29.3246 35.0789C29.12 35.1885 29.2515 35.5173 29.3246 35.7073C29.5145 36.2042 30.2963 37.081 31.6187 37.5121C32.7877 37.892 35.6298 38.1039 39.071 36.7741C42.9213 35.2835 45.9315 31.1406 45.0474 27.6699C44.1634 24.1481 38.3184 22.9863 32.7877 24.9518C29.4999 26.1209 25.9345 27.9622 23.3701 30.3588C20.3234 33.2084 19.8412 35.6854 20.0384 36.723C20.7471 40.4056 25.8249 42.8022 27.856 44.5777C27.7537 44.6362 27.6588 44.6873 27.5784 44.7311C26.5628 45.2353 22.6906 47.2593 21.7262 49.4001C20.6302 51.826 21.9015 53.565 22.7417 53.7988C25.35 54.5222 28.0314 53.2216 29.4707 51.0734C30.91 48.9252 30.7347 46.134 30.0698 44.8554C30.0625 44.8407 30.0552 44.8261 30.0406 44.8115C30.3036 44.6581 30.5739 44.4973 30.8369 44.3439C31.3557 44.037 31.8671 43.752 32.3055 43.5182C32.0571 44.1977 31.8744 45.0088 31.7867 46.1779C31.6772 47.5515 32.2397 49.3344 32.9776 50.0358C33.3064 50.3427 33.6937 50.35 33.9421 50.35C34.8042 50.35 35.1914 49.634 35.6225 48.7864C36.1485 47.7488 36.6234 46.5432 36.6234 46.5432C36.6234 46.5432 36.0316 49.802 37.639 49.802C38.2235 49.802 38.8153 49.0421 39.0783 48.6549C39.0783 48.6622 39.0783 48.6622 39.0783 48.6622C39.0783 48.6622 39.0929 48.6402 39.1221 48.5891C39.1806 48.4941 39.2171 48.4357 39.2171 48.4357C39.2171 48.4357 39.2171 48.4284 39.2171 48.421C39.4509 48.0119 39.9769 47.0839 40.7587 45.5422C41.767 43.5548 42.7387 41.0705 42.7387 41.0705C42.7387 41.0705 42.8263 41.6769 43.1259 42.6853C43.3012 43.2771 43.6666 43.9274 43.9588 44.5558C43.725 44.8846 43.5789 45.0672 43.5789 45.0672C43.5789 45.0672 43.5789 45.0673 43.5862 45.0746C43.3962 45.323 43.1917 45.5933 42.9652 45.8564C42.1688 46.8063 41.219 47.895 41.0875 48.2091C40.934 48.5818 40.9706 48.8521 41.2628 49.0713C41.4747 49.2321 41.8546 49.254 42.2419 49.2321C42.9579 49.1809 43.462 49.0056 43.7104 48.896C44.0976 48.7572 44.5506 48.5453 44.9744 48.2311C45.7561 47.6538 46.231 46.8282 46.1872 45.7395C46.1653 45.1403 45.968 44.5412 45.7269 43.9785C45.7999 43.8763 45.8657 43.774 45.9388 43.6717C47.1735 41.8669 48.1306 39.8868 48.1306 39.8868C48.1306 39.8868 48.2183 40.4932 48.5178 41.5016C48.664 42.013 48.9635 42.5683 49.2265 43.109C48.0649 44.0516 47.3489 45.1476 47.0931 45.8637C46.6328 47.1935 46.9909 47.7927 47.6703 47.9315C47.9772 47.9973 48.4156 47.8511 48.737 47.7123C49.1462 47.5808 49.6284 47.3543 50.0887 47.0181C50.8704 46.4409 51.623 45.6372 51.5791 44.5485C51.5572 44.0516 51.4257 43.5621 51.243 43.0871C52.2294 42.6779 53.5006 42.4514 55.1226 42.6414C58.6003 43.0506 59.2871 45.2207 59.1556 46.134C59.0241 47.0474 58.2935 47.5442 58.0524 47.6977C57.8113 47.8511 57.7309 47.9023 57.7528 48.0119C57.782 48.1726 57.8989 48.1653 58.1035 48.1361C58.3885 48.0849 59.9301 47.3981 59.9958 45.7176C60.1054 43.5694 58.0597 41.2239 54.4431 41.2458ZM27.6149 50.2916C26.4606 51.5483 24.8532 52.0233 24.1591 51.6214C23.4139 51.1903 23.7061 49.3344 25.1235 48.0046C25.9857 47.1935 27.0962 46.4409 27.8341 45.9806C28.0022 45.8783 28.2506 45.7322 28.5501 45.5495C28.6013 45.5203 28.6305 45.5057 28.6305 45.5057C28.6889 45.4691 28.7474 45.4326 28.8058 45.3961C29.3246 47.2958 28.8278 48.969 27.6149 50.2916ZM36.017 44.5777C35.6152 45.5568 34.775 48.063 34.2635 47.9242C33.8252 47.8073 33.5548 45.9075 34.1759 44.0297C34.49 43.0871 35.1549 41.9619 35.5421 41.5235C36.1704 40.822 36.8645 40.5882 37.0326 40.8732C37.2444 41.2458 36.2654 43.9639 36.017 44.5777ZM42.9505 47.895C42.7825 47.9826 42.6218 48.0411 42.5487 47.9973C42.4976 47.968 42.6218 47.8511 42.6218 47.8511C42.6218 47.8511 43.4912 46.9159 43.8346 46.4921C44.0319 46.2436 44.2657 45.9514 44.5141 45.6226C44.5141 45.6518 44.5141 45.6883 44.5141 45.7176C44.5141 46.8355 43.4328 47.5881 42.9505 47.895ZM48.2987 46.6747C48.1744 46.5871 48.1964 46.2948 48.6128 45.3814C48.7736 45.0234 49.1535 44.4243 49.8037 43.847C49.8768 44.0808 49.9279 44.3073 49.9206 44.5192C49.9133 45.9294 48.9051 46.4555 48.2987 46.6747Z" fill="#F472B6"/>
</svg>
