<svg width="80" height="80" viewBox="0 0 80 80" fill="none" xmlns="http://www.w3.org/2000/svg">
<circle cx="40" cy="40" r="40" fill="black"/>
<path d="M49.9338 27.7249H51.8651C52.4058 27.7249 52.8307 28.1498 52.8307 28.6905C52.8307 29.2312 52.4058 29.6561 51.8651 29.6561H49.9338C49.3931 29.6561 48.9682 29.2312 48.9682 28.6905C48.9682 28.1498 49.3931 27.7249 49.9338 27.7249Z" fill="#56B3B4"/>
<path d="M20.9656 58.6243H30.6217C31.1624 58.6243 31.5873 59.0492 31.5873 59.5899C31.5873 60.1306 31.1624 60.5555 30.6217 60.5555H20.9656C20.4249 60.5555 20 60.1306 20 59.5899C20 59.0492 20.4249 58.6243 20.9656 58.6243Z" fill="#EA5E5E"/>
<path d="M44.1402 43.1746H49.9338C50.4745 43.1746 50.8994 43.5995 50.8994 44.1402C50.8994 44.6809 50.4745 45.1057 49.9338 45.1057H44.1402C43.5995 45.1057 43.1746 44.6809 43.1746 44.1402C43.1746 43.5995 43.5995 43.1746 44.1402 43.1746Z" fill="#BF85BF"/>
<path d="M32.5529 43.1746H40.2778C40.8185 43.1746 41.2434 43.5995 41.2434 44.1402C41.2434 44.6809 40.8185 45.1057 40.2778 45.1057H32.5529C32.0122 45.1057 31.5873 44.6809 31.5873 44.1402C31.5873 43.5995 32.0122 43.1746 32.5529 43.1746Z" fill="#EA5E5E"/>
<path d="M20.9656 43.1746H28.6905C29.2312 43.1746 29.6561 43.5995 29.6561 44.1402C29.6561 44.6809 29.2312 45.1057 28.6905 45.1057H20.9656C20.4249 45.1057 20 44.6809 20 44.1402C20 43.5995 20.4249 43.1746 20.9656 43.1746Z" fill="#56B3B4"/>
<path d="M20.9656 50.8994H30.6217C31.1624 50.8994 31.5873 51.3243 31.5873 51.865C31.5873 52.4058 31.1624 52.8306 30.6217 52.8306H20.9656C20.4249 52.8306 20 52.4058 20 51.865C20 51.3243 20.4249 50.8994 20.9656 50.8994Z" fill="#BF85BF"/>
<path d="M20.9656 35.4497H30.6217C31.1624 35.4497 31.5873 35.8746 31.5873 36.4153C31.5873 36.9561 31.1624 37.381 30.6217 37.381H20.9656C20.4249 37.381 20 36.9561 20 36.4153C20 35.8746 20.4249 35.4497 20.9656 35.4497Z" fill="#BF85BF"/>
<path d="M30.6217 23.8624H49.9338C50.4746 23.8624 50.8994 24.2873 50.8994 24.828C50.8994 25.3688 50.4746 25.7937 49.9338 25.7937H30.6217C30.0809 25.7937 29.6561 25.3688 29.6561 24.828C29.6561 24.2873 30.0809 23.8624 30.6217 23.8624Z" fill="#F7BA3E"/>
<path d="M20.9656 23.8624H26.7592C27.3 23.8624 27.7249 24.2873 27.7249 24.828C27.7249 25.3688 27.3 25.7937 26.7592 25.7937H20.9656C20.4249 25.7937 20 25.3688 20 24.828C20 24.2873 20.4249 23.8624 20.9656 23.8624Z" fill="#EA5E5E"/>
<path d="M28.6905 54.7618H30.6217C31.1624 54.7618 31.5873 55.1867 31.5873 55.7275C31.5873 56.2682 31.1624 56.6931 30.6217 56.6931H28.6905C28.1497 56.6931 27.7249 56.2682 27.7249 55.7275C27.7249 55.1867 28.1497 54.7618 28.6905 54.7618Z" fill="#F7BA3E"/>
<path d="M28.6905 31.5873H30.6217C31.1624 31.5873 31.5873 32.0122 31.5873 32.5529C31.5873 33.0936 31.1624 33.5185 30.6217 33.5185H28.6905C28.1497 33.5185 27.7249 33.0936 27.7249 32.5529C27.7249 32.0122 28.1497 31.5873 28.6905 31.5873Z" fill="#56B3B4"/>
<path d="M20.9656 54.7618H24.828C25.3688 54.7618 25.7937 55.1867 25.7937 55.7275C25.7937 56.2682 25.3688 56.6931 24.828 56.6931H20.9656C20.4249 56.6931 20 56.2682 20 55.7275C20 55.1867 20.4249 54.7618 20.9656 54.7618Z" fill="#56B3B4"/>
<path d="M20.9656 31.5873H24.828C25.3688 31.5873 25.7937 32.0122 25.7937 32.5529C25.7937 33.0936 25.3688 33.5185 24.828 33.5185H20.9656C20.4249 33.5185 20 33.0936 20 32.5529C20 32.0122 20.4249 31.5873 20.9656 31.5873Z" fill="#F7BA3E"/>
<path opacity="0.5" d="M46.0714 54.7618H48.0026C48.5433 54.7618 48.9682 55.1867 48.9682 55.7275C48.9682 56.2682 48.5433 56.6931 48.0026 56.6931H46.0714C45.5307 56.6931 45.1059 56.2682 45.1059 55.7275C45.1059 55.1867 45.5307 54.7618 46.0714 54.7618Z" fill="#D0D4D8"/>
<path opacity="0.5" d="M34.4841 54.7618H42.209C42.7497 54.7618 43.1746 55.1867 43.1746 55.7275C43.1746 56.2682 42.7497 56.6931 42.209 56.6931H34.4841C33.9434 56.6931 33.5185 56.2682 33.5185 55.7275C33.5185 55.1867 33.9434 54.7618 34.4841 54.7618Z" fill="#D0D4D8"/>
<path opacity="0.5" d="M51.8651 54.7618H59.5899C60.1307 54.7618 60.5555 55.1867 60.5555 55.7275C60.5555 56.2682 60.1307 56.6931 59.5899 56.6931H51.8651C51.3243 56.6931 50.8994 56.2682 50.8994 55.7275C50.8994 55.1867 51.3243 54.7618 51.8651 54.7618Z" fill="#D0D4D8"/>
<path d="M36.4153 39.3122H51.865C52.4058 39.3122 52.8306 39.737 52.8306 40.2778C52.8306 40.8185 52.4058 41.2433 51.865 41.2433H36.4153C35.8746 41.2433 35.4497 40.8185 35.4497 40.2778C35.4497 39.737 35.8746 39.3122 36.4153 39.3122Z" fill="#56B3B4"/>
<path d="M26.7592 39.3122H32.5529C33.0936 39.3122 33.5185 39.737 33.5185 40.2778C33.5185 40.8185 33.0936 41.2433 32.5529 41.2433H26.7592C26.2185 41.2433 25.7936 40.8185 25.7936 40.2778C25.7936 39.737 26.2185 39.3122 26.7592 39.3122Z" fill="#F7BA3E"/>
<path d="M20.9656 39.3122H22.8968C23.4376 39.3122 23.8624 39.737 23.8624 40.2778C23.8624 40.8185 23.4376 41.2433 22.8968 41.2433H20.9656C20.4249 41.2433 20 40.8185 20 40.2778C20 39.737 20.4249 39.3122 20.9656 39.3122Z" fill="#EA5E5E"/>
<path d="M38.3466 27.7249H46.0714C46.6121 27.7249 47.037 28.1498 47.037 28.6905C47.037 29.2312 46.6121 29.6561 46.0714 29.6561H38.3466C37.8058 29.6561 37.381 29.2312 37.381 28.6905C37.381 28.1498 37.8058 27.7249 38.3466 27.7249Z" fill="#BF85BF"/>
<path d="M20.9656 27.7249H34.4841C35.0248 27.7249 35.4497 28.1498 35.4497 28.6905C35.4497 29.2312 35.0248 29.6561 34.4841 29.6561H20.9656C20.4249 29.6561 20 29.2312 20 28.6905C20 28.1498 20.4249 27.7249 20.9656 27.7249Z" fill="#56B3B4"/>
<path d="M26.7592 47.037H44.1402C44.681 47.037 45.1058 47.4619 45.1058 48.0026C45.1058 48.5433 44.681 48.9682 44.1402 48.9682H26.7592C26.2185 48.9682 25.7936 48.5433 25.7936 48.0026C25.7936 47.4619 26.2185 47.037 26.7592 47.037Z" fill="#F7BA3E"/>
<path d="M20.9656 47.037H22.8968C23.4376 47.037 23.8624 47.4619 23.8624 48.0026C23.8624 48.5433 23.4376 48.9682 22.8968 48.9682H20.9656C20.4249 48.9682 20 48.5433 20 48.0026C20 47.4619 20.4249 47.037 20.9656 47.037Z" fill="#BF85BF"/>
<path d="M44.1402 31.5873H53.7962C54.337 31.5873 54.7618 32.0122 54.7618 32.5529C54.7618 33.0936 54.337 33.5185 53.7962 33.5185H44.1402C43.5995 33.5185 43.1746 33.0936 43.1746 32.5529C43.1746 32.0122 43.5995 31.5873 44.1402 31.5873Z" fill="#EA5E5E"/>
<path d="M44.1402 35.4497H53.7962C54.337 35.4497 54.7618 35.8746 54.7618 36.4153C54.7618 36.9561 54.337 37.381 53.7962 37.381H44.1402C43.5995 37.381 43.1746 36.9561 43.1746 36.4153C43.1746 35.8746 43.5995 35.4497 44.1402 35.4497Z" fill="#F7BA3E"/>
<path d="M20.9656 20H44.1402C44.6809 20 45.1058 20.4249 45.1058 20.9656C45.1058 21.5063 44.6809 21.9312 44.1402 21.9312H20.9656C20.4249 21.9312 20 21.5063 20 20.9656C20 20.4249 20.4249 20 20.9656 20Z" fill="#56B3B4"/>
<path opacity="0.5" d="M48.0026 20H59.5899C60.1307 20 60.5555 20.4249 60.5555 20.9656C60.5555 21.5063 60.1307 21.9312 59.5899 21.9312H48.0026C47.4619 21.9312 47.037 21.5063 47.037 20.9656C47.037 20.4249 47.4619 20 48.0026 20Z" fill="#D0D4D8"/>
<path opacity="0.5" d="M48.0026 47.037H51.865C52.4058 47.037 52.8306 47.4619 52.8306 48.0026C52.8306 48.5433 52.4058 48.9682 51.865 48.9682H48.0026C47.4619 48.9682 47.037 48.5433 47.037 48.0026C47.037 47.4619 47.4619 47.037 48.0026 47.037Z" fill="#D0D4D8"/>
<path opacity="0.5" d="M55.7275 47.037H59.5899C60.1307 47.037 60.5555 47.4619 60.5555 48.0026C60.5555 48.5433 60.1307 48.9682 59.5899 48.9682H55.7275C55.1867 48.9682 54.7619 48.5433 54.7619 48.0026C54.7619 47.4619 55.1867 47.037 55.7275 47.037Z" fill="#D0D4D8"/>
<path opacity="0.5" d="M53.7963 43.1746H59.5899C60.1307 43.1746 60.5555 43.5995 60.5555 44.1402C60.5555 44.6809 60.1307 45.1057 59.5899 45.1057H53.7963C53.2555 45.1057 52.8306 44.6809 52.8306 44.1402C52.8306 43.5995 53.2555 43.1746 53.7963 43.1746Z" fill="#D0D4D8"/>
<path opacity="0.5" d="M53.7963 23.8624H59.5899C60.1307 23.8624 60.5555 24.2873 60.5555 24.828C60.5555 25.3688 60.1307 25.7937 59.5899 25.7937H53.7963C53.2555 25.7937 52.8306 25.3688 52.8306 24.828C52.8306 24.2873 53.2555 23.8624 53.7963 23.8624Z" fill="#D0D4D8"/>
<path opacity="0.5" d="M55.7275 39.3122H59.5899C60.1307 39.3122 60.5555 39.737 60.5555 40.2778C60.5555 40.8185 60.1307 41.2433 59.5899 41.2433H55.7275C55.1867 41.2433 54.7619 40.8185 54.7619 40.2778C54.7619 39.737 55.1867 39.3122 55.7275 39.3122Z" fill="#D0D4D8"/>
<path opacity="0.5" d="M55.7275 27.7249H59.5899C60.1307 27.7249 60.5555 28.1498 60.5555 28.6905C60.5555 29.2312 60.1307 29.6561 59.5899 29.6561H55.7275C55.1867 29.6561 54.7619 29.2312 54.7619 28.6905C54.7619 28.1498 55.1867 27.7249 55.7275 27.7249Z" fill="#D0D4D8"/>
<path opacity="0.5" d="M57.6587 31.5873H59.5899C60.1307 31.5873 60.5555 32.0122 60.5555 32.5529C60.5555 33.0936 60.1307 33.5185 59.5899 33.5185H57.6587C57.118 33.5185 56.6931 33.0936 56.6931 32.5529C56.6931 32.0122 57.118 31.5873 57.6587 31.5873Z" fill="#D0D4D8"/>
<path opacity="0.5" d="M57.6587 35.4497H59.5899C60.1307 35.4497 60.5555 35.8746 60.5555 36.4153C60.5555 36.9561 60.1307 37.381 59.5899 37.381H57.6587C57.118 37.381 56.6931 36.9561 56.6931 36.4153C56.6931 35.8746 57.118 35.4497 57.6587 35.4497Z" fill="#D0D4D8"/>
<path opacity="0.5" d="M42.209 50.8994H59.5899C60.1307 50.8994 60.5555 51.3243 60.5555 51.865C60.5555 52.4058 60.1307 52.8306 59.5899 52.8306H42.209C41.6683 52.8306 41.2434 52.4058 41.2434 51.865C41.2434 51.3243 41.6683 50.8994 42.209 50.8994Z" fill="#D0D4D8"/>
<path opacity="0.5" d="M34.4841 50.8994H38.3465C38.8873 50.8994 39.3121 51.3243 39.3121 51.865C39.3121 52.4058 38.8873 52.8306 38.3465 52.8306H34.4841C33.9434 52.8306 33.5185 52.4058 33.5185 51.865C33.5185 51.3243 33.9434 50.8994 34.4841 50.8994Z" fill="#D0D4D8"/>
<path opacity="0.5" d="M49.9338 58.6243H59.59C60.1307 58.6243 60.5556 59.0492 60.5556 59.5899C60.5556 60.1306 60.1307 60.5555 59.59 60.5555H49.9338C49.3931 60.5555 48.9682 60.1306 48.9682 59.5899C48.9682 59.0492 49.3931 58.6243 49.9338 58.6243Z" fill="#D0D4D8"/>
<path opacity="0.5" d="M34.4841 58.6243H46.0714C46.6121 58.6243 47.037 59.0492 47.037 59.5899C47.037 60.1306 46.6121 60.5555 46.0714 60.5555H34.4841C33.9434 60.5555 33.5185 60.1306 33.5185 59.5899C33.5185 59.0492 33.9434 58.6243 34.4841 58.6243Z" fill="#D0D4D8"/>
<path opacity="0.5" d="M34.4841 31.5873H40.2778C40.8185 31.5873 41.2434 32.0122 41.2434 32.5529C41.2434 33.0936 40.8185 33.5185 40.2778 33.5185H34.4841C33.9434 33.5185 33.5185 33.0936 33.5185 32.5529C33.5185 32.0122 33.9434 31.5873 34.4841 31.5873Z" fill="#D0D4D8"/>
<path opacity="0.5" d="M34.4841 35.4497H40.2778C40.8185 35.4497 41.2434 35.8746 41.2434 36.4153C41.2434 36.9561 40.8185 37.381 40.2778 37.381H34.4841C33.9434 37.381 33.5185 36.9561 33.5185 36.4153C33.5185 35.8746 33.9434 35.4497 34.4841 35.4497Z" fill="#D0D4D8"/>
</svg>
